<svg width="300" height="58" viewBox="0 0 300 58" fill="none" xmlns="http://www.w3.org/2000/svg">
<line x1="0.5" y1="36.5" x2="299.5" y2="36.5" stroke="#1F2937" stroke-linecap="round"/>
<line x1="97.5" y1="17.5" x2="97.5" y2="57.5" stroke="#1F2937" stroke-linecap="round"/>
<line x1="200.5" y1="17.5" x2="200.5" y2="57.5" stroke="#1F2937" stroke-linecap="round"/>
<path d="M90.316 2.436V3.216H94.444V6.156H90.268V6.936H95.32V2.436H90.316ZM89.824 2.436V10.368H90.688V2.436H89.824ZM90.316 4.32V5.016H94.756V4.32H90.316ZM88.984 10.284L89.152 11.148C90.256 10.872 91.732 10.5 93.148 10.128L93.076 9.348C91.564 9.708 90.016 10.08 88.984 10.284ZM92.872 6.6L92.116 6.756C92.74 8.892 93.964 10.488 95.872 11.232C95.992 10.98 96.256 10.644 96.448 10.464C94.648 9.888 93.424 8.436 92.872 6.6ZM95.548 6.864C94.996 7.368 94.036 8.076 93.328 8.484L93.892 8.952C94.612 8.568 95.524 7.956 96.268 7.404L95.548 6.864ZM88.132 6.66H85.576V7.5H87.256V10.908H88.132V6.66ZM88.132 10.512H87.316C86.704 11.028 85.996 11.556 85.42 11.94L85.9 12.864C86.548 12.336 87.16 11.82 87.736 11.304C88.504 12.252 89.584 12.672 91.144 12.732C92.476 12.78 94.96 12.756 96.28 12.708C96.316 12.432 96.472 12 96.568 11.784C95.152 11.88 92.452 11.916 91.144 11.868C89.764 11.808 88.696 11.4 88.132 10.512ZM85.816 2.82C86.608 3.36 87.496 4.164 87.892 4.74L88.588 4.152C88.18 3.576 87.268 2.796 86.488 2.28L85.816 2.82ZM102.256 8.928V9.576H104.692V8.928H102.256ZM101.584 3.12V3.828H105.364V3.12H101.584ZM101.236 5.748V6.492H108.532V5.748H101.236ZM102.412 7.212V7.884H104.368V10.656H102.412V11.328H105.1V7.212H102.412ZM101.884 7.212V12.084H102.604V7.212H101.884ZM103.036 1.944V3.624H103.828V1.944H103.036ZM107.44 7.104C106.852 9.432 105.688 11.268 103.936 12.36C104.116 12.504 104.392 12.816 104.5 12.96C106.264 11.724 107.524 9.792 108.196 7.26L107.44 7.104ZM101.944 4.044C102.148 4.584 102.304 5.292 102.316 5.748L102.976 5.592C102.952 5.124 102.796 4.428 102.568 3.9L101.944 4.044ZM106.648 2.7C107.152 3.3 107.668 4.14 107.884 4.692L108.544 4.332C108.316 3.78 107.8 2.964 107.272 2.376L106.648 2.7ZM104.236 3.876C104.164 4.368 103.972 5.1 103.816 5.58L104.416 5.724C104.584 5.292 104.776 4.62 104.968 4.044L104.236 3.876ZM97.6 2.448V3.252H101.608V2.448H97.6ZM98.536 4.968V5.724H100.696V4.968H98.536ZM98.536 7.44V8.208H100.696V7.44H98.536ZM98.164 2.856V10.536H98.92V2.856H98.164ZM100.24 2.844V12.972H101.02V2.844H100.24ZM97.396 10.416L97.552 11.256C98.452 11.064 99.58 10.812 100.708 10.572L100.648 9.78C99.424 10.032 98.224 10.272 97.396 10.416ZM105.64 1.944C105.736 8.124 106.012 12.912 107.584 12.936C107.968 12.948 108.4 12.456 108.628 10.572C108.484 10.5 108.16 10.284 108.016 10.104C107.944 11.232 107.8 11.904 107.62 11.904C106.84 11.868 106.456 7.296 106.456 1.944H105.64Z" fill="#1F2937"/>
<path d="M191.06 1.92V3.936H191.972V1.92H191.06ZM188.624 3.456V4.284H194.336V3.456H188.624ZM194.252 5.1V5.952H199.472V5.1H194.252ZM190.112 6H192.908V7.608H190.112V6ZM189.272 5.22V8.376H193.784V5.22H189.272ZM191.108 8.052V11.928C191.108 12.06 191.06 12.096 190.928 12.108C190.772 12.12 190.304 12.12 189.752 12.108C189.872 12.336 190.004 12.684 190.04 12.924C190.772 12.924 191.264 12.924 191.576 12.78C191.888 12.636 191.972 12.384 191.972 11.94V8.052H191.108ZM189.5 9.012C189.284 9.972 188.9 10.92 188.384 11.556C188.588 11.676 188.924 11.928 189.08 12.072C189.62 11.364 190.076 10.272 190.328 9.192L189.5 9.012ZM192.596 9.168C192.932 9.804 193.28 10.668 193.424 11.22L194.18 10.944C194.036 10.392 193.676 9.552 193.316 8.916L192.596 9.168ZM197.24 2.628C197.816 3.216 198.38 4.056 198.62 4.632L199.364 4.248C199.124 3.672 198.548 2.868 197.936 2.292L197.24 2.628ZM195.992 1.92V4.44C195.992 6.78 195.776 10.128 193.208 12.468C193.436 12.576 193.808 12.816 193.976 12.984C196.616 10.524 196.868 6.996 196.868 4.44V1.92H195.992ZM196.568 6.552V11.7C196.568 12.312 196.628 12.504 196.844 12.684C197.048 12.84 197.348 12.888 197.624 12.888C197.78 12.888 198.2 12.888 198.38 12.888C198.644 12.888 198.932 12.84 199.1 12.756C199.304 12.636 199.424 12.468 199.508 12.192C199.568 11.94 199.616 11.208 199.628 10.572C199.4 10.5 199.1 10.344 198.92 10.188C198.932 10.848 198.908 11.424 198.884 11.652C198.86 11.796 198.788 11.916 198.704 11.964C198.62 12.012 198.464 12.036 198.32 12.036C198.164 12.036 197.948 12.036 197.828 12.036C197.696 12.036 197.588 12.012 197.516 11.952C197.432 11.916 197.396 11.832 197.396 11.736V6.552H196.568ZM205.256 8.928V9.576H207.692V8.928H205.256ZM204.584 3.12V3.828H208.364V3.12H204.584ZM204.236 5.748V6.492H211.532V5.748H204.236ZM205.412 7.212V7.884H207.368V10.656H205.412V11.328H208.1V7.212H205.412ZM204.884 7.212V12.084H205.604V7.212H204.884ZM206.036 1.944V3.624H206.828V1.944H206.036ZM210.44 7.104C209.852 9.432 208.688 11.268 206.936 12.36C207.116 12.504 207.392 12.816 207.5 12.96C209.264 11.724 210.524 9.792 211.196 7.26L210.44 7.104ZM204.944 4.044C205.148 4.584 205.304 5.292 205.316 5.748L205.976 5.592C205.952 5.124 205.796 4.428 205.568 3.9L204.944 4.044ZM209.648 2.7C210.152 3.3 210.668 4.14 210.884 4.692L211.544 4.332C211.316 3.78 210.8 2.964 210.272 2.376L209.648 2.7ZM207.236 3.876C207.164 4.368 206.972 5.1 206.816 5.58L207.416 5.724C207.584 5.292 207.776 4.62 207.968 4.044L207.236 3.876ZM200.6 2.448V3.252H204.608V2.448H200.6ZM201.536 4.968V5.724H203.696V4.968H201.536ZM201.536 7.44V8.208H203.696V7.44H201.536ZM201.164 2.856V10.536H201.92V2.856H201.164ZM203.24 2.844V12.972H204.02V2.844H203.24ZM200.396 10.416L200.552 11.256C201.452 11.064 202.58 10.812 203.708 10.572L203.648 9.78C202.424 10.032 201.224 10.272 200.396 10.416ZM208.64 1.944C208.736 8.124 209.012 12.912 210.584 12.936C210.968 12.948 211.4 12.456 211.628 10.572C211.484 10.5 211.16 10.284 211.016 10.104C210.944 11.232 210.8 11.904 210.62 11.904C209.84 11.868 209.456 7.296 209.456 1.944H208.64Z" fill="#1F2937"/>
<path d="M217.688 23.66V24.464H222.308V23.66H217.688ZM217.652 20.78V21.62H222.848V20.78H217.652ZM219.884 18.932V24.14H220.76V18.932H219.884ZM217.28 20.78V23.684C217.28 25.412 217.148 27.812 215.912 29.504C216.116 29.6 216.488 29.828 216.644 29.984C217.928 28.196 218.132 25.532 218.132 23.684V20.78H217.28ZM218.936 24.08L218.156 24.284C218.96 27.044 220.532 29.084 223.028 30.008C223.172 29.744 223.436 29.396 223.64 29.216C221.228 28.448 219.656 26.552 218.936 24.08ZM222.596 20.78V20.924C222.452 21.656 222.212 22.58 221.996 23.132L222.764 23.288C223.028 22.7 223.304 21.728 223.508 20.9L222.872 20.744L222.728 20.78H222.596ZM222.104 23.66V23.816C221.492 26.576 219.62 28.46 217.496 29.24C217.676 29.408 217.916 29.744 218.024 29.972C220.34 29.024 222.272 27.068 223.004 23.828L222.44 23.624L222.272 23.66H222.104ZM214.232 24.812V29.972H215.084V23.792L214.232 24.812ZM212.576 21.152V21.968H216.116V21.152H212.576ZM214.208 18.968V21.62H215.06V18.968H214.208ZM214.988 23.804L214.52 24.2C214.916 24.656 215.936 25.988 216.284 26.552L216.824 25.94C216.548 25.592 215.336 24.14 214.988 23.804ZM215.888 21.152V21.344C215.24 23.084 213.728 24.872 212.3 25.832C212.444 25.976 212.672 26.396 212.756 26.624C214.268 25.508 215.912 23.552 216.704 21.44L216.224 21.116L216.068 21.152H215.888ZM216.476 23.3C216.236 23.756 215.768 24.428 215.432 24.824L215.876 25.172C216.224 24.8 216.668 24.224 217.04 23.708L216.476 23.3ZM231.164 23.048V29.972H232.076V23.048H231.164ZM227.66 24.812V25.64H235.448V24.812H227.66ZM232.328 25.136L231.632 25.4C232.424 26.996 233.816 28.616 235.124 29.456C235.28 29.24 235.568 28.916 235.76 28.748C234.452 28.028 233.048 26.576 232.328 25.136ZM230.96 25.076C230.204 26.54 228.728 28.028 227.324 28.724C227.516 28.904 227.792 29.216 227.948 29.432C229.376 28.604 230.864 26.996 231.668 25.34L230.96 25.076ZM229.412 20.3H233.888V22.496H229.412V20.3ZM228.56 19.496V23.312H234.776V19.496H228.56ZM227.312 18.956C226.616 20.78 225.464 22.568 224.264 23.708C224.432 23.924 224.684 24.392 224.78 24.596C226.088 23.264 227.348 21.248 228.164 19.22L227.312 18.956ZM226.064 22.052V29.936H226.928V21.212L226.916 21.2L226.064 22.052ZM236.96 19.448V29.972H237.776V20.264H239.876V19.448H236.96ZM239.612 19.448V19.688C239.348 20.54 238.856 22.04 238.388 23.168C239.3 24.08 239.576 24.836 239.588 25.472C239.588 25.844 239.516 26.156 239.312 26.288C239.204 26.36 239.06 26.396 238.904 26.396C238.7 26.408 238.424 26.408 238.136 26.384C238.268 26.612 238.34 26.96 238.352 27.188C238.664 27.2 238.988 27.2 239.252 27.176C239.492 27.14 239.72 27.068 239.9 26.948C240.26 26.708 240.404 26.216 240.404 25.568C240.392 24.836 240.152 24.02 239.204 23.06C239.648 22.052 240.14 20.768 240.512 19.772L239.912 19.412L239.768 19.448H239.612ZM241.52 21.812V22.568H246.26V21.812H241.52ZM243.836 19.724C244.628 20.768 246.008 21.848 247.256 22.46C247.376 22.22 247.568 21.884 247.724 21.68C246.464 21.164 245.084 20.096 244.208 18.932H243.38C242.732 20.012 241.388 21.176 240.02 21.824C240.176 22.016 240.368 22.328 240.464 22.544C241.844 21.848 243.14 20.72 243.836 19.724ZM241.604 24.344H246.152V25.964H241.604V24.344ZM240.812 23.624V26.696H246.98V23.624H240.812ZM243.416 22.22V25.376C243.416 26.876 243.02 28.376 239.912 29.348C240.068 29.492 240.308 29.828 240.404 30.02C243.692 28.976 244.244 27.14 244.244 25.4V22.22H243.416ZM244.388 26.276L243.608 26.444C244.352 28.532 245.468 29.396 247.136 30.02C247.232 29.756 247.46 29.456 247.664 29.264C246.116 28.748 245.084 28.088 244.388 26.276ZM248.648 22.784V23.588H259.34V22.784H248.648ZM249.704 20.432V21.236H256.652V20.432H249.704ZM251.648 26.804V27.524H257.3V26.804H251.648ZM251.648 28.796V29.576H257.3V28.796H251.648ZM252.788 18.92V23.216H253.664V18.92H252.788ZM258.044 19.34C255.824 22.316 252.248 24.644 248.372 25.988C248.552 26.168 248.84 26.54 248.948 26.744C252.788 25.268 256.4 22.904 258.812 19.748L258.044 19.34ZM251.156 24.86V29.972H252.056V25.616H256.94V29.924H257.876V24.86H251.156ZM267.32 19.52V20.348H270.656V19.52H267.32ZM267.32 22.28V23.084H270.656V22.28H267.32ZM267.308 25.076V25.892H270.68V25.076H267.308ZM270.248 19.52V28.808C270.248 28.988 270.188 29.048 270.008 29.048C269.828 29.06 269.228 29.06 268.592 29.048C268.712 29.276 268.844 29.672 268.868 29.924C269.756 29.924 270.32 29.9 270.656 29.756C271.004 29.612 271.124 29.336 271.124 28.82V19.52H270.248ZM266.948 19.52V23.876C266.948 25.616 266.864 27.896 265.856 29.504C266.06 29.588 266.42 29.852 266.576 30.02C267.656 28.316 267.8 25.724 267.8 23.876V19.52H266.948ZM260.612 20.528V21.32H266.36V20.528H260.612ZM262.028 22.388V23.12H265.064V22.388H262.028ZM262.028 24.296V25.016H265.076V24.296H262.028ZM260.456 26.228V27.032H266.36V26.228H260.456ZM261.632 19.064V26.552H262.46V19.064H261.632ZM264.644 19.064V26.552H265.472V19.064H264.644ZM262.124 27.296C261.764 28.1 261.14 28.904 260.468 29.444C260.684 29.564 261.032 29.828 261.2 29.972C261.848 29.372 262.544 28.448 262.988 27.536L262.124 27.296ZM263.852 27.668C264.32 28.232 264.86 29.024 265.088 29.504L265.82 29.072C265.58 28.58 265.016 27.836 264.548 27.296L263.852 27.668ZM276.164 26.276V26.972H279.8V26.276H276.164ZM276.128 24.464V25.172H279.368V28.148H276.128V28.844H280.22V24.464H276.128ZM275.732 24.464V29.456H276.56V24.464H275.732ZM273.524 21.14V21.8H276.86V21.14H273.524ZM279.056 21.14V21.8H282.452V21.14H279.056ZM282.08 19.436V28.772C282.08 28.976 282.008 29.048 281.792 29.048C281.576 29.06 280.844 29.072 280.112 29.036C280.244 29.288 280.388 29.708 280.424 29.96C281.432 29.96 282.08 29.948 282.464 29.804C282.848 29.648 282.98 29.348 282.98 28.772V19.436H282.08ZM273.596 19.436V20.132H276.584V22.868H273.596V23.564H277.436V19.436H273.596ZM282.524 19.436H278.516V23.576H282.524V22.892H279.38V20.132H282.524V19.436ZM273.08 19.436V29.972H273.968V19.436H273.08Z" fill="#1F2937"/>
<path d="M133.504 20.2727V29H131.659V22.0241H131.608L129.609 23.277V21.6406L131.77 20.2727H133.504ZM137.847 18.764C137.331 20.324 136.395 21.86 135.315 22.796C135.663 23 136.275 23.48 136.551 23.732C137.619 22.652 138.675 20.924 139.311 19.136L137.847 18.764ZM138.099 20.132L137.403 21.524H145.731V20.132H138.099ZM137.247 22.964V26.828H138.699V24.308H145.455V22.964H137.247ZM135.351 26.12V27.512H146.391V26.12H135.351ZM140.775 20.852V30.08H142.263V20.852H140.775ZM151.071 20.876C151.803 21.788 152.571 23.048 152.883 23.888L154.287 23.132C153.939 22.292 153.171 21.116 152.391 20.24L151.071 20.876ZM147.171 27.188L147.675 28.724C149.031 28.148 150.807 27.404 152.403 26.684L152.067 25.268C150.315 26 148.407 26.768 147.171 27.188ZM154.203 26.108C155.307 27.332 156.771 29 157.407 30.068L158.631 28.88C157.947 27.836 156.411 26.24 155.319 25.1L154.203 26.108ZM155.835 19.496C155.391 24.452 154.155 27.38 150.327 28.82C150.675 29.132 151.275 29.78 151.479 30.104C155.415 28.328 156.867 25.076 157.431 19.64L155.835 19.496ZM148.539 19.544L148.815 27.344L150.315 27.284L150.051 19.484L148.539 19.544ZM164.103 24.152C165.183 25.172 166.587 26.612 167.223 27.512L168.423 26.588C167.715 25.688 166.263 24.32 165.195 23.36L164.103 24.152ZM164.139 18.812V21.68C164.139 23.252 163.935 25.352 161.343 26.684C161.679 26.936 162.171 27.464 162.375 27.776C165.111 26.144 165.615 23.684 165.615 21.692V18.812H164.139ZM159.927 20.804V30.104H161.367V22.22H169.047V20.804H159.927ZM168.411 20.804V28.412C168.411 28.616 168.339 28.688 168.111 28.7C167.883 28.7 167.079 28.7 166.371 28.664C166.563 29.036 166.791 29.696 166.839 30.092C167.907 30.092 168.675 30.08 169.179 29.852C169.671 29.612 169.839 29.216 169.839 28.436V20.804H168.411Z" fill="#1F2937"/>
<path d="M219.335 57.8352C218.429 57.8352 217.565 57.6974 216.744 57.4219C215.926 57.1463 215.175 56.7571 214.49 56.2543C213.808 55.7543 213.216 55.1619 212.713 54.4773C212.213 53.7955 211.825 53.0455 211.55 52.2273C211.274 51.4062 211.136 50.5426 211.136 49.6364C211.136 48.7301 211.274 47.8679 211.55 47.0497C211.825 46.2287 212.213 45.4773 212.713 44.7955C213.216 44.1108 213.808 43.5185 214.49 43.0185C215.175 42.5156 215.926 42.1264 216.744 41.8509C217.565 41.5753 218.429 41.4375 219.335 41.4375C220.241 41.4375 221.104 41.5753 221.922 41.8509C222.743 42.1264 223.494 42.5156 224.176 43.0185C224.861 43.5185 225.453 44.1108 225.953 44.7955C226.456 45.4773 226.845 46.2287 227.121 47.0497C227.396 47.8679 227.534 48.7301 227.534 49.6364C227.534 50.5426 227.396 51.4062 227.121 52.2273C226.845 53.0455 226.456 53.7955 225.953 54.4773C225.453 55.1619 224.861 55.7543 224.176 56.2543C223.494 56.7571 222.743 57.1463 221.922 57.4219C221.104 57.6974 220.241 57.8352 219.335 57.8352ZM219.335 56.6207C220.108 56.6207 220.842 56.5028 221.538 56.267C222.237 56.0341 222.878 55.7031 223.46 55.2741C224.043 54.848 224.547 54.3438 224.973 53.7614C225.402 53.179 225.733 52.5384 225.966 51.8395C226.202 51.1406 226.32 50.4062 226.32 49.6364C226.32 48.8636 226.202 48.1293 225.966 47.4332C225.733 46.7344 225.402 46.0938 224.973 45.5114C224.547 44.929 224.043 44.4247 223.46 43.9986C222.878 43.5696 222.237 43.2386 221.538 43.0057C220.842 42.7699 220.108 42.652 219.335 42.652C218.563 42.652 217.827 42.7699 217.128 43.0057C216.429 43.2386 215.788 43.5696 215.206 43.9986C214.626 44.4247 214.122 44.929 213.693 45.5114C213.267 46.0938 212.936 46.7344 212.7 47.4332C212.467 48.1293 212.351 48.8636 212.351 49.6364C212.351 50.4091 212.467 51.1449 212.7 51.8438C212.936 52.5398 213.267 53.179 213.693 53.7614C214.122 54.3438 214.626 54.848 215.206 55.2741C215.788 55.7031 216.429 56.0341 217.128 56.267C217.827 56.5028 218.563 56.6207 219.335 56.6207ZM234.06 44.376H232.284C232.332 44.664 232.38 45.216 232.38 45.48C232.368 48.648 231.816 50.688 230.244 52.248C229.764 52.74 229.164 53.136 228.66 53.412L230.064 54.54C232.716 52.656 233.844 50.22 233.976 45.456C233.988 45.168 234.024 44.664 234.06 44.376ZM238.128 46.956L237.096 46.44C236.808 46.5 236.496 46.524 236.184 46.524H230.628C230.172 46.524 229.56 46.5 229.056 46.44V48.024C229.56 47.976 230.232 47.964 230.64 47.964H236.496C236.496 49.26 236.328 51.66 235.98 52.416C235.86 52.716 235.692 52.848 235.308 52.848C234.828 52.848 234.216 52.776 233.616 52.68L233.808 54.276C234.396 54.324 235.104 54.384 235.8 54.384C236.616 54.384 237.084 54.06 237.336 53.46C237.852 52.236 238.008 48.888 238.056 47.58C238.056 47.448 238.092 47.148 238.128 46.956ZM246.54 44.208H244.692C244.764 44.724 244.776 44.964 244.776 45.312C244.776 45.624 244.776 46.512 244.776 47.04H246.456C246.456 46.584 246.456 45.624 246.456 45.312C246.456 44.964 246.468 44.724 246.54 44.208ZM250.572 46.74L249.54 46.104C249.324 46.176 249.036 46.224 248.544 46.224H242.22C241.764 46.224 241.404 46.212 240.996 46.176C241.044 46.452 241.044 46.932 241.044 47.196C241.044 47.652 241.044 48.888 241.044 49.284C241.044 49.608 241.032 49.992 240.996 50.292H242.652C242.616 50.052 242.604 49.668 242.604 49.404C242.604 49.032 242.604 48.06 242.604 47.64H248.556C248.412 48.708 248.1 49.848 247.5 50.736C246.816 51.696 245.76 52.404 244.776 52.776C244.272 52.98 243.624 53.16 243.072 53.256L244.32 54.696C246.456 54.132 248.268 52.86 249.216 51.096C249.816 50.004 250.128 48.84 250.344 47.688C250.392 47.46 250.488 47.004 250.572 46.74ZM254.568 44.88L253.428 46.092C254.304 46.692 255.816 48 256.44 48.672L257.664 47.424C256.956 46.692 255.396 45.444 254.568 44.88ZM253.056 52.872L254.076 54.456C255.756 54.168 257.304 53.508 258.528 52.776C260.46 51.612 262.056 49.956 262.956 48.324L262.032 46.644C261.264 48.264 259.704 50.088 257.652 51.312C256.488 51.996 254.94 52.608 253.056 52.872ZM267.432 52.86C267.432 53.328 267.396 54.06 267.312 54.528H269.196C269.136 54.036 269.088 53.196 269.088 52.86C269.088 51.972 269.076 47.28 269.076 45.96C269.076 45.456 269.136 44.94 269.184 44.508H267.312C267.396 44.94 267.432 45.528 267.432 45.96C267.432 46.968 267.432 51.936 267.432 52.86ZM268.728 47.616V49.344C270.036 49.776 272.052 50.544 273.42 51.252L274.092 49.584C272.916 49.008 270.324 48.06 268.728 47.616ZM283.512 44.328H281.772C281.796 44.484 281.844 44.892 281.88 45.372C281.928 46.008 281.928 48.312 281.928 49.056L283.428 49.56C283.416 48.6 283.392 46.152 283.428 45.36C283.44 45.168 283.476 44.532 283.512 44.328ZM276.72 45.828L276.756 47.268C278.568 47.172 280.956 47.076 283.14 47.076C284.904 47.076 286.128 47.112 286.872 47.148L286.896 45.732C286.224 45.72 284.4 45.732 283.176 45.732C281.676 45.732 278.508 45.828 276.72 45.828ZM283.224 49.38L282.096 49.068C282.48 50.496 281.988 50.976 281.424 50.976C280.932 50.976 280.488 50.628 280.488 50.088C280.488 49.452 280.956 49.128 281.424 49.128C281.952 49.128 282.372 49.5 282.372 50.28C282.372 52.38 280.776 53.184 278.736 53.628L280.008 54.9C282.936 54.072 283.86 52.092 283.86 50.52C283.86 49.032 283.032 47.868 281.448 47.868C280.152 47.868 279.048 48.756 279.048 50.112C279.048 51.576 280.2 52.308 281.124 52.308C282.504 52.308 283.224 51.336 283.224 49.38ZM290.316 44.868L290.364 46.428C290.64 46.38 291.012 46.356 291.336 46.332C291.984 46.284 293.64 46.224 294.252 46.2C293.664 46.728 292.404 47.736 291.732 48.288C291.036 48.876 289.584 50.1 288.732 50.772L289.824 51.9C291.108 50.448 292.296 49.464 294.144 49.464C295.548 49.464 296.628 50.196 296.628 51.288C296.628 52.572 295.596 53.34 293.568 53.34C292.836 53.34 292.344 53.04 292.344 52.596C292.344 52.284 292.644 52.008 293.088 52.008C293.796 52.008 294.252 52.608 294.276 53.472L295.68 53.292C295.644 51.972 294.732 50.868 293.088 50.868C291.816 50.868 290.928 51.756 290.928 52.728C290.928 53.94 292.188 54.696 293.856 54.696C296.76 54.696 298.2 53.196 298.2 51.3C298.2 49.56 296.652 48.288 294.612 48.288C294.24 48.288 293.88 48.312 293.472 48.42C294.24 47.82 295.5 46.764 296.148 46.308C296.412 46.104 296.7 45.936 296.976 45.756L296.208 44.676C296.064 44.724 295.788 44.772 295.284 44.808C294.6 44.868 292.044 44.928 291.396 44.928C291.06 44.928 290.652 44.904 290.316 44.868Z" fill="#FF354B"/>
<path d="M10.3352 57.8352C9.42898 57.8352 8.56534 57.6974 7.74432 57.4219C6.92614 57.1463 6.17472 56.7571 5.49006 56.2543C4.80824 55.7543 4.21591 55.1619 3.71307 54.4773C3.21307 53.7955 2.82528 53.0455 2.54972 52.2273C2.27415 51.4062 2.13636 50.5426 2.13636 49.6364C2.13636 48.7301 2.27415 47.8679 2.54972 47.0497C2.82528 46.2287 3.21307 45.4773 3.71307 44.7955C4.21591 44.1108 4.80824 43.5185 5.49006 43.0185C6.17472 42.5156 6.92614 42.1264 7.74432 41.8509C8.56534 41.5753 9.42898 41.4375 10.3352 41.4375C11.2415 41.4375 12.1037 41.5753 12.9219 41.8509C13.7429 42.1264 14.4943 42.5156 15.1761 43.0185C15.8608 43.5185 16.4531 44.1108 16.9531 44.7955C17.456 45.4773 17.8452 46.2287 18.1207 47.0497C18.3963 47.8679 18.5341 48.7301 18.5341 49.6364C18.5341 50.5426 18.3963 51.4062 18.1207 52.2273C17.8452 53.0455 17.456 53.7955 16.9531 54.4773C16.4531 55.1619 15.8608 55.7543 15.1761 56.2543C14.4943 56.7571 13.7429 57.1463 12.9219 57.4219C12.1037 57.6974 11.2415 57.8352 10.3352 57.8352ZM10.3352 56.6207C11.108 56.6207 11.8423 56.5028 12.5384 56.267C13.2372 56.0341 13.8778 55.7031 14.4602 55.2741C15.0426 54.848 15.5469 54.3438 15.973 53.7614C16.402 53.179 16.733 52.5384 16.9659 51.8395C17.2017 51.1406 17.3196 50.4062 17.3196 49.6364C17.3196 48.8636 17.2017 48.1293 16.9659 47.4332C16.733 46.7344 16.402 46.0938 15.973 45.5114C15.5469 44.929 15.0426 44.4247 14.4602 43.9986C13.8778 43.5696 13.2372 43.2386 12.5384 43.0057C11.8423 42.7699 11.108 42.652 10.3352 42.652C9.5625 42.652 8.8267 42.7699 8.12784 43.0057C7.42898 43.2386 6.78835 43.5696 6.20597 43.9986C5.62642 44.4247 5.12216 44.929 4.69318 45.5114C4.26705 46.0938 3.93608 46.7344 3.70028 47.4332C3.46733 48.1293 3.35085 48.8636 3.35085 49.6364C3.35085 50.4091 3.46733 51.1449 3.70028 51.8438C3.93608 52.5398 4.26705 53.179 4.69318 53.7614C5.12216 54.3438 5.62642 54.848 6.20597 55.2741C6.78835 55.7031 7.42898 56.0341 8.12784 56.267C8.8267 56.5028 9.5625 56.6207 10.3352 56.6207ZM25.0598 44.376H23.2838C23.3318 44.664 23.3798 45.216 23.3798 45.48C23.3678 48.648 22.8158 50.688 21.2438 52.248C20.7638 52.74 20.1638 53.136 19.6598 53.412L21.0638 54.54C23.7158 52.656 24.8438 50.22 24.9758 45.456C24.9878 45.168 25.0238 44.664 25.0598 44.376ZM29.1278 46.956L28.0958 46.44C27.8078 46.5 27.4958 46.524 27.1838 46.524H21.6278C21.1718 46.524 20.5598 46.5 20.0558 46.44V48.024C20.5598 47.976 21.2318 47.964 21.6398 47.964H27.4958C27.4958 49.26 27.3278 51.66 26.9798 52.416C26.8598 52.716 26.6918 52.848 26.3078 52.848C25.8278 52.848 25.2158 52.776 24.6158 52.68L24.8078 54.276C25.3958 54.324 26.1038 54.384 26.7998 54.384C27.6158 54.384 28.0838 54.06 28.3358 53.46C28.8518 52.236 29.0078 48.888 29.0558 47.58C29.0558 47.448 29.0918 47.148 29.1278 46.956ZM37.5398 44.208H35.6918C35.7638 44.724 35.7758 44.964 35.7758 45.312C35.7758 45.624 35.7758 46.512 35.7758 47.04H37.4558C37.4558 46.584 37.4558 45.624 37.4558 45.312C37.4558 44.964 37.4678 44.724 37.5398 44.208ZM41.5718 46.74L40.5398 46.104C40.3238 46.176 40.0358 46.224 39.5438 46.224H33.2198C32.7638 46.224 32.4038 46.212 31.9958 46.176C32.0438 46.452 32.0438 46.932 32.0438 47.196C32.0438 47.652 32.0438 48.888 32.0438 49.284C32.0438 49.608 32.0318 49.992 31.9958 50.292H33.6518C33.6158 50.052 33.6038 49.668 33.6038 49.404C33.6038 49.032 33.6038 48.06 33.6038 47.64H39.5558C39.4118 48.708 39.0998 49.848 38.4998 50.736C37.8158 51.696 36.7598 52.404 35.7758 52.776C35.2718 52.98 34.6238 53.16 34.0718 53.256L35.3198 54.696C37.4558 54.132 39.2678 52.86 40.2158 51.096C40.8158 50.004 41.1278 48.84 41.3438 47.688C41.3918 47.46 41.4878 47.004 41.5718 46.74ZM45.5678 44.88L44.4278 46.092C45.3038 46.692 46.8158 48 47.4398 48.672L48.6638 47.424C47.9558 46.692 46.3958 45.444 45.5678 44.88ZM44.0558 52.872L45.0758 54.456C46.7558 54.168 48.3038 53.508 49.5278 52.776C51.4598 51.612 53.0558 49.956 53.9558 48.324L53.0318 46.644C52.2638 48.264 50.7038 50.088 48.6518 51.312C47.4878 51.996 45.9398 52.608 44.0558 52.872ZM58.4318 52.86C58.4318 53.328 58.3958 54.06 58.3118 54.528H60.1958C60.1358 54.036 60.0878 53.196 60.0878 52.86C60.0878 51.972 60.0758 47.28 60.0758 45.96C60.0758 45.456 60.1358 44.94 60.1838 44.508H58.3118C58.3958 44.94 58.4318 45.528 58.4318 45.96C58.4318 46.968 58.4318 51.936 58.4318 52.86ZM59.7278 47.616V49.344C61.0358 49.776 63.0518 50.544 64.4198 51.252L65.0918 49.584C63.9158 49.008 61.3238 48.06 59.7278 47.616ZM74.5118 44.328H72.7718C72.7958 44.484 72.8438 44.892 72.8798 45.372C72.9278 46.008 72.9278 48.312 72.9278 49.056L74.4278 49.56C74.4158 48.6 74.3918 46.152 74.4278 45.36C74.4398 45.168 74.4758 44.532 74.5118 44.328ZM67.7198 45.828L67.7558 47.268C69.5678 47.172 71.9558 47.076 74.1398 47.076C75.9038 47.076 77.1278 47.112 77.8718 47.148L77.8958 45.732C77.2238 45.72 75.3998 45.732 74.1758 45.732C72.6758 45.732 69.5078 45.828 67.7198 45.828ZM74.2238 49.38L73.0958 49.068C73.4798 50.496 72.9878 50.976 72.4238 50.976C71.9318 50.976 71.4878 50.628 71.4878 50.088C71.4878 49.452 71.9558 49.128 72.4238 49.128C72.9518 49.128 73.3718 49.5 73.3718 50.28C73.3718 52.38 71.7758 53.184 69.7358 53.628L71.0078 54.9C73.9358 54.072 74.8598 52.092 74.8598 50.52C74.8598 49.032 74.0318 47.868 72.4478 47.868C71.1518 47.868 70.0478 48.756 70.0478 50.112C70.0478 51.576 71.1998 52.308 72.1238 52.308C73.5038 52.308 74.2238 51.336 74.2238 49.38ZM81.3158 44.868L81.3638 46.428C81.6398 46.38 82.0118 46.356 82.3358 46.332C82.9838 46.284 84.6398 46.224 85.2518 46.2C84.6638 46.728 83.4038 47.736 82.7318 48.288C82.0358 48.876 80.5838 50.1 79.7318 50.772L80.8238 51.9C82.1078 50.448 83.2958 49.464 85.1438 49.464C86.5478 49.464 87.6278 50.196 87.6278 51.288C87.6278 52.572 86.5958 53.34 84.5678 53.34C83.8358 53.34 83.3438 53.04 83.3438 52.596C83.3438 52.284 83.6438 52.008 84.0878 52.008C84.7958 52.008 85.2518 52.608 85.2758 53.472L86.6798 53.292C86.6438 51.972 85.7318 50.868 84.0878 50.868C82.8158 50.868 81.9278 51.756 81.9278 52.728C81.9278 53.94 83.1878 54.696 84.8558 54.696C87.7598 54.696 89.1998 53.196 89.1998 51.3C89.1998 49.56 87.6518 48.288 85.6118 48.288C85.2398 48.288 84.8798 48.312 84.4718 48.42C85.2398 47.82 86.4998 46.764 87.1478 46.308C87.4118 46.104 87.6998 45.936 87.9758 45.756L87.2078 44.676C87.0638 44.724 86.7878 44.772 86.2838 44.808C85.5998 44.868 83.0438 44.928 82.3958 44.928C82.0598 44.928 81.6518 44.904 81.3158 44.868Z" fill="#FF354B"/>
<path d="M18.688 23.66V24.464H23.308V23.66H18.688ZM18.652 20.78V21.62H23.848V20.78H18.652ZM20.884 18.932V24.14H21.76V18.932H20.884ZM18.28 20.78V23.684C18.28 25.412 18.148 27.812 16.912 29.504C17.116 29.6 17.488 29.828 17.644 29.984C18.928 28.196 19.132 25.532 19.132 23.684V20.78H18.28ZM19.936 24.08L19.156 24.284C19.96 27.044 21.532 29.084 24.028 30.008C24.172 29.744 24.436 29.396 24.64 29.216C22.228 28.448 20.656 26.552 19.936 24.08ZM23.596 20.78V20.924C23.452 21.656 23.212 22.58 22.996 23.132L23.764 23.288C24.028 22.7 24.304 21.728 24.508 20.9L23.872 20.744L23.728 20.78H23.596ZM23.104 23.66V23.816C22.492 26.576 20.62 28.46 18.496 29.24C18.676 29.408 18.916 29.744 19.024 29.972C21.34 29.024 23.272 27.068 24.004 23.828L23.44 23.624L23.272 23.66H23.104ZM15.232 24.812V29.972H16.084V23.792L15.232 24.812ZM13.576 21.152V21.968H17.116V21.152H13.576ZM15.208 18.968V21.62H16.06V18.968H15.208ZM15.988 23.804L15.52 24.2C15.916 24.656 16.936 25.988 17.284 26.552L17.824 25.94C17.548 25.592 16.336 24.14 15.988 23.804ZM16.888 21.152V21.344C16.24 23.084 14.728 24.872 13.3 25.832C13.444 25.976 13.672 26.396 13.756 26.624C15.268 25.508 16.912 23.552 17.704 21.44L17.224 21.116L17.068 21.152H16.888ZM17.476 23.3C17.236 23.756 16.768 24.428 16.432 24.824L16.876 25.172C17.224 24.8 17.668 24.224 18.04 23.708L17.476 23.3ZM32.164 23.048V29.972H33.076V23.048H32.164ZM28.66 24.812V25.64H36.448V24.812H28.66ZM33.328 25.136L32.632 25.4C33.424 26.996 34.816 28.616 36.124 29.456C36.28 29.24 36.568 28.916 36.76 28.748C35.452 28.028 34.048 26.576 33.328 25.136ZM31.96 25.076C31.204 26.54 29.728 28.028 28.324 28.724C28.516 28.904 28.792 29.216 28.948 29.432C30.376 28.604 31.864 26.996 32.668 25.34L31.96 25.076ZM30.412 20.3H34.888V22.496H30.412V20.3ZM29.56 19.496V23.312H35.776V19.496H29.56ZM28.312 18.956C27.616 20.78 26.464 22.568 25.264 23.708C25.432 23.924 25.684 24.392 25.78 24.596C27.088 23.264 28.348 21.248 29.164 19.22L28.312 18.956ZM27.064 22.052V29.936H27.928V21.212L27.916 21.2L27.064 22.052ZM37.96 19.448V29.972H38.776V20.264H40.876V19.448H37.96ZM40.612 19.448V19.688C40.348 20.54 39.856 22.04 39.388 23.168C40.3 24.08 40.576 24.836 40.588 25.472C40.588 25.844 40.516 26.156 40.312 26.288C40.204 26.36 40.06 26.396 39.904 26.396C39.7 26.408 39.424 26.408 39.136 26.384C39.268 26.612 39.34 26.96 39.352 27.188C39.664 27.2 39.988 27.2 40.252 27.176C40.492 27.14 40.72 27.068 40.9 26.948C41.26 26.708 41.404 26.216 41.404 25.568C41.392 24.836 41.152 24.02 40.204 23.06C40.648 22.052 41.14 20.768 41.512 19.772L40.912 19.412L40.768 19.448H40.612ZM42.52 21.812V22.568H47.26V21.812H42.52ZM44.836 19.724C45.628 20.768 47.008 21.848 48.256 22.46C48.376 22.22 48.568 21.884 48.724 21.68C47.464 21.164 46.084 20.096 45.208 18.932H44.38C43.732 20.012 42.388 21.176 41.02 21.824C41.176 22.016 41.368 22.328 41.464 22.544C42.844 21.848 44.14 20.72 44.836 19.724ZM42.604 24.344H47.152V25.964H42.604V24.344ZM41.812 23.624V26.696H47.98V23.624H41.812ZM44.416 22.22V25.376C44.416 26.876 44.02 28.376 40.912 29.348C41.068 29.492 41.308 29.828 41.404 30.02C44.692 28.976 45.244 27.14 45.244 25.4V22.22H44.416ZM45.388 26.276L44.608 26.444C45.352 28.532 46.468 29.396 48.136 30.02C48.232 29.756 48.46 29.456 48.664 29.264C47.116 28.748 46.084 28.088 45.388 26.276ZM49.648 22.784V23.588H60.34V22.784H49.648ZM50.704 20.432V21.236H57.652V20.432H50.704ZM52.648 26.804V27.524H58.3V26.804H52.648ZM52.648 28.796V29.576H58.3V28.796H52.648ZM53.788 18.92V23.216H54.664V18.92H53.788ZM59.044 19.34C56.824 22.316 53.248 24.644 49.372 25.988C49.552 26.168 49.84 26.54 49.948 26.744C53.788 25.268 57.4 22.904 59.812 19.748L59.044 19.34ZM52.156 24.86V29.972H53.056V25.616H57.94V29.924H58.876V24.86H52.156ZM68.32 19.52V20.348H71.656V19.52H68.32ZM68.32 22.28V23.084H71.656V22.28H68.32ZM68.308 25.076V25.892H71.68V25.076H68.308ZM71.248 19.52V28.808C71.248 28.988 71.188 29.048 71.008 29.048C70.828 29.06 70.228 29.06 69.592 29.048C69.712 29.276 69.844 29.672 69.868 29.924C70.756 29.924 71.32 29.9 71.656 29.756C72.004 29.612 72.124 29.336 72.124 28.82V19.52H71.248ZM67.948 19.52V23.876C67.948 25.616 67.864 27.896 66.856 29.504C67.06 29.588 67.42 29.852 67.576 30.02C68.656 28.316 68.8 25.724 68.8 23.876V19.52H67.948ZM61.612 20.528V21.32H67.36V20.528H61.612ZM63.028 22.388V23.12H66.064V22.388H63.028ZM63.028 24.296V25.016H66.076V24.296H63.028ZM61.456 26.228V27.032H67.36V26.228H61.456ZM62.632 19.064V26.552H63.46V19.064H62.632ZM65.644 19.064V26.552H66.472V19.064H65.644ZM63.124 27.296C62.764 28.1 62.14 28.904 61.468 29.444C61.684 29.564 62.032 29.828 62.2 29.972C62.848 29.372 63.544 28.448 63.988 27.536L63.124 27.296ZM64.852 27.668C65.32 28.232 65.86 29.024 66.088 29.504L66.82 29.072C66.58 28.58 66.016 27.836 65.548 27.296L64.852 27.668ZM77.164 26.276V26.972H80.8V26.276H77.164ZM77.128 24.464V25.172H80.368V28.148H77.128V28.844H81.22V24.464H77.128ZM76.732 24.464V29.456H77.56V24.464H76.732ZM74.524 21.14V21.8H77.86V21.14H74.524ZM80.056 21.14V21.8H83.452V21.14H80.056ZM83.08 19.436V28.772C83.08 28.976 83.008 29.048 82.792 29.048C82.576 29.06 81.844 29.072 81.112 29.036C81.244 29.288 81.388 29.708 81.424 29.96C82.432 29.96 83.08 29.948 83.464 29.804C83.848 29.648 83.98 29.348 83.98 28.772V19.436H83.08ZM74.596 19.436V20.132H77.584V22.868H74.596V23.564H78.436V19.436H74.596ZM83.524 19.436H79.516V23.576H83.524V22.892H80.38V20.132H83.524V19.436ZM74.08 19.436V29.972H74.968V19.436H74.08Z" fill="#1F2937"/>
<path d="M98 36C99.1053 31.6667 104.853 23 119 23" stroke="#1F2937" stroke-linecap="round"/>
<path d="M200 36C198.895 31.6667 193.147 23 179 23" stroke="#1F2937" stroke-linecap="round"/>
</svg>
