<svg width="300" height="57" viewBox="0 0 300 57" fill="none" xmlns="http://www.w3.org/2000/svg">
<line x1="0.5" y1="35.5" x2="299.5" y2="35.5" stroke="#1F2937" stroke-linecap="round"/>
<line x1="97.5" y1="16.5" x2="97.5" y2="56.5" stroke="#1F2937" stroke-linecap="round"/>
<line x1="200.5" y1="16.5" x2="200.5" y2="56.5" stroke="#1F2937" stroke-linecap="round"/>
<path d="M89.316 2.436V3.216H93.444V6.156H89.268V6.936H94.32V2.436H89.316ZM88.824 2.436V10.368H89.688V2.436H88.824ZM89.316 4.32V5.016H93.756V4.32H89.316ZM87.984 10.284L88.152 11.148C89.256 10.872 90.732 10.5 92.148 10.128L92.076 9.348C90.564 9.708 89.016 10.08 87.984 10.284ZM91.872 6.6L91.116 6.756C91.74 8.892 92.964 10.488 94.872 11.232C94.992 10.98 95.256 10.644 95.448 10.464C93.648 9.888 92.424 8.436 91.872 6.6ZM94.548 6.864C93.996 7.368 93.036 8.076 92.328 8.484L92.892 8.952C93.612 8.568 94.524 7.956 95.268 7.404L94.548 6.864ZM87.132 6.66H84.576V7.5H86.256V10.908H87.132V6.66ZM87.132 10.512H86.316C85.704 11.028 84.996 11.556 84.42 11.94L84.9 12.864C85.548 12.336 86.16 11.82 86.736 11.304C87.504 12.252 88.584 12.672 90.144 12.732C91.476 12.78 93.96 12.756 95.28 12.708C95.316 12.432 95.472 12 95.568 11.784C94.152 11.88 91.452 11.916 90.144 11.868C88.764 11.808 87.696 11.4 87.132 10.512ZM84.816 2.82C85.608 3.36 86.496 4.164 86.892 4.74L87.588 4.152C87.18 3.576 86.268 2.796 85.488 2.28L84.816 2.82ZM101.256 8.928V9.576H103.692V8.928H101.256ZM100.584 3.12V3.828H104.364V3.12H100.584ZM100.236 5.748V6.492H107.532V5.748H100.236ZM101.412 7.212V7.884H103.368V10.656H101.412V11.328H104.1V7.212H101.412ZM100.884 7.212V12.084H101.604V7.212H100.884ZM102.036 1.944V3.624H102.828V1.944H102.036ZM106.44 7.104C105.852 9.432 104.688 11.268 102.936 12.36C103.116 12.504 103.392 12.816 103.5 12.96C105.264 11.724 106.524 9.792 107.196 7.26L106.44 7.104ZM100.944 4.044C101.148 4.584 101.304 5.292 101.316 5.748L101.976 5.592C101.952 5.124 101.796 4.428 101.568 3.9L100.944 4.044ZM105.648 2.7C106.152 3.3 106.668 4.14 106.884 4.692L107.544 4.332C107.316 3.78 106.8 2.964 106.272 2.376L105.648 2.7ZM103.236 3.876C103.164 4.368 102.972 5.1 102.816 5.58L103.416 5.724C103.584 5.292 103.776 4.62 103.968 4.044L103.236 3.876ZM96.6 2.448V3.252H100.608V2.448H96.6ZM97.536 4.968V5.724H99.696V4.968H97.536ZM97.536 7.44V8.208H99.696V7.44H97.536ZM97.164 2.856V10.536H97.92V2.856H97.164ZM99.24 2.844V12.972H100.02V2.844H99.24ZM96.396 10.416L96.552 11.256C97.452 11.064 98.58 10.812 99.708 10.572L99.648 9.78C98.424 10.032 97.224 10.272 96.396 10.416ZM104.64 1.944C104.736 8.124 105.012 12.912 106.584 12.936C106.968 12.948 107.4 12.456 107.628 10.572C107.484 10.5 107.16 10.284 107.016 10.104C106.944 11.232 106.8 11.904 106.62 11.904C105.84 11.868 105.456 7.296 105.456 1.944H104.64Z" fill="#1F2937"/>
<path d="M191.06 1.92V3.936H191.972V1.92H191.06ZM188.624 3.456V4.284H194.336V3.456H188.624ZM194.252 5.1V5.952H199.472V5.1H194.252ZM190.112 6H192.908V7.608H190.112V6ZM189.272 5.22V8.376H193.784V5.22H189.272ZM191.108 8.052V11.928C191.108 12.06 191.06 12.096 190.928 12.108C190.772 12.12 190.304 12.12 189.752 12.108C189.872 12.336 190.004 12.684 190.04 12.924C190.772 12.924 191.264 12.924 191.576 12.78C191.888 12.636 191.972 12.384 191.972 11.94V8.052H191.108ZM189.5 9.012C189.284 9.972 188.9 10.92 188.384 11.556C188.588 11.676 188.924 11.928 189.08 12.072C189.62 11.364 190.076 10.272 190.328 9.192L189.5 9.012ZM192.596 9.168C192.932 9.804 193.28 10.668 193.424 11.22L194.18 10.944C194.036 10.392 193.676 9.552 193.316 8.916L192.596 9.168ZM197.24 2.628C197.816 3.216 198.38 4.056 198.62 4.632L199.364 4.248C199.124 3.672 198.548 2.868 197.936 2.292L197.24 2.628ZM195.992 1.92V4.44C195.992 6.78 195.776 10.128 193.208 12.468C193.436 12.576 193.808 12.816 193.976 12.984C196.616 10.524 196.868 6.996 196.868 4.44V1.92H195.992ZM196.568 6.552V11.7C196.568 12.312 196.628 12.504 196.844 12.684C197.048 12.84 197.348 12.888 197.624 12.888C197.78 12.888 198.2 12.888 198.38 12.888C198.644 12.888 198.932 12.84 199.1 12.756C199.304 12.636 199.424 12.468 199.508 12.192C199.568 11.94 199.616 11.208 199.628 10.572C199.4 10.5 199.1 10.344 198.92 10.188C198.932 10.848 198.908 11.424 198.884 11.652C198.86 11.796 198.788 11.916 198.704 11.964C198.62 12.012 198.464 12.036 198.32 12.036C198.164 12.036 197.948 12.036 197.828 12.036C197.696 12.036 197.588 12.012 197.516 11.952C197.432 11.916 197.396 11.832 197.396 11.736V6.552H196.568ZM205.256 8.928V9.576H207.692V8.928H205.256ZM204.584 3.12V3.828H208.364V3.12H204.584ZM204.236 5.748V6.492H211.532V5.748H204.236ZM205.412 7.212V7.884H207.368V10.656H205.412V11.328H208.1V7.212H205.412ZM204.884 7.212V12.084H205.604V7.212H204.884ZM206.036 1.944V3.624H206.828V1.944H206.036ZM210.44 7.104C209.852 9.432 208.688 11.268 206.936 12.36C207.116 12.504 207.392 12.816 207.5 12.96C209.264 11.724 210.524 9.792 211.196 7.26L210.44 7.104ZM204.944 4.044C205.148 4.584 205.304 5.292 205.316 5.748L205.976 5.592C205.952 5.124 205.796 4.428 205.568 3.9L204.944 4.044ZM209.648 2.7C210.152 3.3 210.668 4.14 210.884 4.692L211.544 4.332C211.316 3.78 210.8 2.964 210.272 2.376L209.648 2.7ZM207.236 3.876C207.164 4.368 206.972 5.1 206.816 5.58L207.416 5.724C207.584 5.292 207.776 4.62 207.968 4.044L207.236 3.876ZM200.6 2.448V3.252H204.608V2.448H200.6ZM201.536 4.968V5.724H203.696V4.968H201.536ZM201.536 7.44V8.208H203.696V7.44H201.536ZM201.164 2.856V10.536H201.92V2.856H201.164ZM203.24 2.844V12.972H204.02V2.844H203.24ZM200.396 10.416L200.552 11.256C201.452 11.064 202.58 10.812 203.708 10.572L203.648 9.78C202.424 10.032 201.224 10.272 200.396 10.416ZM208.64 1.944C208.736 8.124 209.012 12.912 210.584 12.936C210.968 12.948 211.4 12.456 211.628 10.572C211.484 10.5 211.16 10.284 211.016 10.104C210.944 11.232 210.8 11.904 210.62 11.904C209.84 11.868 209.456 7.296 209.456 1.944H208.64Z" fill="#1F2937"/>
<path d="M217.688 22.66V23.464H222.308V22.66H217.688ZM217.652 19.78V20.62H222.848V19.78H217.652ZM219.884 17.932V23.14H220.76V17.932H219.884ZM217.28 19.78V22.684C217.28 24.412 217.148 26.812 215.912 28.504C216.116 28.6 216.488 28.828 216.644 28.984C217.928 27.196 218.132 24.532 218.132 22.684V19.78H217.28ZM218.936 23.08L218.156 23.284C218.96 26.044 220.532 28.084 223.028 29.008C223.172 28.744 223.436 28.396 223.64 28.216C221.228 27.448 219.656 25.552 218.936 23.08ZM222.596 19.78V19.924C222.452 20.656 222.212 21.58 221.996 22.132L222.764 22.288C223.028 21.7 223.304 20.728 223.508 19.9L222.872 19.744L222.728 19.78H222.596ZM222.104 22.66V22.816C221.492 25.576 219.62 27.46 217.496 28.24C217.676 28.408 217.916 28.744 218.024 28.972C220.34 28.024 222.272 26.068 223.004 22.828L222.44 22.624L222.272 22.66H222.104ZM214.232 23.812V28.972H215.084V22.792L214.232 23.812ZM212.576 20.152V20.968H216.116V20.152H212.576ZM214.208 17.968V20.62H215.06V17.968H214.208ZM214.988 22.804L214.52 23.2C214.916 23.656 215.936 24.988 216.284 25.552L216.824 24.94C216.548 24.592 215.336 23.14 214.988 22.804ZM215.888 20.152V20.344C215.24 22.084 213.728 23.872 212.3 24.832C212.444 24.976 212.672 25.396 212.756 25.624C214.268 24.508 215.912 22.552 216.704 20.44L216.224 20.116L216.068 20.152H215.888ZM216.476 22.3C216.236 22.756 215.768 23.428 215.432 23.824L215.876 24.172C216.224 23.8 216.668 23.224 217.04 22.708L216.476 22.3ZM231.164 22.048V28.972H232.076V22.048H231.164ZM227.66 23.812V24.64H235.448V23.812H227.66ZM232.328 24.136L231.632 24.4C232.424 25.996 233.816 27.616 235.124 28.456C235.28 28.24 235.568 27.916 235.76 27.748C234.452 27.028 233.048 25.576 232.328 24.136ZM230.96 24.076C230.204 25.54 228.728 27.028 227.324 27.724C227.516 27.904 227.792 28.216 227.948 28.432C229.376 27.604 230.864 25.996 231.668 24.34L230.96 24.076ZM229.412 19.3H233.888V21.496H229.412V19.3ZM228.56 18.496V22.312H234.776V18.496H228.56ZM227.312 17.956C226.616 19.78 225.464 21.568 224.264 22.708C224.432 22.924 224.684 23.392 224.78 23.596C226.088 22.264 227.348 20.248 228.164 18.22L227.312 17.956ZM226.064 21.052V28.936H226.928V20.212L226.916 20.2L226.064 21.052ZM236.96 18.448V28.972H237.776V19.264H239.876V18.448H236.96ZM239.612 18.448V18.688C239.348 19.54 238.856 21.04 238.388 22.168C239.3 23.08 239.576 23.836 239.588 24.472C239.588 24.844 239.516 25.156 239.312 25.288C239.204 25.36 239.06 25.396 238.904 25.396C238.7 25.408 238.424 25.408 238.136 25.384C238.268 25.612 238.34 25.96 238.352 26.188C238.664 26.2 238.988 26.2 239.252 26.176C239.492 26.14 239.72 26.068 239.9 25.948C240.26 25.708 240.404 25.216 240.404 24.568C240.392 23.836 240.152 23.02 239.204 22.06C239.648 21.052 240.14 19.768 240.512 18.772L239.912 18.412L239.768 18.448H239.612ZM241.52 20.812V21.568H246.26V20.812H241.52ZM243.836 18.724C244.628 19.768 246.008 20.848 247.256 21.46C247.376 21.22 247.568 20.884 247.724 20.68C246.464 20.164 245.084 19.096 244.208 17.932H243.38C242.732 19.012 241.388 20.176 240.02 20.824C240.176 21.016 240.368 21.328 240.464 21.544C241.844 20.848 243.14 19.72 243.836 18.724ZM241.604 23.344H246.152V24.964H241.604V23.344ZM240.812 22.624V25.696H246.98V22.624H240.812ZM243.416 21.22V24.376C243.416 25.876 243.02 27.376 239.912 28.348C240.068 28.492 240.308 28.828 240.404 29.02C243.692 27.976 244.244 26.14 244.244 24.4V21.22H243.416ZM244.388 25.276L243.608 25.444C244.352 27.532 245.468 28.396 247.136 29.02C247.232 28.756 247.46 28.456 247.664 28.264C246.116 27.748 245.084 27.088 244.388 25.276ZM248.648 21.784V22.588H259.34V21.784H248.648ZM249.704 19.432V20.236H256.652V19.432H249.704ZM251.648 25.804V26.524H257.3V25.804H251.648ZM251.648 27.796V28.576H257.3V27.796H251.648ZM252.788 17.92V22.216H253.664V17.92H252.788ZM258.044 18.34C255.824 21.316 252.248 23.644 248.372 24.988C248.552 25.168 248.84 25.54 248.948 25.744C252.788 24.268 256.4 21.904 258.812 18.748L258.044 18.34ZM251.156 23.86V28.972H252.056V24.616H256.94V28.924H257.876V23.86H251.156ZM267.32 18.52V19.348H270.656V18.52H267.32ZM267.32 21.28V22.084H270.656V21.28H267.32ZM267.308 24.076V24.892H270.68V24.076H267.308ZM270.248 18.52V27.808C270.248 27.988 270.188 28.048 270.008 28.048C269.828 28.06 269.228 28.06 268.592 28.048C268.712 28.276 268.844 28.672 268.868 28.924C269.756 28.924 270.32 28.9 270.656 28.756C271.004 28.612 271.124 28.336 271.124 27.82V18.52H270.248ZM266.948 18.52V22.876C266.948 24.616 266.864 26.896 265.856 28.504C266.06 28.588 266.42 28.852 266.576 29.02C267.656 27.316 267.8 24.724 267.8 22.876V18.52H266.948ZM260.612 19.528V20.32H266.36V19.528H260.612ZM262.028 21.388V22.12H265.064V21.388H262.028ZM262.028 23.296V24.016H265.076V23.296H262.028ZM260.456 25.228V26.032H266.36V25.228H260.456ZM261.632 18.064V25.552H262.46V18.064H261.632ZM264.644 18.064V25.552H265.472V18.064H264.644ZM262.124 26.296C261.764 27.1 261.14 27.904 260.468 28.444C260.684 28.564 261.032 28.828 261.2 28.972C261.848 28.372 262.544 27.448 262.988 26.536L262.124 26.296ZM263.852 26.668C264.32 27.232 264.86 28.024 265.088 28.504L265.82 28.072C265.58 27.58 265.016 26.836 264.548 26.296L263.852 26.668ZM276.164 25.276V25.972H279.8V25.276H276.164ZM276.128 23.464V24.172H279.368V27.148H276.128V27.844H280.22V23.464H276.128ZM275.732 23.464V28.456H276.56V23.464H275.732ZM273.524 20.14V20.8H276.86V20.14H273.524ZM279.056 20.14V20.8H282.452V20.14H279.056ZM282.08 18.436V27.772C282.08 27.976 282.008 28.048 281.792 28.048C281.576 28.06 280.844 28.072 280.112 28.036C280.244 28.288 280.388 28.708 280.424 28.96C281.432 28.96 282.08 28.948 282.464 28.804C282.848 28.648 282.98 28.348 282.98 27.772V18.436H282.08ZM273.596 18.436V19.132H276.584V21.868H273.596V22.564H277.436V18.436H273.596ZM282.524 18.436H278.516V22.576H282.524V21.892H279.38V19.132H282.524V18.436ZM273.08 18.436V28.972H273.968V18.436H273.08Z" fill="#1F2937"/>
<path d="M133.504 19.2727V28H131.659V21.0241H131.608L129.609 22.277V20.6406L131.77 19.2727H133.504ZM137.847 17.764C137.331 19.324 136.395 20.86 135.315 21.796C135.663 22 136.275 22.48 136.551 22.732C137.619 21.652 138.675 19.924 139.311 18.136L137.847 17.764ZM138.099 19.132L137.403 20.524H145.731V19.132H138.099ZM137.247 21.964V25.828H138.699V23.308H145.455V21.964H137.247ZM135.351 25.12V26.512H146.391V25.12H135.351ZM140.775 19.852V29.08H142.263V19.852H140.775ZM151.071 19.876C151.803 20.788 152.571 22.048 152.883 22.888L154.287 22.132C153.939 21.292 153.171 20.116 152.391 19.24L151.071 19.876ZM147.171 26.188L147.675 27.724C149.031 27.148 150.807 26.404 152.403 25.684L152.067 24.268C150.315 25 148.407 25.768 147.171 26.188ZM154.203 25.108C155.307 26.332 156.771 28 157.407 29.068L158.631 27.88C157.947 26.836 156.411 25.24 155.319 24.1L154.203 25.108ZM155.835 18.496C155.391 23.452 154.155 26.38 150.327 27.82C150.675 28.132 151.275 28.78 151.479 29.104C155.415 27.328 156.867 24.076 157.431 18.64L155.835 18.496ZM148.539 18.544L148.815 26.344L150.315 26.284L150.051 18.484L148.539 18.544ZM164.523 21.412V22.864H169.515V21.412H164.523ZM159.387 27.04V28.492H170.355V27.04H159.387ZM163.707 17.956V27.844H165.255V17.956H163.707Z" fill="#1F2937"/>
<path d="M219.335 56.8352C218.429 56.8352 217.565 56.6974 216.744 56.4219C215.926 56.1463 215.175 55.7571 214.49 55.2543C213.808 54.7543 213.216 54.1619 212.713 53.4773C212.213 52.7955 211.825 52.0455 211.55 51.2273C211.274 50.4062 211.136 49.5426 211.136 48.6364C211.136 47.7301 211.274 46.8679 211.55 46.0497C211.825 45.2287 212.213 44.4773 212.713 43.7955C213.216 43.1108 213.808 42.5185 214.49 42.0185C215.175 41.5156 215.926 41.1264 216.744 40.8509C217.565 40.5753 218.429 40.4375 219.335 40.4375C220.241 40.4375 221.104 40.5753 221.922 40.8509C222.743 41.1264 223.494 41.5156 224.176 42.0185C224.861 42.5185 225.453 43.1108 225.953 43.7955C226.456 44.4773 226.845 45.2287 227.121 46.0497C227.396 46.8679 227.534 47.7301 227.534 48.6364C227.534 49.5426 227.396 50.4062 227.121 51.2273C226.845 52.0455 226.456 52.7955 225.953 53.4773C225.453 54.1619 224.861 54.7543 224.176 55.2543C223.494 55.7571 222.743 56.1463 221.922 56.4219C221.104 56.6974 220.241 56.8352 219.335 56.8352ZM219.335 55.6207C220.108 55.6207 220.842 55.5028 221.538 55.267C222.237 55.0341 222.878 54.7031 223.46 54.2741C224.043 53.848 224.547 53.3438 224.973 52.7614C225.402 52.179 225.733 51.5384 225.966 50.8395C226.202 50.1406 226.32 49.4062 226.32 48.6364C226.32 47.8636 226.202 47.1293 225.966 46.4332C225.733 45.7344 225.402 45.0938 224.973 44.5114C224.547 43.929 224.043 43.4247 223.46 42.9986C222.878 42.5696 222.237 42.2386 221.538 42.0057C220.842 41.7699 220.108 41.652 219.335 41.652C218.563 41.652 217.827 41.7699 217.128 42.0057C216.429 42.2386 215.788 42.5696 215.206 42.9986C214.626 43.4247 214.122 43.929 213.693 44.5114C213.267 45.0938 212.936 45.7344 212.7 46.4332C212.467 47.1293 212.351 47.8636 212.351 48.6364C212.351 49.4091 212.467 50.1449 212.7 50.8438C212.936 51.5398 213.267 52.179 213.693 52.7614C214.122 53.3438 214.626 53.848 215.206 54.2741C215.788 54.7031 216.429 55.0341 217.128 55.267C217.827 55.5028 218.563 55.6207 219.335 55.6207ZM234.06 43.376H232.284C232.332 43.664 232.38 44.216 232.38 44.48C232.368 47.648 231.816 49.688 230.244 51.248C229.764 51.74 229.164 52.136 228.66 52.412L230.064 53.54C232.716 51.656 233.844 49.22 233.976 44.456C233.988 44.168 234.024 43.664 234.06 43.376ZM238.128 45.956L237.096 45.44C236.808 45.5 236.496 45.524 236.184 45.524H230.628C230.172 45.524 229.56 45.5 229.056 45.44V47.024C229.56 46.976 230.232 46.964 230.64 46.964H236.496C236.496 48.26 236.328 50.66 235.98 51.416C235.86 51.716 235.692 51.848 235.308 51.848C234.828 51.848 234.216 51.776 233.616 51.68L233.808 53.276C234.396 53.324 235.104 53.384 235.8 53.384C236.616 53.384 237.084 53.06 237.336 52.46C237.852 51.236 238.008 47.888 238.056 46.58C238.056 46.448 238.092 46.148 238.128 45.956ZM246.54 43.208H244.692C244.764 43.724 244.776 43.964 244.776 44.312C244.776 44.624 244.776 45.512 244.776 46.04H246.456C246.456 45.584 246.456 44.624 246.456 44.312C246.456 43.964 246.468 43.724 246.54 43.208ZM250.572 45.74L249.54 45.104C249.324 45.176 249.036 45.224 248.544 45.224H242.22C241.764 45.224 241.404 45.212 240.996 45.176C241.044 45.452 241.044 45.932 241.044 46.196C241.044 46.652 241.044 47.888 241.044 48.284C241.044 48.608 241.032 48.992 240.996 49.292H242.652C242.616 49.052 242.604 48.668 242.604 48.404C242.604 48.032 242.604 47.06 242.604 46.64H248.556C248.412 47.708 248.1 48.848 247.5 49.736C246.816 50.696 245.76 51.404 244.776 51.776C244.272 51.98 243.624 52.16 243.072 52.256L244.32 53.696C246.456 53.132 248.268 51.86 249.216 50.096C249.816 49.004 250.128 47.84 250.344 46.688C250.392 46.46 250.488 46.004 250.572 45.74ZM254.568 43.88L253.428 45.092C254.304 45.692 255.816 47 256.44 47.672L257.664 46.424C256.956 45.692 255.396 44.444 254.568 43.88ZM253.056 51.872L254.076 53.456C255.756 53.168 257.304 52.508 258.528 51.776C260.46 50.612 262.056 48.956 262.956 47.324L262.032 45.644C261.264 47.264 259.704 49.088 257.652 50.312C256.488 50.996 254.94 51.608 253.056 51.872ZM267.432 51.86C267.432 52.328 267.396 53.06 267.312 53.528H269.196C269.136 53.036 269.088 52.196 269.088 51.86C269.088 50.972 269.076 46.28 269.076 44.96C269.076 44.456 269.136 43.94 269.184 43.508H267.312C267.396 43.94 267.432 44.528 267.432 44.96C267.432 45.968 267.432 50.936 267.432 51.86ZM268.728 46.616V48.344C270.036 48.776 272.052 49.544 273.42 50.252L274.092 48.584C272.916 48.008 270.324 47.06 268.728 46.616ZM283.512 43.328H281.772C281.796 43.484 281.844 43.892 281.88 44.372C281.928 45.008 281.928 47.312 281.928 48.056L283.428 48.56C283.416 47.6 283.392 45.152 283.428 44.36C283.44 44.168 283.476 43.532 283.512 43.328ZM276.72 44.828L276.756 46.268C278.568 46.172 280.956 46.076 283.14 46.076C284.904 46.076 286.128 46.112 286.872 46.148L286.896 44.732C286.224 44.72 284.4 44.732 283.176 44.732C281.676 44.732 278.508 44.828 276.72 44.828ZM283.224 48.38L282.096 48.068C282.48 49.496 281.988 49.976 281.424 49.976C280.932 49.976 280.488 49.628 280.488 49.088C280.488 48.452 280.956 48.128 281.424 48.128C281.952 48.128 282.372 48.5 282.372 49.28C282.372 51.38 280.776 52.184 278.736 52.628L280.008 53.9C282.936 53.072 283.86 51.092 283.86 49.52C283.86 48.032 283.032 46.868 281.448 46.868C280.152 46.868 279.048 47.756 279.048 49.112C279.048 50.576 280.2 51.308 281.124 51.308C282.504 51.308 283.224 50.336 283.224 48.38ZM290.316 43.868L290.364 45.428C290.64 45.38 291.012 45.356 291.336 45.332C291.984 45.284 293.64 45.224 294.252 45.2C293.664 45.728 292.404 46.736 291.732 47.288C291.036 47.876 289.584 49.1 288.732 49.772L289.824 50.9C291.108 49.448 292.296 48.464 294.144 48.464C295.548 48.464 296.628 49.196 296.628 50.288C296.628 51.572 295.596 52.34 293.568 52.34C292.836 52.34 292.344 52.04 292.344 51.596C292.344 51.284 292.644 51.008 293.088 51.008C293.796 51.008 294.252 51.608 294.276 52.472L295.68 52.292C295.644 50.972 294.732 49.868 293.088 49.868C291.816 49.868 290.928 50.756 290.928 51.728C290.928 52.94 292.188 53.696 293.856 53.696C296.76 53.696 298.2 52.196 298.2 50.3C298.2 48.56 296.652 47.288 294.612 47.288C294.24 47.288 293.88 47.312 293.472 47.42C294.24 46.82 295.5 45.764 296.148 45.308C296.412 45.104 296.7 44.936 296.976 44.756L296.208 43.676C296.064 43.724 295.788 43.772 295.284 43.808C294.6 43.868 292.044 43.928 291.396 43.928C291.06 43.928 290.652 43.904 290.316 43.868Z" fill="#FF354B"/>
<path d="M6.06392 52.6165L0.971591 47.5327L2.08807 46.4034L7.18466 51.4957L6.06392 52.6165ZM2.08807 52.6165L0.971591 51.4957L6.06392 46.4034L7.18466 47.5327L2.08807 52.6165ZM14.5403 43.376H12.7643C12.8123 43.664 12.8603 44.216 12.8603 44.48C12.8483 47.648 12.2963 49.688 10.7243 51.248C10.2443 51.74 9.64425 52.136 9.14025 52.412L10.5443 53.54C13.1963 51.656 14.3242 49.22 14.4563 44.456C14.4683 44.168 14.5043 43.664 14.5403 43.376ZM18.6083 45.956L17.5763 45.44C17.2883 45.5 16.9763 45.524 16.6643 45.524H11.1083C10.6523 45.524 10.0403 45.5 9.53625 45.44V47.024C10.0403 46.976 10.7123 46.964 11.1203 46.964H16.9763C16.9763 48.26 16.8083 50.66 16.4603 51.416C16.3403 51.716 16.1723 51.848 15.7883 51.848C15.3083 51.848 14.6963 51.776 14.0963 51.68L14.2883 53.276C14.8763 53.324 15.5843 53.384 16.2803 53.384C17.0963 53.384 17.5643 53.06 17.8163 52.46C18.3323 51.236 18.4883 47.888 18.5363 46.58C18.5363 46.448 18.5723 46.148 18.6083 45.956ZM27.0203 43.208H25.1723C25.2443 43.724 25.2563 43.964 25.2563 44.312C25.2563 44.624 25.2563 45.512 25.2563 46.04H26.9362C26.9362 45.584 26.9362 44.624 26.9362 44.312C26.9362 43.964 26.9483 43.724 27.0203 43.208ZM31.0523 45.74L30.0203 45.104C29.8043 45.176 29.5163 45.224 29.0243 45.224H22.7003C22.2443 45.224 21.8843 45.212 21.4763 45.176C21.5243 45.452 21.5243 45.932 21.5243 46.196C21.5243 46.652 21.5243 47.888 21.5243 48.284C21.5243 48.608 21.5123 48.992 21.4763 49.292H23.1323C23.0963 49.052 23.0843 48.668 23.0843 48.404C23.0843 48.032 23.0843 47.06 23.0843 46.64H29.0363C28.8923 47.708 28.5803 48.848 27.9803 49.736C27.2963 50.696 26.2403 51.404 25.2563 51.776C24.7523 51.98 24.1043 52.16 23.5523 52.256L24.8003 53.696C26.9362 53.132 28.7483 51.86 29.6963 50.096C30.2963 49.004 30.6083 47.84 30.8243 46.688C30.8723 46.46 30.9683 46.004 31.0523 45.74ZM35.0483 43.88L33.9083 45.092C34.7843 45.692 36.2963 47 36.9203 47.672L38.1443 46.424C37.4363 45.692 35.8763 44.444 35.0483 43.88ZM33.5363 51.872L34.5563 53.456C36.2363 53.168 37.7843 52.508 39.0083 51.776C40.9403 50.612 42.5363 48.956 43.4363 47.324L42.5123 45.644C41.7443 47.264 40.1843 49.088 38.1323 50.312C36.9683 50.996 35.4203 51.608 33.5363 51.872ZM47.9123 51.86C47.9123 52.328 47.8763 53.06 47.7923 53.528H49.6763C49.6163 53.036 49.5683 52.196 49.5683 51.86C49.5683 50.972 49.5563 46.28 49.5563 44.96C49.5563 44.456 49.6163 43.94 49.6643 43.508H47.7923C47.8763 43.94 47.9123 44.528 47.9123 44.96C47.9123 45.968 47.9123 50.936 47.9123 51.86ZM49.2083 46.616V48.344C50.5163 48.776 52.5323 49.544 53.9003 50.252L54.5723 48.584C53.3963 48.008 50.8043 47.06 49.2083 46.616ZM60.6083 43.484L58.6763 43.472C58.7723 43.94 58.8203 44.516 58.8203 45.092C58.8203 46.124 58.7123 49.268 58.7123 50.876C58.7123 52.928 59.9723 53.792 61.9403 53.792C64.6763 53.792 66.3803 52.196 67.1603 51.044L66.0683 49.712C65.1923 51.02 63.9443 52.16 61.9643 52.16C61.0283 52.16 60.3083 51.764 60.3083 50.552C60.3083 49.064 60.3923 46.388 60.4523 45.092C60.4763 44.612 60.5363 43.988 60.6083 43.484ZM69.1403 45.14L69.2483 46.544C69.7643 46.568 70.2683 46.58 70.7483 46.58C72.2843 46.592 74.0123 46.28 75.0443 45.992L75.0083 44.6C73.8443 44.972 72.2243 45.224 70.7363 45.224C70.3043 45.224 69.6562 45.2 69.1403 45.14ZM73.8083 43.34L72.1523 43.184C72.1163 44.108 71.8523 45.224 71.5643 46.088C71.0963 47.384 70.0163 49.484 68.9363 50.804L70.3883 51.548C71.4083 50.132 72.4883 47.9 73.0403 46.172C73.3643 45.152 73.6523 43.976 73.8083 43.34ZM76.6283 47.084H75.1163C75.1763 48.344 75.3083 50.552 75.3083 51.272C75.3083 51.944 75.0443 52.4 74.2283 52.4C73.5683 52.4 73.1843 52.088 73.1843 51.644C73.1843 51.224 73.6403 50.924 74.3363 50.924C76.1483 50.924 77.5163 52.16 78.3803 52.964L79.1723 51.668C78.1763 50.768 76.5203 49.712 74.4203 49.712C72.7523 49.712 71.7683 50.624 71.7683 51.788C71.7683 53.108 72.9443 53.78 74.4323 53.78C76.1483 53.78 76.7483 52.904 76.7483 51.788C76.7483 51.116 76.6403 49.328 76.6163 48.62C76.6043 48.092 76.5923 47.588 76.6283 47.084ZM78.6923 47.72L79.5443 46.448C78.9203 46.004 77.4443 45.2 76.5803 44.828L75.8003 46.004C76.6283 46.376 77.9963 47.156 78.6923 47.72ZM83.2643 44.432L81.4163 44.408C81.5003 44.78 81.5123 45.296 81.5123 45.62C81.5123 46.352 81.5243 47.768 81.6443 48.872C81.9803 52.088 83.1203 53.264 84.4523 53.264C85.4123 53.264 86.1562 52.544 86.9603 50.444L85.7483 48.992C85.5203 49.94 85.0523 51.356 84.4763 51.356C83.7203 51.356 83.3603 50.168 83.1923 48.44C83.1203 47.564 83.1203 46.676 83.1203 45.896C83.1203 45.56 83.1803 44.852 83.2643 44.432ZM89.2643 44.696L87.7403 45.2C89.0483 46.688 89.6963 49.592 89.8763 51.536L91.4603 50.912C91.3283 49.076 90.4043 46.076 89.2643 44.696Z" fill="#3561FF"/>
<path d="M18.688 22.66V23.464H23.308V22.66H18.688ZM18.652 19.78V20.62H23.848V19.78H18.652ZM20.884 17.932V23.14H21.76V17.932H20.884ZM18.28 19.78V22.684C18.28 24.412 18.148 26.812 16.912 28.504C17.116 28.6 17.488 28.828 17.644 28.984C18.928 27.196 19.132 24.532 19.132 22.684V19.78H18.28ZM19.936 23.08L19.156 23.284C19.96 26.044 21.532 28.084 24.028 29.008C24.172 28.744 24.436 28.396 24.64 28.216C22.228 27.448 20.656 25.552 19.936 23.08ZM23.596 19.78V19.924C23.452 20.656 23.212 21.58 22.996 22.132L23.764 22.288C24.028 21.7 24.304 20.728 24.508 19.9L23.872 19.744L23.728 19.78H23.596ZM23.104 22.66V22.816C22.492 25.576 20.62 27.46 18.496 28.24C18.676 28.408 18.916 28.744 19.024 28.972C21.34 28.024 23.272 26.068 24.004 22.828L23.44 22.624L23.272 22.66H23.104ZM15.232 23.812V28.972H16.084V22.792L15.232 23.812ZM13.576 20.152V20.968H17.116V20.152H13.576ZM15.208 17.968V20.62H16.06V17.968H15.208ZM15.988 22.804L15.52 23.2C15.916 23.656 16.936 24.988 17.284 25.552L17.824 24.94C17.548 24.592 16.336 23.14 15.988 22.804ZM16.888 20.152V20.344C16.24 22.084 14.728 23.872 13.3 24.832C13.444 24.976 13.672 25.396 13.756 25.624C15.268 24.508 16.912 22.552 17.704 20.44L17.224 20.116L17.068 20.152H16.888ZM17.476 22.3C17.236 22.756 16.768 23.428 16.432 23.824L16.876 24.172C17.224 23.8 17.668 23.224 18.04 22.708L17.476 22.3ZM32.164 22.048V28.972H33.076V22.048H32.164ZM28.66 23.812V24.64H36.448V23.812H28.66ZM33.328 24.136L32.632 24.4C33.424 25.996 34.816 27.616 36.124 28.456C36.28 28.24 36.568 27.916 36.76 27.748C35.452 27.028 34.048 25.576 33.328 24.136ZM31.96 24.076C31.204 25.54 29.728 27.028 28.324 27.724C28.516 27.904 28.792 28.216 28.948 28.432C30.376 27.604 31.864 25.996 32.668 24.34L31.96 24.076ZM30.412 19.3H34.888V21.496H30.412V19.3ZM29.56 18.496V22.312H35.776V18.496H29.56ZM28.312 17.956C27.616 19.78 26.464 21.568 25.264 22.708C25.432 22.924 25.684 23.392 25.78 23.596C27.088 22.264 28.348 20.248 29.164 18.22L28.312 17.956ZM27.064 21.052V28.936H27.928V20.212L27.916 20.2L27.064 21.052ZM37.96 18.448V28.972H38.776V19.264H40.876V18.448H37.96ZM40.612 18.448V18.688C40.348 19.54 39.856 21.04 39.388 22.168C40.3 23.08 40.576 23.836 40.588 24.472C40.588 24.844 40.516 25.156 40.312 25.288C40.204 25.36 40.06 25.396 39.904 25.396C39.7 25.408 39.424 25.408 39.136 25.384C39.268 25.612 39.34 25.96 39.352 26.188C39.664 26.2 39.988 26.2 40.252 26.176C40.492 26.14 40.72 26.068 40.9 25.948C41.26 25.708 41.404 25.216 41.404 24.568C41.392 23.836 41.152 23.02 40.204 22.06C40.648 21.052 41.14 19.768 41.512 18.772L40.912 18.412L40.768 18.448H40.612ZM42.52 20.812V21.568H47.26V20.812H42.52ZM44.836 18.724C45.628 19.768 47.008 20.848 48.256 21.46C48.376 21.22 48.568 20.884 48.724 20.68C47.464 20.164 46.084 19.096 45.208 17.932H44.38C43.732 19.012 42.388 20.176 41.02 20.824C41.176 21.016 41.368 21.328 41.464 21.544C42.844 20.848 44.14 19.72 44.836 18.724ZM42.604 23.344H47.152V24.964H42.604V23.344ZM41.812 22.624V25.696H47.98V22.624H41.812ZM44.416 21.22V24.376C44.416 25.876 44.02 27.376 40.912 28.348C41.068 28.492 41.308 28.828 41.404 29.02C44.692 27.976 45.244 26.14 45.244 24.4V21.22H44.416ZM45.388 25.276L44.608 25.444C45.352 27.532 46.468 28.396 48.136 29.02C48.232 28.756 48.46 28.456 48.664 28.264C47.116 27.748 46.084 27.088 45.388 25.276ZM49.648 21.784V22.588H60.34V21.784H49.648ZM50.704 19.432V20.236H57.652V19.432H50.704ZM52.648 25.804V26.524H58.3V25.804H52.648ZM52.648 27.796V28.576H58.3V27.796H52.648ZM53.788 17.92V22.216H54.664V17.92H53.788ZM59.044 18.34C56.824 21.316 53.248 23.644 49.372 24.988C49.552 25.168 49.84 25.54 49.948 25.744C53.788 24.268 57.4 21.904 59.812 18.748L59.044 18.34ZM52.156 23.86V28.972H53.056V24.616H57.94V28.924H58.876V23.86H52.156ZM68.32 18.52V19.348H71.656V18.52H68.32ZM68.32 21.28V22.084H71.656V21.28H68.32ZM68.308 24.076V24.892H71.68V24.076H68.308ZM71.248 18.52V27.808C71.248 27.988 71.188 28.048 71.008 28.048C70.828 28.06 70.228 28.06 69.592 28.048C69.712 28.276 69.844 28.672 69.868 28.924C70.756 28.924 71.32 28.9 71.656 28.756C72.004 28.612 72.124 28.336 72.124 27.82V18.52H71.248ZM67.948 18.52V22.876C67.948 24.616 67.864 26.896 66.856 28.504C67.06 28.588 67.42 28.852 67.576 29.02C68.656 27.316 68.8 24.724 68.8 22.876V18.52H67.948ZM61.612 19.528V20.32H67.36V19.528H61.612ZM63.028 21.388V22.12H66.064V21.388H63.028ZM63.028 23.296V24.016H66.076V23.296H63.028ZM61.456 25.228V26.032H67.36V25.228H61.456ZM62.632 18.064V25.552H63.46V18.064H62.632ZM65.644 18.064V25.552H66.472V18.064H65.644ZM63.124 26.296C62.764 27.1 62.14 27.904 61.468 28.444C61.684 28.564 62.032 28.828 62.2 28.972C62.848 28.372 63.544 27.448 63.988 26.536L63.124 26.296ZM64.852 26.668C65.32 27.232 65.86 28.024 66.088 28.504L66.82 28.072C66.58 27.58 66.016 26.836 65.548 26.296L64.852 26.668ZM77.164 25.276V25.972H80.8V25.276H77.164ZM77.128 23.464V24.172H80.368V27.148H77.128V27.844H81.22V23.464H77.128ZM76.732 23.464V28.456H77.56V23.464H76.732ZM74.524 20.14V20.8H77.86V20.14H74.524ZM80.056 20.14V20.8H83.452V20.14H80.056ZM83.08 18.436V27.772C83.08 27.976 83.008 28.048 82.792 28.048C82.576 28.06 81.844 28.072 81.112 28.036C81.244 28.288 81.388 28.708 81.424 28.96C82.432 28.96 83.08 28.948 83.464 28.804C83.848 28.648 83.98 28.348 83.98 27.772V18.436H83.08ZM74.596 18.436V19.132H77.584V21.868H74.596V22.564H78.436V18.436H74.596ZM83.524 18.436H79.516V22.576H83.524V21.892H80.38V19.132H83.524V18.436ZM74.08 18.436V28.972H74.968V18.436H74.08Z" fill="#1F2937"/>
<path d="M98 35C99.1053 30.6667 104.853 22 119 22" stroke="#1F2937" stroke-linecap="round"/>
<path d="M200 35C198.895 30.6667 193.147 22 179 22" stroke="#1F2937" stroke-linecap="round"/>
</svg>
