<svg width="1061" height="278" viewBox="0 0 1061 278" fill="none" xmlns="http://www.w3.org/2000/svg">
<path d="M73.8 237.2C70.4667 237.2 67.6667 236.533 65.4 235.2C63.1333 234 62 231 62 226.2C62 223.267 62.4667 220.733 63.4 218.6C64.4667 216.467 66.2 215.4 68.6 215.4C70.8667 215.4 73.4667 215 76.4 214.2C79.4667 213.4 82.5333 211.867 85.6 209.6C88.6667 207.467 91.2667 204.467 93.4 200.6C95.5333 196.867 96.8 192 97.2 186L62.8 112.4C62.2667 111.2 62 110.067 62 109C62 106.733 62.9333 104.667 64.8 102.8C66.8 100.933 69.1333 99.4667 71.8 98.4C74.4667 97.2 76.9333 96.6 79.2 96.6C80.8 96.6 82.2667 96.9333 83.6 97.6C85.0667 98.2667 86.0667 99.4 86.6 101L110.6 160.8L129.8 101C130.467 99.4 131.467 98.2667 132.8 97.6C134.133 96.9333 135.467 96.6 136.8 96.6C138.8 96.6 141.2 97.2 144 98.4C146.8 99.4667 149.2 101 151.2 103C153.333 104.867 154.4 107 154.4 109.4C154.4 110.6 154.2 111.6 153.8 112.4L124.6 187C122.2 193 119.867 198.933 117.6 204.8C115.333 210.8 112.467 216.2 109 221C105.667 225.933 101.2 229.867 95.6 232.8C90 235.733 82.7333 237.2 73.8 237.2ZM192.127 194.8C185.06 194.8 178.927 192.667 173.727 188.4C168.66 184 166.127 177.267 166.127 168.2C166.127 160.6 168.06 154.667 171.927 150.4C175.927 146.133 181.393 143.133 188.327 141.4C195.393 139.667 203.527 138.8 212.727 138.8H220.927V136.2C220.927 133.267 220.327 130.4 219.127 127.6C218.06 124.8 216.26 122.467 213.727 120.6C211.327 118.733 207.86 117.8 203.327 117.8C198.26 117.8 194.327 118.333 191.527 119.4C188.86 120.333 186.793 121.333 185.327 122.4C183.86 123.467 182.26 124 180.527 124C177.727 124 175.527 122.6 173.927 119.8C172.46 117 171.727 114.133 171.727 111.2C171.727 108.4 173.393 105.933 176.727 103.8C180.193 101.533 184.393 99.8 189.327 98.6C194.26 97.4 199.06 96.8 203.727 96.8C214.127 96.8 222.46 98.6667 228.727 102.4C234.993 106.133 239.527 110.933 242.327 116.8C245.26 122.667 246.727 129 246.727 135.8V184.6C246.727 187 245.527 189 243.127 190.6C240.727 192.2 237.727 193 234.127 193C230.793 193 227.993 192.2 225.727 190.6C223.593 189 222.527 187 222.527 184.6V179C218.927 183.133 214.66 186.8 209.727 190C204.927 193.2 199.06 194.8 192.127 194.8ZM202.527 175.6C205.327 175.6 208.127 174.667 210.927 172.8C213.727 170.933 216.06 168.533 217.927 165.6C219.927 162.667 220.927 159.6 220.927 156.4V152.2H217.927C213.527 152.2 209.327 152.467 205.327 153C201.327 153.533 198.06 154.733 195.527 156.6C193.127 158.333 191.927 161.067 191.927 164.8C191.927 168.533 192.927 171.267 194.927 173C197.06 174.733 199.593 175.6 202.527 175.6ZM284.667 193C280.934 193 277.867 192.133 275.467 190.4C273.067 188.667 271.867 186.733 271.867 184.6V106C271.867 103.6 273.067 101.667 275.467 100.2C277.867 98.7333 280.934 98 284.667 98C287.867 98 290.534 98.7333 292.667 100.2C294.934 101.667 296.067 103.6 296.067 106V112C298.334 108.133 301.667 104.667 306.067 101.6C310.467 98.4 316.001 96.8 322.667 96.8C328.401 96.8 333.467 98.6667 337.867 102.4C342.267 106.133 345.534 110.933 347.667 116.8C351.134 110 355.534 105 360.867 101.8C366.334 98.4667 371.934 96.8 377.667 96.8C383.801 96.8 389.534 98.4 394.867 101.6C400.334 104.667 404.734 109.267 408.067 115.4C411.534 121.4 413.267 128.733 413.267 137.4V184.6C413.267 186.733 412.001 188.667 409.467 190.4C406.934 192.133 403.867 193 400.267 193C396.801 193 393.801 192.133 391.267 190.4C388.734 188.667 387.467 186.733 387.467 184.6V137.4C387.467 133.4 386.667 130.067 385.067 127.4C383.601 124.733 381.601 122.733 379.067 121.4C376.534 119.933 373.934 119.2 371.267 119.2C368.734 119.2 366.267 119.933 363.867 121.4C361.467 122.733 359.467 124.733 357.867 127.4C356.267 130.067 355.467 133.333 355.467 137.2V184.8C355.467 187.733 354.067 189.867 351.267 191.2C348.601 192.4 345.667 193 342.467 193C339.534 193 336.667 192.4 333.867 191.2C331.067 189.867 329.667 187.733 329.667 184.8V137.4C329.667 133.667 328.867 130.467 327.267 127.8C325.801 125.133 323.801 123.067 321.267 121.6C318.867 120.133 316.267 119.4 313.467 119.4C310.801 119.4 308.267 120.067 305.867 121.4C303.467 122.733 301.467 124.733 299.867 127.4C298.401 130.067 297.667 133.4 297.667 137.4V184.6C297.667 186.733 296.401 188.667 293.867 190.4C291.334 192.133 288.267 193 284.667 193ZM483.214 194.8C473.747 194.8 465.347 193.133 458.014 189.8C450.814 186.333 445.147 181.533 441.014 175.4C436.881 169.133 434.814 161.933 434.814 153.8V136.8C434.814 129.6 436.747 123 440.614 117C444.614 110.867 449.881 106 456.414 102.4C463.081 98.6667 470.481 96.8 478.614 96.8C486.081 96.8 492.881 98.4 499.014 101.6C505.281 104.8 510.347 109.2 514.214 114.8C518.081 120.4 520.014 126.933 520.014 134.4C520.014 140.133 519.081 144.267 517.214 146.8C515.347 149.2 512.947 150.733 510.014 151.4C507.214 151.933 504.281 152.2 501.214 152.2H460.614V155.2C460.614 160.933 462.747 165.6 467.014 169.2C471.414 172.667 477.081 174.4 484.014 174.4C488.414 174.4 492.081 173.733 495.014 172.4C497.947 171.067 500.481 169.8 502.614 168.6C504.747 167.4 506.747 166.8 508.614 166.8C510.614 166.8 512.347 167.467 513.814 168.8C515.281 170.133 516.414 171.733 517.214 173.6C518.014 175.333 518.414 176.867 518.414 178.2C518.414 180.467 516.947 182.933 514.014 185.6C511.214 188.133 507.147 190.333 501.814 192.2C496.614 193.933 490.414 194.8 483.214 194.8ZM460.614 137H489.814C492.081 137 493.614 136.667 494.414 136C495.347 135.2 495.814 133.733 495.814 131.6C495.814 128.533 494.947 125.8 493.214 123.4C491.614 121 489.481 119.133 486.814 117.8C484.281 116.467 481.414 115.8 478.214 115.8C475.147 115.8 472.281 116.467 469.614 117.8C466.947 119 464.747 120.8 463.014 123.2C461.414 125.467 460.614 128.2 460.614 131.4V137ZM578.084 193C566.084 193 556.884 190.4 550.484 185.2C544.218 180 541.084 171.733 541.084 160.4V63.6C541.084 61.2 542.484 59.2667 545.284 57.8C548.084 56.3333 550.951 55.6 553.884 55.6C557.084 55.6 560.018 56.3333 562.684 57.8C565.484 59.2667 566.884 61.2 566.884 63.6V98H590.484C592.618 98 594.218 99 595.284 101C596.484 102.867 597.084 105 597.084 107.4C597.084 109.8 596.484 112 595.284 114C594.218 115.867 592.618 116.8 590.484 116.8H566.884V160.4C566.884 164.4 567.684 167.2 569.284 168.8C571.018 170.4 573.951 171.2 578.084 171.2H585.884C589.618 171.2 592.351 172.333 594.084 174.6C595.951 176.867 596.884 179.333 596.884 182C596.884 184.8 595.951 187.333 594.084 189.6C592.351 191.867 589.618 193 585.884 193H578.084ZM636.634 194.8C629.568 194.8 623.434 192.667 618.234 188.4C613.168 184 610.634 177.267 610.634 168.2C610.634 160.6 612.568 154.667 616.434 150.4C620.434 146.133 625.901 143.133 632.834 141.4C639.901 139.667 648.034 138.8 657.234 138.8H665.434V136.2C665.434 133.267 664.834 130.4 663.634 127.6C662.568 124.8 660.768 122.467 658.234 120.6C655.834 118.733 652.368 117.8 647.834 117.8C642.768 117.8 638.834 118.333 636.034 119.4C633.368 120.333 631.301 121.333 629.834 122.4C628.368 123.467 626.768 124 625.034 124C622.234 124 620.034 122.6 618.434 119.8C616.968 117 616.234 114.133 616.234 111.2C616.234 108.4 617.901 105.933 621.234 103.8C624.701 101.533 628.901 99.8 633.834 98.6C638.768 97.4 643.568 96.8 648.234 96.8C658.634 96.8 666.968 98.6667 673.234 102.4C679.501 106.133 684.034 110.933 686.834 116.8C689.768 122.667 691.234 129 691.234 135.8V184.6C691.234 187 690.034 189 687.634 190.6C685.234 192.2 682.234 193 678.634 193C675.301 193 672.501 192.2 670.234 190.6C668.101 189 667.034 187 667.034 184.6V179C663.434 183.133 659.168 186.8 654.234 190C649.434 193.2 643.568 194.8 636.634 194.8ZM647.034 175.6C649.834 175.6 652.634 174.667 655.434 172.8C658.234 170.933 660.568 168.533 662.434 165.6C664.434 162.667 665.434 159.6 665.434 156.4V152.2H662.434C658.034 152.2 653.834 152.467 649.834 153C645.834 153.533 642.568 154.733 640.034 156.6C637.634 158.333 636.434 161.067 636.434 164.8C636.434 168.533 637.434 171.267 639.434 173C641.568 174.733 644.101 175.6 647.034 175.6ZM728.975 193C725.375 193 722.375 192.133 719.975 190.4C717.575 188.667 716.375 186.733 716.375 184.6V106C716.375 103.6 717.575 101.667 719.975 100.2C722.375 98.7333 725.375 98 728.975 98C732.308 98 735.042 98.7333 737.175 100.2C739.442 101.667 740.575 103.6 740.575 106V114.2C742.042 111.267 743.975 108.533 746.375 106C748.908 103.333 751.775 101.133 754.975 99.4C758.175 97.6667 761.575 96.8 765.175 96.8H771.375C773.908 96.8 776.108 97.9333 777.975 100.2C779.842 102.333 780.775 104.933 780.775 108C780.775 111.2 779.842 113.933 777.975 116.2C776.108 118.333 773.908 119.4 771.375 119.4H765.175C761.442 119.4 757.775 120.667 754.175 123.2C750.708 125.6 747.842 129 745.575 133.4C743.308 137.667 742.175 142.867 742.175 149V184.6C742.175 186.733 740.908 188.667 738.375 190.4C735.842 192.133 732.708 193 728.975 193ZM816.408 194.8C809.341 194.8 803.208 192.667 798.008 188.4C792.941 184 790.408 177.267 790.408 168.2C790.408 160.6 792.341 154.667 796.208 150.4C800.208 146.133 805.674 143.133 812.608 141.4C819.674 139.667 827.808 138.8 837.008 138.8H845.208V136.2C845.208 133.267 844.608 130.4 843.408 127.6C842.341 124.8 840.541 122.467 838.008 120.6C835.608 118.733 832.141 117.8 827.608 117.8C822.541 117.8 818.608 118.333 815.808 119.4C813.141 120.333 811.074 121.333 809.608 122.4C808.141 123.467 806.541 124 804.808 124C802.008 124 799.808 122.6 798.208 119.8C796.741 117 796.008 114.133 796.008 111.2C796.008 108.4 797.674 105.933 801.008 103.8C804.474 101.533 808.674 99.8 813.608 98.6C818.541 97.4 823.341 96.8 828.008 96.8C838.408 96.8 846.741 98.6667 853.008 102.4C859.274 106.133 863.808 110.933 866.608 116.8C869.541 122.667 871.008 129 871.008 135.8V184.6C871.008 187 869.808 189 867.408 190.6C865.008 192.2 862.008 193 858.408 193C855.074 193 852.274 192.2 850.008 190.6C847.874 189 846.808 187 846.808 184.6V179C843.208 183.133 838.941 186.8 834.008 190C829.208 193.2 823.341 194.8 816.408 194.8ZM826.808 175.6C829.608 175.6 832.408 174.667 835.208 172.8C838.008 170.933 840.341 168.533 842.208 165.6C844.208 162.667 845.208 159.6 845.208 156.4V152.2H842.208C837.808 152.2 833.608 152.467 829.608 153C825.608 153.533 822.341 154.733 819.808 156.6C817.408 158.333 816.208 161.067 816.208 164.8C816.208 168.533 817.208 171.267 819.208 173C821.341 174.733 823.874 175.6 826.808 175.6Z" fill="#24504B"/>
<path d="M901.902 164.466C895.243 126.179 904.313 85.4831 982.698 88.1673C999.967 125.697 1011.25 197.827 918.242 186.109L933.783 162.495M968.807 109.275L949.324 138.88M949.324 138.88L976.085 135M949.324 138.88L933.783 162.495M933.783 162.495L964.01 159.31" stroke="#24504B" stroke-width="12" stroke-linecap="round" stroke-linejoin="round"/>
<rect x="40" y="8" width="57.3281" height="26" rx="2" fill="#E5E5E5"/>
<rect x="40.5" y="8.5" width="56.3281" height="25" rx="1.5" stroke="black" stroke-opacity="0.14902"/>
<path d="M49.3438 18C49.2969 17.6042 49.1068 17.2969 48.7734 17.0781C48.4401 16.8594 48.0313 16.75 47.5469 16.75C47.1927 16.75 46.8828 16.8073 46.6172 16.9219C46.3542 17.0365 46.1484 17.194 46 17.3945C45.8542 17.5951 45.7813 17.8229 45.7813 18.0781C45.7813 18.2917 45.832 18.4753 45.9336 18.6289C46.0378 18.7799 46.1706 18.9062 46.332 19.0078C46.4935 19.1068 46.6628 19.1888 46.8398 19.2539C47.0169 19.3164 47.1797 19.3672 47.3281 19.4062L48.1406 19.625C48.349 19.6797 48.5807 19.7552 48.8359 19.8516C49.0938 19.9479 49.3398 20.0794 49.5742 20.2461C49.8112 20.4102 50.0065 20.6211 50.1602 20.8789C50.3138 21.1367 50.3906 21.4531 50.3906 21.8281C50.3906 22.2604 50.2773 22.651 50.0508 23C49.8268 23.349 49.4987 23.6263 49.0664 23.832C48.6367 24.0378 48.1146 24.1406 47.5 24.1406C46.9271 24.1406 46.431 24.0482 46.0117 23.8633C45.5951 23.6784 45.2669 23.4206 45.0273 23.0898C44.7904 22.7591 44.6563 22.375 44.625 21.9375H45.625C45.651 22.2396 45.7526 22.4896 45.9297 22.6875C46.1094 22.8828 46.3359 23.0286 46.6094 23.125C46.8854 23.2187 47.1823 23.2656 47.5 23.2656C47.8698 23.2656 48.2018 23.2057 48.4961 23.0859C48.7904 22.9635 49.0234 22.7943 49.1953 22.5781C49.3672 22.3594 49.4531 22.1042 49.4531 21.8125C49.4531 21.5469 49.3789 21.3307 49.2305 21.1641C49.082 20.9974 48.8867 20.862 48.6445 20.7578C48.4023 20.6536 48.1406 20.5625 47.8594 20.4844L46.875 20.2031C46.25 20.0234 45.7552 19.7669 45.3906 19.4336C45.026 19.1003 44.8438 18.6641 44.8438 18.125C44.8438 17.6771 44.9648 17.2865 45.207 16.9531C45.4518 16.6172 45.7799 16.3568 46.1914 16.1719C46.6055 15.9844 47.0677 15.8906 47.5781 15.8906C48.0938 15.8906 48.5521 15.9831 48.9531 16.168C49.3542 16.3503 49.6719 16.6003 49.9062 16.918C50.1432 17.2357 50.2682 17.5964 50.2813 18H49.3438ZM54.374 24.125C53.7959 24.125 53.2972 23.9974 52.8779 23.7422C52.4613 23.4844 52.1396 23.125 51.9131 22.6641C51.6891 22.2005 51.5771 21.6615 51.5771 21.0469C51.5771 20.4323 51.6891 19.8906 51.9131 19.4219C52.1396 18.9505 52.4548 18.5833 52.8584 18.3203C53.2646 18.0547 53.7386 17.9219 54.2803 17.9219C54.5928 17.9219 54.9014 17.974 55.2061 18.0781C55.5107 18.1823 55.7881 18.3516 56.0381 18.5859C56.2881 18.8177 56.4873 19.125 56.6357 19.5078C56.7842 19.8906 56.8584 20.362 56.8584 20.9219V21.3125H52.2334V20.5156H55.9209C55.9209 20.1771 55.8532 19.875 55.7178 19.6094C55.585 19.3437 55.3949 19.1341 55.1475 18.9805C54.9027 18.8268 54.6136 18.75 54.2803 18.75C53.9131 18.75 53.5954 18.8411 53.3271 19.0234C53.0615 19.2031 52.8571 19.4375 52.7139 19.7266C52.5706 20.0156 52.499 20.3255 52.499 20.6562V21.1875C52.499 21.6406 52.5771 22.0247 52.7334 22.3398C52.8923 22.6523 53.1123 22.8906 53.3936 23.0547C53.6748 23.2161 54.0016 23.2969 54.374 23.2969C54.6162 23.2969 54.835 23.263 55.0303 23.1953C55.2282 23.125 55.3988 23.0208 55.542 22.8828C55.6852 22.7422 55.7959 22.5677 55.874 22.3594L56.7646 22.6094C56.6709 22.9115 56.5133 23.1771 56.292 23.4062C56.0706 23.6328 55.7972 23.8099 55.4717 23.9375C55.1462 24.0625 54.7803 24.125 54.374 24.125ZM60.6982 24.125C60.1357 24.125 59.6514 23.9922 59.2451 23.7266C58.8389 23.4609 58.5264 23.0951 58.3076 22.6289C58.0889 22.1628 57.9795 21.6302 57.9795 21.0312C57.9795 20.4219 58.0915 19.8841 58.3154 19.418C58.542 18.9492 58.8571 18.5833 59.2607 18.3203C59.667 18.0547 60.141 17.9219 60.6826 17.9219C61.1045 17.9219 61.4847 18 61.8232 18.1562C62.1618 18.3125 62.4391 18.5312 62.6553 18.8125C62.8714 19.0937 63.0055 19.4219 63.0576 19.7969H62.1357C62.0654 19.5234 61.9092 19.2812 61.667 19.0703C61.4274 18.8568 61.1045 18.75 60.6982 18.75C60.3389 18.75 60.0238 18.8437 59.7529 19.0312C59.4847 19.2161 59.2751 19.4779 59.124 19.8164C58.9756 20.1523 58.9014 20.5469 58.9014 21C58.9014 21.4635 58.9743 21.8672 59.1201 22.2109C59.2686 22.5547 59.4769 22.8216 59.7451 23.0117C60.016 23.2018 60.3337 23.2969 60.6982 23.2969C60.9378 23.2969 61.1553 23.2552 61.3506 23.1719C61.5459 23.0885 61.7113 22.9688 61.8467 22.8125C61.9821 22.6562 62.0785 22.4687 62.1357 22.25H63.0576C63.0055 22.6042 62.8766 22.9232 62.6709 23.207C62.4678 23.4883 62.1982 23.7122 61.8623 23.8789C61.529 24.043 61.141 24.125 60.6982 24.125ZM67.0146 18V18.7812H63.9053V18H67.0146ZM64.8115 16.5625H65.7334V22.2812C65.7334 22.5417 65.7712 22.737 65.8467 22.8672C65.9248 22.9948 66.0238 23.0807 66.1436 23.125C66.266 23.1667 66.3949 23.1875 66.5303 23.1875C66.6318 23.1875 66.7152 23.1823 66.7803 23.1719C66.8454 23.1589 66.8975 23.1484 66.9365 23.1406L67.124 23.9687C67.0615 23.9922 66.9743 24.0156 66.8623 24.0391C66.7503 24.0651 66.6084 24.0781 66.4365 24.0781C66.1761 24.0781 65.9209 24.0221 65.6709 23.9102C65.4235 23.7982 65.2178 23.6276 65.0537 23.3984C64.8923 23.1693 64.8115 22.8802 64.8115 22.5312V16.5625ZM68.4014 24V18H69.3232V24H68.4014ZM68.8701 17C68.6904 17 68.5355 16.9388 68.4053 16.8164C68.2777 16.694 68.2139 16.5469 68.2139 16.375C68.2139 16.2031 68.2777 16.056 68.4053 15.9336C68.5355 15.8112 68.6904 15.75 68.8701 15.75C69.0498 15.75 69.2035 15.8112 69.3311 15.9336C69.4613 16.056 69.5264 16.2031 69.5264 16.375C69.5264 16.5469 69.4613 16.694 69.3311 16.8164C69.2035 16.9388 69.0498 17 68.8701 17ZM73.4492 24.125C72.9076 24.125 72.4323 23.9961 72.0234 23.7383C71.6172 23.4805 71.2995 23.1198 71.0703 22.6562C70.8438 22.1927 70.7305 21.651 70.7305 21.0312C70.7305 20.4062 70.8438 19.8607 71.0703 19.3945C71.2995 18.9284 71.6172 18.5664 72.0234 18.3086C72.4323 18.0508 72.9076 17.9219 73.4492 17.9219C73.9909 17.9219 74.4648 18.0508 74.8711 18.3086C75.2799 18.5664 75.5977 18.9284 75.8242 19.3945C76.0534 19.8607 76.168 20.4062 76.168 21.0312C76.168 21.651 76.0534 22.1927 75.8242 22.6562C75.5977 23.1198 75.2799 23.4805 74.8711 23.7383C74.4648 23.9961 73.9909 24.125 73.4492 24.125ZM73.4492 23.2969C73.8607 23.2969 74.1992 23.1914 74.4648 22.9805C74.7305 22.7695 74.9271 22.4922 75.0547 22.1484C75.1823 21.8047 75.2461 21.4323 75.2461 21.0312C75.2461 20.6302 75.1823 20.2565 75.0547 19.9102C74.9271 19.5638 74.7305 19.2839 74.4648 19.0703C74.1992 18.8568 73.8607 18.75 73.4492 18.75C73.0378 18.75 72.6992 18.8568 72.4336 19.0703C72.168 19.2839 71.9714 19.5638 71.8438 19.9102C71.7161 20.2565 71.6523 20.6302 71.6523 21.0312C71.6523 21.4323 71.7161 21.8047 71.8438 22.1484C71.9714 22.4922 72.168 22.7695 72.4336 22.9805C72.6992 23.1914 73.0378 23.2969 73.4492 23.2969ZM78.4971 20.3906V24H77.5752V18H78.4658V18.9375H78.5439C78.6846 18.6328 78.8981 18.388 79.1846 18.2031C79.471 18.0156 79.8408 17.9219 80.2939 17.9219C80.7002 17.9219 81.0557 18.0052 81.3604 18.1719C81.665 18.3359 81.902 18.5859 82.0713 18.9219C82.2406 19.2552 82.3252 19.6771 82.3252 20.1875V24H81.4033V20.25C81.4033 19.7786 81.2809 19.4115 81.0361 19.1484C80.7913 18.8828 80.4554 18.75 80.0283 18.75C79.734 18.75 79.471 18.8138 79.2393 18.9414C79.0101 19.069 78.8291 19.2552 78.6963 19.5C78.5635 19.7448 78.4971 20.0417 78.4971 20.3906ZM86.9004 22.3594V21.5625L90.416 16H90.9941V17.2344H90.6035L87.9473 21.4375V21.5H92.6816V22.3594H86.9004ZM90.666 24V22.1172V21.7461V16H91.5879V24H90.666Z" fill="black"/>
</svg>
