<svg width="997" height="231" viewBox="0 0 997 231" fill="none" xmlns="http://www.w3.org/2000/svg">
<path d="M35.8 230.2C32.4667 230.2 29.6667 229.533 27.4 228.2C25.1333 227 24 224 24 219.2C24 216.267 24.4667 213.733 25.4 211.6C26.4667 209.467 28.2 208.4 30.6 208.4C32.8667 208.4 35.4667 208 38.4 207.2C41.4667 206.4 44.5333 204.867 47.6 202.6C50.6667 200.467 53.2667 197.467 55.4 193.6C57.5333 189.867 58.8 185 59.2 179L24.8 105.4C24.2667 104.2 24 103.067 24 102C24 99.7333 24.9333 97.6667 26.8 95.8C28.8 93.9333 31.1333 92.4667 33.8 91.4C36.4667 90.2 38.9333 89.6 41.2 89.6C42.8 89.6 44.2667 89.9333 45.6 90.6C47.0667 91.2667 48.0667 92.4 48.6 94L72.6 153.8L91.8 94C92.4667 92.4 93.4667 91.2667 94.8 90.6C96.1333 89.9333 97.4667 89.6 98.8 89.6C100.8 89.6 103.2 90.2 106 91.4C108.8 92.4667 111.2 94 113.2 96C115.333 97.8667 116.4 100 116.4 102.4C116.4 103.6 116.2 104.6 115.8 105.4L86.6 180C84.2 186 81.8667 191.933 79.6 197.8C77.3333 203.8 74.4667 209.2 71 214C67.6667 218.933 63.2 222.867 57.6 225.8C52 228.733 44.7333 230.2 35.8 230.2ZM154.127 187.8C147.06 187.8 140.927 185.667 135.727 181.4C130.66 177 128.127 170.267 128.127 161.2C128.127 153.6 130.06 147.667 133.927 143.4C137.927 139.133 143.393 136.133 150.327 134.4C157.393 132.667 165.527 131.8 174.727 131.8H182.927V129.2C182.927 126.267 182.327 123.4 181.127 120.6C180.06 117.8 178.26 115.467 175.727 113.6C173.327 111.733 169.86 110.8 165.327 110.8C160.26 110.8 156.327 111.333 153.527 112.4C150.86 113.333 148.793 114.333 147.327 115.4C145.86 116.467 144.26 117 142.527 117C139.727 117 137.527 115.6 135.927 112.8C134.46 110 133.727 107.133 133.727 104.2C133.727 101.4 135.393 98.9333 138.727 96.8C142.193 94.5333 146.393 92.8 151.327 91.6C156.26 90.4 161.06 89.8 165.727 89.8C176.127 89.8 184.46 91.6667 190.727 95.4C196.993 99.1333 201.527 103.933 204.327 109.8C207.26 115.667 208.727 122 208.727 128.8V177.6C208.727 180 207.527 182 205.127 183.6C202.727 185.2 199.727 186 196.127 186C192.793 186 189.993 185.2 187.727 183.6C185.593 182 184.527 180 184.527 177.6V172C180.927 176.133 176.66 179.8 171.727 183C166.927 186.2 161.06 187.8 154.127 187.8ZM164.527 168.6C167.327 168.6 170.127 167.667 172.927 165.8C175.727 163.933 178.06 161.533 179.927 158.6C181.927 155.667 182.927 152.6 182.927 149.4V145.2H179.927C175.527 145.2 171.327 145.467 167.327 146C163.327 146.533 160.06 147.733 157.527 149.6C155.127 151.333 153.927 154.067 153.927 157.8C153.927 161.533 154.927 164.267 156.927 166C159.06 167.733 161.593 168.6 164.527 168.6ZM246.667 186C242.934 186 239.867 185.133 237.467 183.4C235.067 181.667 233.867 179.733 233.867 177.6V99C233.867 96.6 235.067 94.6667 237.467 93.2C239.867 91.7333 242.934 91 246.667 91C249.867 91 252.534 91.7333 254.667 93.2C256.934 94.6667 258.067 96.6 258.067 99V105C260.334 101.133 263.667 97.6667 268.067 94.6C272.467 91.4 278.001 89.8 284.667 89.8C290.401 89.8 295.467 91.6667 299.867 95.4C304.267 99.1333 307.534 103.933 309.667 109.8C313.134 103 317.534 98 322.867 94.8C328.334 91.4667 333.934 89.8 339.667 89.8C345.801 89.8 351.534 91.4 356.867 94.6C362.334 97.6667 366.734 102.267 370.067 108.4C373.534 114.4 375.267 121.733 375.267 130.4V177.6C375.267 179.733 374.001 181.667 371.467 183.4C368.934 185.133 365.867 186 362.267 186C358.801 186 355.801 185.133 353.267 183.4C350.734 181.667 349.467 179.733 349.467 177.6V130.4C349.467 126.4 348.667 123.067 347.067 120.4C345.601 117.733 343.601 115.733 341.067 114.4C338.534 112.933 335.934 112.2 333.267 112.2C330.734 112.2 328.267 112.933 325.867 114.4C323.467 115.733 321.467 117.733 319.867 120.4C318.267 123.067 317.467 126.333 317.467 130.2V177.8C317.467 180.733 316.067 182.867 313.267 184.2C310.601 185.4 307.667 186 304.467 186C301.534 186 298.667 185.4 295.867 184.2C293.067 182.867 291.667 180.733 291.667 177.8V130.4C291.667 126.667 290.867 123.467 289.267 120.8C287.801 118.133 285.801 116.067 283.267 114.6C280.867 113.133 278.267 112.4 275.467 112.4C272.801 112.4 270.267 113.067 267.867 114.4C265.467 115.733 263.467 117.733 261.867 120.4C260.401 123.067 259.667 126.4 259.667 130.4V177.6C259.667 179.733 258.401 181.667 255.867 183.4C253.334 185.133 250.267 186 246.667 186ZM445.214 187.8C435.747 187.8 427.347 186.133 420.014 182.8C412.814 179.333 407.147 174.533 403.014 168.4C398.881 162.133 396.814 154.933 396.814 146.8V129.8C396.814 122.6 398.747 116 402.614 110C406.614 103.867 411.881 99 418.414 95.4C425.081 91.6667 432.481 89.8 440.614 89.8C448.081 89.8 454.881 91.4 461.014 94.6C467.281 97.8 472.347 102.2 476.214 107.8C480.081 113.4 482.014 119.933 482.014 127.4C482.014 133.133 481.081 137.267 479.214 139.8C477.347 142.2 474.947 143.733 472.014 144.4C469.214 144.933 466.281 145.2 463.214 145.2H422.614V148.2C422.614 153.933 424.747 158.6 429.014 162.2C433.414 165.667 439.081 167.4 446.014 167.4C450.414 167.4 454.081 166.733 457.014 165.4C459.947 164.067 462.481 162.8 464.614 161.6C466.747 160.4 468.747 159.8 470.614 159.8C472.614 159.8 474.347 160.467 475.814 161.8C477.281 163.133 478.414 164.733 479.214 166.6C480.014 168.333 480.414 169.867 480.414 171.2C480.414 173.467 478.947 175.933 476.014 178.6C473.214 181.133 469.147 183.333 463.814 185.2C458.614 186.933 452.414 187.8 445.214 187.8ZM422.614 130H451.814C454.081 130 455.614 129.667 456.414 129C457.347 128.2 457.814 126.733 457.814 124.6C457.814 121.533 456.947 118.8 455.214 116.4C453.614 114 451.481 112.133 448.814 110.8C446.281 109.467 443.414 108.8 440.214 108.8C437.147 108.8 434.281 109.467 431.614 110.8C428.947 112 426.747 113.8 425.014 116.2C423.414 118.467 422.614 121.2 422.614 124.4V130ZM540.084 186C528.084 186 518.884 183.4 512.484 178.2C506.218 173 503.084 164.733 503.084 153.4V56.6C503.084 54.2 504.484 52.2667 507.284 50.8C510.084 49.3333 512.951 48.6 515.884 48.6C519.084 48.6 522.018 49.3333 524.684 50.8C527.484 52.2667 528.884 54.2 528.884 56.6V91H552.484C554.618 91 556.218 92 557.284 94C558.484 95.8667 559.084 98 559.084 100.4C559.084 102.8 558.484 105 557.284 107C556.218 108.867 554.618 109.8 552.484 109.8H528.884V153.4C528.884 157.4 529.684 160.2 531.284 161.8C533.018 163.4 535.951 164.2 540.084 164.2H547.884C551.618 164.2 554.351 165.333 556.084 167.6C557.951 169.867 558.884 172.333 558.884 175C558.884 177.8 557.951 180.333 556.084 182.6C554.351 184.867 551.618 186 547.884 186H540.084ZM598.634 187.8C591.568 187.8 585.434 185.667 580.234 181.4C575.168 177 572.634 170.267 572.634 161.2C572.634 153.6 574.568 147.667 578.434 143.4C582.434 139.133 587.901 136.133 594.834 134.4C601.901 132.667 610.034 131.8 619.234 131.8H627.434V129.2C627.434 126.267 626.834 123.4 625.634 120.6C624.568 117.8 622.768 115.467 620.234 113.6C617.834 111.733 614.368 110.8 609.834 110.8C604.768 110.8 600.834 111.333 598.034 112.4C595.368 113.333 593.301 114.333 591.834 115.4C590.368 116.467 588.768 117 587.034 117C584.234 117 582.034 115.6 580.434 112.8C578.968 110 578.234 107.133 578.234 104.2C578.234 101.4 579.901 98.9333 583.234 96.8C586.701 94.5333 590.901 92.8 595.834 91.6C600.768 90.4 605.568 89.8 610.234 89.8C620.634 89.8 628.968 91.6667 635.234 95.4C641.501 99.1333 646.034 103.933 648.834 109.8C651.768 115.667 653.234 122 653.234 128.8V177.6C653.234 180 652.034 182 649.634 183.6C647.234 185.2 644.234 186 640.634 186C637.301 186 634.501 185.2 632.234 183.6C630.101 182 629.034 180 629.034 177.6V172C625.434 176.133 621.168 179.8 616.234 183C611.434 186.2 605.568 187.8 598.634 187.8ZM609.034 168.6C611.834 168.6 614.634 167.667 617.434 165.8C620.234 163.933 622.568 161.533 624.434 158.6C626.434 155.667 627.434 152.6 627.434 149.4V145.2H624.434C620.034 145.2 615.834 145.467 611.834 146C607.834 146.533 604.568 147.733 602.034 149.6C599.634 151.333 598.434 154.067 598.434 157.8C598.434 161.533 599.434 164.267 601.434 166C603.568 167.733 606.101 168.6 609.034 168.6ZM690.975 186C687.375 186 684.375 185.133 681.975 183.4C679.575 181.667 678.375 179.733 678.375 177.6V99C678.375 96.6 679.575 94.6667 681.975 93.2C684.375 91.7333 687.375 91 690.975 91C694.308 91 697.042 91.7333 699.175 93.2C701.442 94.6667 702.575 96.6 702.575 99V107.2C704.042 104.267 705.975 101.533 708.375 99C710.908 96.3333 713.775 94.1333 716.975 92.4C720.175 90.6667 723.575 89.8 727.175 89.8H733.375C735.908 89.8 738.108 90.9333 739.975 93.2C741.842 95.3333 742.775 97.9333 742.775 101C742.775 104.2 741.842 106.933 739.975 109.2C738.108 111.333 735.908 112.4 733.375 112.4H727.175C723.442 112.4 719.775 113.667 716.175 116.2C712.708 118.6 709.842 122 707.575 126.4C705.308 130.667 704.175 135.867 704.175 142V177.6C704.175 179.733 702.908 181.667 700.375 183.4C697.842 185.133 694.708 186 690.975 186ZM778.408 187.8C771.341 187.8 765.208 185.667 760.008 181.4C754.941 177 752.408 170.267 752.408 161.2C752.408 153.6 754.341 147.667 758.208 143.4C762.208 139.133 767.674 136.133 774.608 134.4C781.674 132.667 789.808 131.8 799.008 131.8H807.208V129.2C807.208 126.267 806.608 123.4 805.408 120.6C804.341 117.8 802.541 115.467 800.008 113.6C797.608 111.733 794.141 110.8 789.608 110.8C784.541 110.8 780.608 111.333 777.808 112.4C775.141 113.333 773.074 114.333 771.608 115.4C770.141 116.467 768.541 117 766.808 117C764.008 117 761.808 115.6 760.208 112.8C758.741 110 758.008 107.133 758.008 104.2C758.008 101.4 759.674 98.9333 763.008 96.8C766.474 94.5333 770.674 92.8 775.608 91.6C780.541 90.4 785.341 89.8 790.008 89.8C800.408 89.8 808.741 91.6667 815.008 95.4C821.274 99.1333 825.808 103.933 828.608 109.8C831.541 115.667 833.008 122 833.008 128.8V177.6C833.008 180 831.808 182 829.408 183.6C827.008 185.2 824.008 186 820.408 186C817.074 186 814.274 185.2 812.008 183.6C809.874 182 808.808 180 808.808 177.6V172C805.208 176.133 800.941 179.8 796.008 183C791.208 186.2 785.341 187.8 778.408 187.8ZM788.808 168.6C791.608 168.6 794.408 167.667 797.208 165.8C800.008 163.933 802.341 161.533 804.208 158.6C806.208 155.667 807.208 152.6 807.208 149.4V145.2H804.208C799.808 145.2 795.608 145.467 791.608 146C787.608 146.533 784.341 147.733 781.808 149.6C779.408 151.333 778.208 154.067 778.208 157.8C778.208 161.533 779.208 164.267 781.208 166C783.341 167.733 785.874 168.6 788.808 168.6Z" fill="#377A73"/>
<path d="M874.717 156.466C867.914 118.179 877.18 77.4831 957.256 80.1673C974.898 117.697 986.427 189.827 891.41 178.109L907.286 154.495M943.065 101.275L923.161 130.88M923.161 130.88L950.5 127M923.161 130.88L907.286 154.495M907.286 154.495L938.164 151.31" stroke="#05BF40" stroke-width="12" stroke-linecap="round" stroke-linejoin="round"/>
</svg>
