<svg width="974" height="231" viewBox="0 0 974 231" fill="none" xmlns="http://www.w3.org/2000/svg">
<path d="M12.8 230.2C9.46667 230.2 6.66667 229.533 4.4 228.2C2.13333 227 1 224 1 219.2C1 216.267 1.46667 213.733 2.4 211.6C3.46667 209.467 5.2 208.4 7.6 208.4C9.86667 208.4 12.4667 208 15.4 207.2C18.4667 206.4 21.5333 204.867 24.6 202.6C27.6667 200.467 30.2667 197.467 32.4 193.6C34.5333 189.867 35.8 185 36.2 179L1.8 105.4C1.26667 104.2 1 103.067 1 102C1 99.7333 1.93333 97.6667 3.8 95.8C5.8 93.9333 8.13333 92.4667 10.8 91.4C13.4667 90.2 15.9333 89.6 18.2 89.6C19.8 89.6 21.2667 89.9333 22.6 90.6C24.0667 91.2667 25.0667 92.4 25.6 94L49.6 153.8L68.8 94C69.4667 92.4 70.4667 91.2667 71.8 90.6C73.1333 89.9333 74.4667 89.6 75.8 89.6C77.8 89.6 80.2 90.2 83 91.4C85.8 92.4667 88.2 94 90.2 96C92.3333 97.8667 93.4 100 93.4 102.4C93.4 103.6 93.2 104.6 92.8 105.4L63.6 180C61.2 186 58.8667 191.933 56.6 197.8C54.3333 203.8 51.4667 209.2 48 214C44.6667 218.933 40.2 222.867 34.6 225.8C29 228.733 21.7333 230.2 12.8 230.2ZM131.127 187.8C124.06 187.8 117.927 185.667 112.727 181.4C107.66 177 105.127 170.267 105.127 161.2C105.127 153.6 107.06 147.667 110.927 143.4C114.927 139.133 120.393 136.133 127.327 134.4C134.393 132.667 142.527 131.8 151.727 131.8H159.927V129.2C159.927 126.267 159.327 123.4 158.127 120.6C157.06 117.8 155.26 115.467 152.727 113.6C150.327 111.733 146.86 110.8 142.327 110.8C137.26 110.8 133.327 111.333 130.527 112.4C127.86 113.333 125.793 114.333 124.327 115.4C122.86 116.467 121.26 117 119.527 117C116.727 117 114.527 115.6 112.927 112.8C111.46 110 110.727 107.133 110.727 104.2C110.727 101.4 112.393 98.9333 115.727 96.8C119.193 94.5333 123.393 92.8 128.327 91.6C133.26 90.4 138.06 89.8 142.727 89.8C153.127 89.8 161.46 91.6667 167.727 95.4C173.993 99.1333 178.527 103.933 181.327 109.8C184.26 115.667 185.727 122 185.727 128.8V177.6C185.727 180 184.527 182 182.127 183.6C179.727 185.2 176.727 186 173.127 186C169.793 186 166.993 185.2 164.727 183.6C162.593 182 161.527 180 161.527 177.6V172C157.927 176.133 153.66 179.8 148.727 183C143.927 186.2 138.06 187.8 131.127 187.8ZM141.527 168.6C144.327 168.6 147.127 167.667 149.927 165.8C152.727 163.933 155.06 161.533 156.927 158.6C158.927 155.667 159.927 152.6 159.927 149.4V145.2H156.927C152.527 145.2 148.327 145.467 144.327 146C140.327 146.533 137.06 147.733 134.527 149.6C132.127 151.333 130.927 154.067 130.927 157.8C130.927 161.533 131.927 164.267 133.927 166C136.06 167.733 138.593 168.6 141.527 168.6ZM223.667 186C219.934 186 216.867 185.133 214.467 183.4C212.067 181.667 210.867 179.733 210.867 177.6V99C210.867 96.6 212.067 94.6667 214.467 93.2C216.867 91.7333 219.934 91 223.667 91C226.867 91 229.534 91.7333 231.667 93.2C233.934 94.6667 235.067 96.6 235.067 99V105C237.334 101.133 240.667 97.6667 245.067 94.6C249.467 91.4 255.001 89.8 261.667 89.8C267.401 89.8 272.467 91.6667 276.867 95.4C281.267 99.1333 284.534 103.933 286.667 109.8C290.134 103 294.534 98 299.867 94.8C305.334 91.4667 310.934 89.8 316.667 89.8C322.801 89.8 328.534 91.4 333.867 94.6C339.334 97.6667 343.734 102.267 347.067 108.4C350.534 114.4 352.267 121.733 352.267 130.4V177.6C352.267 179.733 351.001 181.667 348.467 183.4C345.934 185.133 342.867 186 339.267 186C335.801 186 332.801 185.133 330.267 183.4C327.734 181.667 326.467 179.733 326.467 177.6V130.4C326.467 126.4 325.667 123.067 324.067 120.4C322.601 117.733 320.601 115.733 318.067 114.4C315.534 112.933 312.934 112.2 310.267 112.2C307.734 112.2 305.267 112.933 302.867 114.4C300.467 115.733 298.467 117.733 296.867 120.4C295.267 123.067 294.467 126.333 294.467 130.2V177.8C294.467 180.733 293.067 182.867 290.267 184.2C287.601 185.4 284.667 186 281.467 186C278.534 186 275.667 185.4 272.867 184.2C270.067 182.867 268.667 180.733 268.667 177.8V130.4C268.667 126.667 267.867 123.467 266.267 120.8C264.801 118.133 262.801 116.067 260.267 114.6C257.867 113.133 255.267 112.4 252.467 112.4C249.801 112.4 247.267 113.067 244.867 114.4C242.467 115.733 240.467 117.733 238.867 120.4C237.401 123.067 236.667 126.4 236.667 130.4V177.6C236.667 179.733 235.401 181.667 232.867 183.4C230.334 185.133 227.267 186 223.667 186ZM422.214 187.8C412.747 187.8 404.347 186.133 397.014 182.8C389.814 179.333 384.147 174.533 380.014 168.4C375.881 162.133 373.814 154.933 373.814 146.8V129.8C373.814 122.6 375.747 116 379.614 110C383.614 103.867 388.881 99 395.414 95.4C402.081 91.6667 409.481 89.8 417.614 89.8C425.081 89.8 431.881 91.4 438.014 94.6C444.281 97.8 449.347 102.2 453.214 107.8C457.081 113.4 459.014 119.933 459.014 127.4C459.014 133.133 458.081 137.267 456.214 139.8C454.347 142.2 451.947 143.733 449.014 144.4C446.214 144.933 443.281 145.2 440.214 145.2H399.614V148.2C399.614 153.933 401.747 158.6 406.014 162.2C410.414 165.667 416.081 167.4 423.014 167.4C427.414 167.4 431.081 166.733 434.014 165.4C436.947 164.067 439.481 162.8 441.614 161.6C443.747 160.4 445.747 159.8 447.614 159.8C449.614 159.8 451.347 160.467 452.814 161.8C454.281 163.133 455.414 164.733 456.214 166.6C457.014 168.333 457.414 169.867 457.414 171.2C457.414 173.467 455.947 175.933 453.014 178.6C450.214 181.133 446.147 183.333 440.814 185.2C435.614 186.933 429.414 187.8 422.214 187.8ZM399.614 130H428.814C431.081 130 432.614 129.667 433.414 129C434.347 128.2 434.814 126.733 434.814 124.6C434.814 121.533 433.947 118.8 432.214 116.4C430.614 114 428.481 112.133 425.814 110.8C423.281 109.467 420.414 108.8 417.214 108.8C414.147 108.8 411.281 109.467 408.614 110.8C405.947 112 403.747 113.8 402.014 116.2C400.414 118.467 399.614 121.2 399.614 124.4V130ZM517.084 186C505.084 186 495.884 183.4 489.484 178.2C483.218 173 480.084 164.733 480.084 153.4V56.6C480.084 54.2 481.484 52.2667 484.284 50.8C487.084 49.3333 489.951 48.6 492.884 48.6C496.084 48.6 499.018 49.3333 501.684 50.8C504.484 52.2667 505.884 54.2 505.884 56.6V91H529.484C531.618 91 533.218 92 534.284 94C535.484 95.8667 536.084 98 536.084 100.4C536.084 102.8 535.484 105 534.284 107C533.218 108.867 531.618 109.8 529.484 109.8H505.884V153.4C505.884 157.4 506.684 160.2 508.284 161.8C510.018 163.4 512.951 164.2 517.084 164.2H524.884C528.618 164.2 531.351 165.333 533.084 167.6C534.951 169.867 535.884 172.333 535.884 175C535.884 177.8 534.951 180.333 533.084 182.6C531.351 184.867 528.618 186 524.884 186H517.084ZM575.634 187.8C568.568 187.8 562.434 185.667 557.234 181.4C552.168 177 549.634 170.267 549.634 161.2C549.634 153.6 551.568 147.667 555.434 143.4C559.434 139.133 564.901 136.133 571.834 134.4C578.901 132.667 587.034 131.8 596.234 131.8H604.434V129.2C604.434 126.267 603.834 123.4 602.634 120.6C601.568 117.8 599.768 115.467 597.234 113.6C594.834 111.733 591.368 110.8 586.834 110.8C581.768 110.8 577.834 111.333 575.034 112.4C572.368 113.333 570.301 114.333 568.834 115.4C567.368 116.467 565.768 117 564.034 117C561.234 117 559.034 115.6 557.434 112.8C555.968 110 555.234 107.133 555.234 104.2C555.234 101.4 556.901 98.9333 560.234 96.8C563.701 94.5333 567.901 92.8 572.834 91.6C577.768 90.4 582.568 89.8 587.234 89.8C597.634 89.8 605.968 91.6667 612.234 95.4C618.501 99.1333 623.034 103.933 625.834 109.8C628.768 115.667 630.234 122 630.234 128.8V177.6C630.234 180 629.034 182 626.634 183.6C624.234 185.2 621.234 186 617.634 186C614.301 186 611.501 185.2 609.234 183.6C607.101 182 606.034 180 606.034 177.6V172C602.434 176.133 598.168 179.8 593.234 183C588.434 186.2 582.568 187.8 575.634 187.8ZM586.034 168.6C588.834 168.6 591.634 167.667 594.434 165.8C597.234 163.933 599.568 161.533 601.434 158.6C603.434 155.667 604.434 152.6 604.434 149.4V145.2H601.434C597.034 145.2 592.834 145.467 588.834 146C584.834 146.533 581.568 147.733 579.034 149.6C576.634 151.333 575.434 154.067 575.434 157.8C575.434 161.533 576.434 164.267 578.434 166C580.568 167.733 583.101 168.6 586.034 168.6ZM667.975 186C664.375 186 661.375 185.133 658.975 183.4C656.575 181.667 655.375 179.733 655.375 177.6V99C655.375 96.6 656.575 94.6667 658.975 93.2C661.375 91.7333 664.375 91 667.975 91C671.308 91 674.042 91.7333 676.175 93.2C678.442 94.6667 679.575 96.6 679.575 99V107.2C681.042 104.267 682.975 101.533 685.375 99C687.908 96.3333 690.775 94.1333 693.975 92.4C697.175 90.6667 700.575 89.8 704.175 89.8H710.375C712.908 89.8 715.108 90.9333 716.975 93.2C718.842 95.3333 719.775 97.9333 719.775 101C719.775 104.2 718.842 106.933 716.975 109.2C715.108 111.333 712.908 112.4 710.375 112.4H704.175C700.442 112.4 696.775 113.667 693.175 116.2C689.708 118.6 686.842 122 684.575 126.4C682.308 130.667 681.175 135.867 681.175 142V177.6C681.175 179.733 679.908 181.667 677.375 183.4C674.842 185.133 671.708 186 667.975 186ZM755.408 187.8C748.341 187.8 742.208 185.667 737.008 181.4C731.941 177 729.408 170.267 729.408 161.2C729.408 153.6 731.341 147.667 735.208 143.4C739.208 139.133 744.674 136.133 751.608 134.4C758.674 132.667 766.808 131.8 776.008 131.8H784.208V129.2C784.208 126.267 783.608 123.4 782.408 120.6C781.341 117.8 779.541 115.467 777.008 113.6C774.608 111.733 771.141 110.8 766.608 110.8C761.541 110.8 757.608 111.333 754.808 112.4C752.141 113.333 750.074 114.333 748.608 115.4C747.141 116.467 745.541 117 743.808 117C741.008 117 738.808 115.6 737.208 112.8C735.741 110 735.008 107.133 735.008 104.2C735.008 101.4 736.674 98.9333 740.008 96.8C743.474 94.5333 747.674 92.8 752.608 91.6C757.541 90.4 762.341 89.8 767.008 89.8C777.408 89.8 785.741 91.6667 792.008 95.4C798.274 99.1333 802.808 103.933 805.608 109.8C808.541 115.667 810.008 122 810.008 128.8V177.6C810.008 180 808.808 182 806.408 183.6C804.008 185.2 801.008 186 797.408 186C794.074 186 791.274 185.2 789.008 183.6C786.874 182 785.808 180 785.808 177.6V172C782.208 176.133 777.941 179.8 773.008 183C768.208 186.2 762.341 187.8 755.408 187.8ZM765.808 168.6C768.608 168.6 771.408 167.667 774.208 165.8C777.008 163.933 779.341 161.533 781.208 158.6C783.208 155.667 784.208 152.6 784.208 149.4V145.2H781.208C776.808 145.2 772.608 145.467 768.608 146C764.608 146.533 761.341 147.733 758.808 149.6C756.408 151.333 755.208 154.067 755.208 157.8C755.208 161.533 756.208 164.267 758.208 166C760.341 167.733 762.874 168.6 765.808 168.6Z" fill="white"/>
<path d="M851.717 156.466C844.914 118.179 854.18 77.4831 934.256 80.1673C951.898 117.697 963.427 189.827 868.41 178.109L884.286 154.495M920.065 101.275L900.161 130.88M900.161 130.88L927.5 127M900.161 130.88L884.286 154.495M884.286 154.495L915.164 151.31" stroke="#00FF66" stroke-width="12" stroke-linecap="round" stroke-linejoin="round"/>
</svg>
