<svg width="965" height="184" viewBox="0 0 965 184" fill="none" xmlns="http://www.w3.org/2000/svg">
<path d="M12.8 183.2C9.46667 183.2 6.66667 182.533 4.4 181.2C2.13333 180 1 177 1 172.2C1 169.267 1.46667 166.733 2.4 164.6C3.46667 162.467 5.2 161.4 7.6 161.4C9.86667 161.4 12.4667 161 15.4 160.2C18.4667 159.4 21.5333 157.867 24.6 155.6C27.6667 153.467 30.2667 150.467 32.4 146.6C34.5333 142.867 35.8 138 36.2 132L1.8 58.4C1.26667 57.2 1 56.0667 1 55C1 52.7333 1.93333 50.6667 3.8 48.8C5.8 46.9333 8.13333 45.4667 10.8 44.4C13.4667 43.2 15.9333 42.6 18.2 42.6C19.8 42.6 21.2667 42.9333 22.6 43.6C24.0667 44.2667 25.0667 45.4 25.6 47L49.6 106.8L68.8 47C69.4667 45.4 70.4667 44.2667 71.8 43.6C73.1333 42.9333 74.4667 42.6 75.8 42.6C77.8 42.6 80.2 43.2 83 44.4C85.8 45.4667 88.2 47 90.2 49C92.3333 50.8667 93.4 53 93.4 55.4C93.4 56.6 93.2 57.6 92.8 58.4L63.6 133C61.2 139 58.8667 144.933 56.6 150.8C54.3333 156.8 51.4667 162.2 48 167C44.6667 171.933 40.2 175.867 34.6 178.8C29 181.733 21.7333 183.2 12.8 183.2ZM131.127 140.8C124.06 140.8 117.927 138.667 112.727 134.4C107.66 130 105.127 123.267 105.127 114.2C105.127 106.6 107.06 100.667 110.927 96.4C114.927 92.1333 120.393 89.1333 127.327 87.4C134.393 85.6667 142.527 84.8 151.727 84.8H159.927V82.2C159.927 79.2667 159.327 76.4 158.127 73.6C157.06 70.8 155.26 68.4667 152.727 66.6C150.327 64.7333 146.86 63.8 142.327 63.8C137.26 63.8 133.327 64.3333 130.527 65.4C127.86 66.3333 125.793 67.3333 124.327 68.4C122.86 69.4667 121.26 70 119.527 70C116.727 70 114.527 68.6 112.927 65.8C111.46 63 110.727 60.1333 110.727 57.2C110.727 54.4 112.393 51.9333 115.727 49.8C119.193 47.5333 123.393 45.8 128.327 44.6C133.26 43.4 138.06 42.8 142.727 42.8C153.127 42.8 161.46 44.6667 167.727 48.4C173.993 52.1333 178.527 56.9333 181.327 62.8C184.26 68.6667 185.727 75 185.727 81.8V130.6C185.727 133 184.527 135 182.127 136.6C179.727 138.2 176.727 139 173.127 139C169.793 139 166.993 138.2 164.727 136.6C162.593 135 161.527 133 161.527 130.6V125C157.927 129.133 153.66 132.8 148.727 136C143.927 139.2 138.06 140.8 131.127 140.8ZM141.527 121.6C144.327 121.6 147.127 120.667 149.927 118.8C152.727 116.933 155.06 114.533 156.927 111.6C158.927 108.667 159.927 105.6 159.927 102.4V98.2H156.927C152.527 98.2 148.327 98.4667 144.327 99C140.327 99.5333 137.06 100.733 134.527 102.6C132.127 104.333 130.927 107.067 130.927 110.8C130.927 114.533 131.927 117.267 133.927 119C136.06 120.733 138.593 121.6 141.527 121.6ZM223.667 139C219.934 139 216.867 138.133 214.467 136.4C212.067 134.667 210.867 132.733 210.867 130.6V52C210.867 49.6 212.067 47.6667 214.467 46.2C216.867 44.7333 219.934 44 223.667 44C226.867 44 229.534 44.7333 231.667 46.2C233.934 47.6667 235.067 49.6 235.067 52V58C237.334 54.1333 240.667 50.6667 245.067 47.6C249.467 44.4 255.001 42.8 261.667 42.8C267.401 42.8 272.467 44.6667 276.867 48.4C281.267 52.1333 284.534 56.9333 286.667 62.8C290.134 56 294.534 51 299.867 47.8C305.334 44.4667 310.934 42.8 316.667 42.8C322.801 42.8 328.534 44.4 333.867 47.6C339.334 50.6667 343.734 55.2667 347.067 61.4C350.534 67.4 352.267 74.7333 352.267 83.4V130.6C352.267 132.733 351.001 134.667 348.467 136.4C345.934 138.133 342.867 139 339.267 139C335.801 139 332.801 138.133 330.267 136.4C327.734 134.667 326.467 132.733 326.467 130.6V83.4C326.467 79.4 325.667 76.0667 324.067 73.4C322.601 70.7333 320.601 68.7333 318.067 67.4C315.534 65.9333 312.934 65.2 310.267 65.2C307.734 65.2 305.267 65.9333 302.867 67.4C300.467 68.7333 298.467 70.7333 296.867 73.4C295.267 76.0667 294.467 79.3333 294.467 83.2V130.8C294.467 133.733 293.067 135.867 290.267 137.2C287.601 138.4 284.667 139 281.467 139C278.534 139 275.667 138.4 272.867 137.2C270.067 135.867 268.667 133.733 268.667 130.8V83.4C268.667 79.6667 267.867 76.4667 266.267 73.8C264.801 71.1333 262.801 69.0667 260.267 67.6C257.867 66.1333 255.267 65.4 252.467 65.4C249.801 65.4 247.267 66.0667 244.867 67.4C242.467 68.7333 240.467 70.7333 238.867 73.4C237.401 76.0667 236.667 79.4 236.667 83.4V130.6C236.667 132.733 235.401 134.667 232.867 136.4C230.334 138.133 227.267 139 223.667 139ZM422.214 140.8C412.747 140.8 404.347 139.133 397.014 135.8C389.814 132.333 384.147 127.533 380.014 121.4C375.881 115.133 373.814 107.933 373.814 99.8V82.8C373.814 75.6 375.747 69 379.614 63C383.614 56.8667 388.881 52 395.414 48.4C402.081 44.6667 409.481 42.8 417.614 42.8C425.081 42.8 431.881 44.4 438.014 47.6C444.281 50.8 449.347 55.2 453.214 60.8C457.081 66.4 459.014 72.9333 459.014 80.4C459.014 86.1333 458.081 90.2667 456.214 92.8C454.347 95.2 451.947 96.7333 449.014 97.4C446.214 97.9333 443.281 98.2 440.214 98.2H399.614V101.2C399.614 106.933 401.747 111.6 406.014 115.2C410.414 118.667 416.081 120.4 423.014 120.4C427.414 120.4 431.081 119.733 434.014 118.4C436.947 117.067 439.481 115.8 441.614 114.6C443.747 113.4 445.747 112.8 447.614 112.8C449.614 112.8 451.347 113.467 452.814 114.8C454.281 116.133 455.414 117.733 456.214 119.6C457.014 121.333 457.414 122.867 457.414 124.2C457.414 126.467 455.947 128.933 453.014 131.6C450.214 134.133 446.147 136.333 440.814 138.2C435.614 139.933 429.414 140.8 422.214 140.8ZM399.614 83H428.814C431.081 83 432.614 82.6667 433.414 82C434.347 81.2 434.814 79.7333 434.814 77.6C434.814 74.5333 433.947 71.8 432.214 69.4C430.614 67 428.481 65.1333 425.814 63.8C423.281 62.4667 420.414 61.8 417.214 61.8C414.147 61.8 411.281 62.4667 408.614 63.8C405.947 65 403.747 66.8 402.014 69.2C400.414 71.4667 399.614 74.2 399.614 77.4V83ZM517.084 139C505.084 139 495.884 136.4 489.484 131.2C483.218 126 480.084 117.733 480.084 106.4V9.6C480.084 7.2 481.484 5.26666 484.284 3.79999C487.084 2.33332 489.951 1.59999 492.884 1.59999C496.084 1.59999 499.018 2.33332 501.684 3.79999C504.484 5.26666 505.884 7.2 505.884 9.6V44H529.484C531.618 44 533.218 45 534.284 47C535.484 48.8667 536.084 51 536.084 53.4C536.084 55.8 535.484 58 534.284 60C533.218 61.8667 531.618 62.8 529.484 62.8H505.884V106.4C505.884 110.4 506.684 113.2 508.284 114.8C510.018 116.4 512.951 117.2 517.084 117.2H524.884C528.618 117.2 531.351 118.333 533.084 120.6C534.951 122.867 535.884 125.333 535.884 128C535.884 130.8 534.951 133.333 533.084 135.6C531.351 137.867 528.618 139 524.884 139H517.084ZM575.634 140.8C568.568 140.8 562.434 138.667 557.234 134.4C552.168 130 549.634 123.267 549.634 114.2C549.634 106.6 551.568 100.667 555.434 96.4C559.434 92.1333 564.901 89.1333 571.834 87.4C578.901 85.6667 587.034 84.8 596.234 84.8H604.434V82.2C604.434 79.2667 603.834 76.4 602.634 73.6C601.568 70.8 599.768 68.4667 597.234 66.6C594.834 64.7333 591.368 63.8 586.834 63.8C581.768 63.8 577.834 64.3333 575.034 65.4C572.368 66.3333 570.301 67.3333 568.834 68.4C567.368 69.4667 565.768 70 564.034 70C561.234 70 559.034 68.6 557.434 65.8C555.968 63 555.234 60.1333 555.234 57.2C555.234 54.4 556.901 51.9333 560.234 49.8C563.701 47.5333 567.901 45.8 572.834 44.6C577.768 43.4 582.568 42.8 587.234 42.8C597.634 42.8 605.968 44.6667 612.234 48.4C618.501 52.1333 623.034 56.9333 625.834 62.8C628.768 68.6667 630.234 75 630.234 81.8V130.6C630.234 133 629.034 135 626.634 136.6C624.234 138.2 621.234 139 617.634 139C614.301 139 611.501 138.2 609.234 136.6C607.101 135 606.034 133 606.034 130.6V125C602.434 129.133 598.168 132.8 593.234 136C588.434 139.2 582.568 140.8 575.634 140.8ZM586.034 121.6C588.834 121.6 591.634 120.667 594.434 118.8C597.234 116.933 599.568 114.533 601.434 111.6C603.434 108.667 604.434 105.6 604.434 102.4V98.2H601.434C597.034 98.2 592.834 98.4667 588.834 99C584.834 99.5333 581.568 100.733 579.034 102.6C576.634 104.333 575.434 107.067 575.434 110.8C575.434 114.533 576.434 117.267 578.434 119C580.568 120.733 583.101 121.6 586.034 121.6ZM667.975 139C664.375 139 661.375 138.133 658.975 136.4C656.575 134.667 655.375 132.733 655.375 130.6V52C655.375 49.6 656.575 47.6667 658.975 46.2C661.375 44.7333 664.375 44 667.975 44C671.308 44 674.042 44.7333 676.175 46.2C678.442 47.6667 679.575 49.6 679.575 52V60.2C681.042 57.2667 682.975 54.5333 685.375 52C687.908 49.3333 690.775 47.1333 693.975 45.4C697.175 43.6667 700.575 42.8 704.175 42.8H710.375C712.908 42.8 715.108 43.9333 716.975 46.2C718.842 48.3333 719.775 50.9333 719.775 54C719.775 57.2 718.842 59.9333 716.975 62.2C715.108 64.3333 712.908 65.4 710.375 65.4H704.175C700.442 65.4 696.775 66.6667 693.175 69.2C689.708 71.6 686.842 75 684.575 79.4C682.308 83.6667 681.175 88.8667 681.175 95V130.6C681.175 132.733 679.908 134.667 677.375 136.4C674.842 138.133 671.708 139 667.975 139ZM755.408 140.8C748.341 140.8 742.208 138.667 737.008 134.4C731.941 130 729.408 123.267 729.408 114.2C729.408 106.6 731.341 100.667 735.208 96.4C739.208 92.1333 744.674 89.1333 751.608 87.4C758.674 85.6667 766.808 84.8 776.008 84.8H784.208V82.2C784.208 79.2667 783.608 76.4 782.408 73.6C781.341 70.8 779.541 68.4667 777.008 66.6C774.608 64.7333 771.141 63.8 766.608 63.8C761.541 63.8 757.608 64.3333 754.808 65.4C752.141 66.3333 750.074 67.3333 748.608 68.4C747.141 69.4667 745.541 70 743.808 70C741.008 70 738.808 68.6 737.208 65.8C735.741 63 735.008 60.1333 735.008 57.2C735.008 54.4 736.674 51.9333 740.008 49.8C743.474 47.5333 747.674 45.8 752.608 44.6C757.541 43.4 762.341 42.8 767.008 42.8C777.408 42.8 785.741 44.6667 792.008 48.4C798.274 52.1333 802.808 56.9333 805.608 62.8C808.541 68.6667 810.008 75 810.008 81.8V130.6C810.008 133 808.808 135 806.408 136.6C804.008 138.2 801.008 139 797.408 139C794.074 139 791.274 138.2 789.008 136.6C786.874 135 785.808 133 785.808 130.6V125C782.208 129.133 777.941 132.8 773.008 136C768.208 139.2 762.341 140.8 755.408 140.8ZM765.808 121.6C768.608 121.6 771.408 120.667 774.208 118.8C777.008 116.933 779.341 114.533 781.208 111.6C783.208 108.667 784.208 105.6 784.208 102.4V98.2H781.208C776.808 98.2 772.608 98.4667 768.608 99C764.608 99.5333 761.341 100.733 758.808 102.6C756.408 104.333 755.208 107.067 755.208 110.8C755.208 114.533 756.208 117.267 758.208 119C760.341 120.733 762.874 121.6 765.808 121.6Z" fill="#24504B"/>
<path d="M843.239 110.788C837.766 74.9112 848.237 36.2793 927.218 36.3908C943.419 71.2261 952.46 138.853 859.019 130.68L875.462 107.946M912.52 56.7117L891.906 85.2125M891.906 85.2125L919.026 80.7302M891.906 85.2125L875.462 107.946M875.462 107.946L906.056 104.012" stroke="#24504B" stroke-width="12" stroke-linecap="round" stroke-linejoin="round"/>
</svg>
