<svg width="994" height="245" viewBox="0 0 994 245" fill="none" xmlns="http://www.w3.org/2000/svg">
<path d="M32.8 244.2C29.4667 244.2 26.6667 243.533 24.4 242.2C22.1333 241 21 238 21 233.2C21 230.267 21.4667 227.733 22.4 225.6C23.4667 223.467 25.2 222.4 27.6 222.4C29.8667 222.4 32.4667 222 35.4 221.2C38.4667 220.4 41.5333 218.867 44.6 216.6C47.6667 214.467 50.2667 211.467 52.4 207.6C54.5333 203.867 55.8 199 56.2 193L21.8 119.4C21.2667 118.2 21 117.067 21 116C21 113.733 21.9333 111.667 23.8 109.8C25.8 107.933 28.1333 106.467 30.8 105.4C33.4667 104.2 35.9333 103.6 38.2 103.6C39.8 103.6 41.2667 103.933 42.6 104.6C44.0667 105.267 45.0667 106.4 45.6 108L69.6 167.8L88.8 108C89.4667 106.4 90.4667 105.267 91.8 104.6C93.1333 103.933 94.4667 103.6 95.8 103.6C97.8 103.6 100.2 104.2 103 105.4C105.8 106.467 108.2 108 110.2 110C112.333 111.867 113.4 114 113.4 116.4C113.4 117.6 113.2 118.6 112.8 119.4L83.6 194C81.2 200 78.8667 205.933 76.6 211.8C74.3333 217.8 71.4667 223.2 68 228C64.6667 232.933 60.2 236.867 54.6 239.8C49 242.733 41.7333 244.2 32.8 244.2ZM151.127 201.8C144.06 201.8 137.927 199.667 132.727 195.4C127.66 191 125.127 184.267 125.127 175.2C125.127 167.6 127.06 161.667 130.927 157.4C134.927 153.133 140.393 150.133 147.327 148.4C154.393 146.667 162.527 145.8 171.727 145.8H179.927V143.2C179.927 140.267 179.327 137.4 178.127 134.6C177.06 131.8 175.26 129.467 172.727 127.6C170.327 125.733 166.86 124.8 162.327 124.8C157.26 124.8 153.327 125.333 150.527 126.4C147.86 127.333 145.793 128.333 144.327 129.4C142.86 130.467 141.26 131 139.527 131C136.727 131 134.527 129.6 132.927 126.8C131.46 124 130.727 121.133 130.727 118.2C130.727 115.4 132.393 112.933 135.727 110.8C139.193 108.533 143.393 106.8 148.327 105.6C153.26 104.4 158.06 103.8 162.727 103.8C173.127 103.8 181.46 105.667 187.727 109.4C193.993 113.133 198.527 117.933 201.327 123.8C204.26 129.667 205.727 136 205.727 142.8V191.6C205.727 194 204.527 196 202.127 197.6C199.727 199.2 196.727 200 193.127 200C189.793 200 186.993 199.2 184.727 197.6C182.593 196 181.527 194 181.527 191.6V186C177.927 190.133 173.66 193.8 168.727 197C163.927 200.2 158.06 201.8 151.127 201.8ZM161.527 182.6C164.327 182.6 167.127 181.667 169.927 179.8C172.727 177.933 175.06 175.533 176.927 172.6C178.927 169.667 179.927 166.6 179.927 163.4V159.2H176.927C172.527 159.2 168.327 159.467 164.327 160C160.327 160.533 157.06 161.733 154.527 163.6C152.127 165.333 150.927 168.067 150.927 171.8C150.927 175.533 151.927 178.267 153.927 180C156.06 181.733 158.593 182.6 161.527 182.6ZM243.667 200C239.934 200 236.867 199.133 234.467 197.4C232.067 195.667 230.867 193.733 230.867 191.6V113C230.867 110.6 232.067 108.667 234.467 107.2C236.867 105.733 239.934 105 243.667 105C246.867 105 249.534 105.733 251.667 107.2C253.934 108.667 255.067 110.6 255.067 113V119C257.334 115.133 260.667 111.667 265.067 108.6C269.467 105.4 275.001 103.8 281.667 103.8C287.401 103.8 292.467 105.667 296.867 109.4C301.267 113.133 304.534 117.933 306.667 123.8C310.134 117 314.534 112 319.867 108.8C325.334 105.467 330.934 103.8 336.667 103.8C342.801 103.8 348.534 105.4 353.867 108.6C359.334 111.667 363.734 116.267 367.067 122.4C370.534 128.4 372.267 135.733 372.267 144.4V191.6C372.267 193.733 371.001 195.667 368.467 197.4C365.934 199.133 362.867 200 359.267 200C355.801 200 352.801 199.133 350.267 197.4C347.734 195.667 346.467 193.733 346.467 191.6V144.4C346.467 140.4 345.667 137.067 344.067 134.4C342.601 131.733 340.601 129.733 338.067 128.4C335.534 126.933 332.934 126.2 330.267 126.2C327.734 126.2 325.267 126.933 322.867 128.4C320.467 129.733 318.467 131.733 316.867 134.4C315.267 137.067 314.467 140.333 314.467 144.2V191.8C314.467 194.733 313.067 196.867 310.267 198.2C307.601 199.4 304.667 200 301.467 200C298.534 200 295.667 199.4 292.867 198.2C290.067 196.867 288.667 194.733 288.667 191.8V144.4C288.667 140.667 287.867 137.467 286.267 134.8C284.801 132.133 282.801 130.067 280.267 128.6C277.867 127.133 275.267 126.4 272.467 126.4C269.801 126.4 267.267 127.067 264.867 128.4C262.467 129.733 260.467 131.733 258.867 134.4C257.401 137.067 256.667 140.4 256.667 144.4V191.6C256.667 193.733 255.401 195.667 252.867 197.4C250.334 199.133 247.267 200 243.667 200ZM442.214 201.8C432.747 201.8 424.347 200.133 417.014 196.8C409.814 193.333 404.147 188.533 400.014 182.4C395.881 176.133 393.814 168.933 393.814 160.8V143.8C393.814 136.6 395.747 130 399.614 124C403.614 117.867 408.881 113 415.414 109.4C422.081 105.667 429.481 103.8 437.614 103.8C445.081 103.8 451.881 105.4 458.014 108.6C464.281 111.8 469.347 116.2 473.214 121.8C477.081 127.4 479.014 133.933 479.014 141.4C479.014 147.133 478.081 151.267 476.214 153.8C474.347 156.2 471.947 157.733 469.014 158.4C466.214 158.933 463.281 159.2 460.214 159.2H419.614V162.2C419.614 167.933 421.747 172.6 426.014 176.2C430.414 179.667 436.081 181.4 443.014 181.4C447.414 181.4 451.081 180.733 454.014 179.4C456.947 178.067 459.481 176.8 461.614 175.6C463.747 174.4 465.747 173.8 467.614 173.8C469.614 173.8 471.347 174.467 472.814 175.8C474.281 177.133 475.414 178.733 476.214 180.6C477.014 182.333 477.414 183.867 477.414 185.2C477.414 187.467 475.947 189.933 473.014 192.6C470.214 195.133 466.147 197.333 460.814 199.2C455.614 200.933 449.414 201.8 442.214 201.8ZM419.614 144H448.814C451.081 144 452.614 143.667 453.414 143C454.347 142.2 454.814 140.733 454.814 138.6C454.814 135.533 453.947 132.8 452.214 130.4C450.614 128 448.481 126.133 445.814 124.8C443.281 123.467 440.414 122.8 437.214 122.8C434.147 122.8 431.281 123.467 428.614 124.8C425.947 126 423.747 127.8 422.014 130.2C420.414 132.467 419.614 135.2 419.614 138.4V144ZM537.084 200C525.084 200 515.884 197.4 509.484 192.2C503.218 187 500.084 178.733 500.084 167.4V70.6C500.084 68.2 501.484 66.2667 504.284 64.8C507.084 63.3333 509.951 62.6 512.884 62.6C516.084 62.6 519.018 63.3333 521.684 64.8C524.484 66.2667 525.884 68.2 525.884 70.6V105H549.484C551.618 105 553.218 106 554.284 108C555.484 109.867 556.084 112 556.084 114.4C556.084 116.8 555.484 119 554.284 121C553.218 122.867 551.618 123.8 549.484 123.8H525.884V167.4C525.884 171.4 526.684 174.2 528.284 175.8C530.018 177.4 532.951 178.2 537.084 178.2H544.884C548.618 178.2 551.351 179.333 553.084 181.6C554.951 183.867 555.884 186.333 555.884 189C555.884 191.8 554.951 194.333 553.084 196.6C551.351 198.867 548.618 200 544.884 200H537.084ZM595.634 201.8C588.568 201.8 582.434 199.667 577.234 195.4C572.168 191 569.634 184.267 569.634 175.2C569.634 167.6 571.568 161.667 575.434 157.4C579.434 153.133 584.901 150.133 591.834 148.4C598.901 146.667 607.034 145.8 616.234 145.8H624.434V143.2C624.434 140.267 623.834 137.4 622.634 134.6C621.568 131.8 619.768 129.467 617.234 127.6C614.834 125.733 611.368 124.8 606.834 124.8C601.768 124.8 597.834 125.333 595.034 126.4C592.368 127.333 590.301 128.333 588.834 129.4C587.368 130.467 585.768 131 584.034 131C581.234 131 579.034 129.6 577.434 126.8C575.968 124 575.234 121.133 575.234 118.2C575.234 115.4 576.901 112.933 580.234 110.8C583.701 108.533 587.901 106.8 592.834 105.6C597.768 104.4 602.568 103.8 607.234 103.8C617.634 103.8 625.968 105.667 632.234 109.4C638.501 113.133 643.034 117.933 645.834 123.8C648.768 129.667 650.234 136 650.234 142.8V191.6C650.234 194 649.034 196 646.634 197.6C644.234 199.2 641.234 200 637.634 200C634.301 200 631.501 199.2 629.234 197.6C627.101 196 626.034 194 626.034 191.6V186C622.434 190.133 618.168 193.8 613.234 197C608.434 200.2 602.568 201.8 595.634 201.8ZM606.034 182.6C608.834 182.6 611.634 181.667 614.434 179.8C617.234 177.933 619.568 175.533 621.434 172.6C623.434 169.667 624.434 166.6 624.434 163.4V159.2H621.434C617.034 159.2 612.834 159.467 608.834 160C604.834 160.533 601.568 161.733 599.034 163.6C596.634 165.333 595.434 168.067 595.434 171.8C595.434 175.533 596.434 178.267 598.434 180C600.568 181.733 603.101 182.6 606.034 182.6ZM687.975 200C684.375 200 681.375 199.133 678.975 197.4C676.575 195.667 675.375 193.733 675.375 191.6V113C675.375 110.6 676.575 108.667 678.975 107.2C681.375 105.733 684.375 105 687.975 105C691.308 105 694.042 105.733 696.175 107.2C698.442 108.667 699.575 110.6 699.575 113V121.2C701.042 118.267 702.975 115.533 705.375 113C707.908 110.333 710.775 108.133 713.975 106.4C717.175 104.667 720.575 103.8 724.175 103.8H730.375C732.908 103.8 735.108 104.933 736.975 107.2C738.842 109.333 739.775 111.933 739.775 115C739.775 118.2 738.842 120.933 736.975 123.2C735.108 125.333 732.908 126.4 730.375 126.4H724.175C720.442 126.4 716.775 127.667 713.175 130.2C709.708 132.6 706.842 136 704.575 140.4C702.308 144.667 701.175 149.867 701.175 156V191.6C701.175 193.733 699.908 195.667 697.375 197.4C694.842 199.133 691.708 200 687.975 200ZM775.408 201.8C768.341 201.8 762.208 199.667 757.008 195.4C751.941 191 749.408 184.267 749.408 175.2C749.408 167.6 751.341 161.667 755.208 157.4C759.208 153.133 764.674 150.133 771.608 148.4C778.674 146.667 786.808 145.8 796.008 145.8H804.208V143.2C804.208 140.267 803.608 137.4 802.408 134.6C801.341 131.8 799.541 129.467 797.008 127.6C794.608 125.733 791.141 124.8 786.608 124.8C781.541 124.8 777.608 125.333 774.808 126.4C772.141 127.333 770.074 128.333 768.608 129.4C767.141 130.467 765.541 131 763.808 131C761.008 131 758.808 129.6 757.208 126.8C755.741 124 755.008 121.133 755.008 118.2C755.008 115.4 756.674 112.933 760.008 110.8C763.474 108.533 767.674 106.8 772.608 105.6C777.541 104.4 782.341 103.8 787.008 103.8C797.408 103.8 805.741 105.667 812.008 109.4C818.274 113.133 822.808 117.933 825.608 123.8C828.541 129.667 830.008 136 830.008 142.8V191.6C830.008 194 828.808 196 826.408 197.6C824.008 199.2 821.008 200 817.408 200C814.074 200 811.274 199.2 809.008 197.6C806.874 196 805.808 194 805.808 191.6V186C802.208 190.133 797.941 193.8 793.008 197C788.208 200.2 782.341 201.8 775.408 201.8ZM785.808 182.6C788.608 182.6 791.408 181.667 794.208 179.8C797.008 177.933 799.341 175.533 801.208 172.6C803.208 169.667 804.208 166.6 804.208 163.4V159.2H801.208C796.808 159.2 792.608 159.467 788.608 160C784.608 160.533 781.341 161.733 778.808 163.6C776.408 165.333 775.208 168.067 775.208 171.8C775.208 175.533 776.208 178.267 778.208 180C780.341 181.733 782.874 182.6 785.808 182.6Z" fill="#45D79D"/>
<path d="M871.717 170.466C864.914 132.179 874.18 91.4831 954.256 94.1673C971.898 131.697 983.427 203.827 888.41 192.109L904.286 168.495M940.065 115.275L920.161 144.88M920.161 144.88L947.5 141M920.161 144.88L904.286 168.495M904.286 168.495L935.164 165.31" stroke="#8FFF00" stroke-width="12" stroke-linecap="round" stroke-linejoin="round"/>
</svg>
