<svg width="994" height="236" viewBox="0 0 994 236" fill="none" xmlns="http://www.w3.org/2000/svg">
<path d="M115.208 229.632L115.592 232.44C119.912 232.272 126.248 231.984 132.128 231.648L132.224 229.008C126.176 229.272 119.504 229.512 115.208 229.632ZM115.088 222.48V225.168H135.056V222.48H115.088ZM119.36 217.872V220.512H130.616V217.872H119.36ZM120.968 224.232C120.368 226.248 119.216 228.912 118.232 230.664L120.752 231.504C121.832 229.896 123.128 227.4 124.256 225.144L120.968 224.232ZM126.92 226.704C128.984 228.624 131.288 231.36 132.296 233.184L134.96 231.576C133.856 229.752 131.624 227.232 129.464 225.384L126.92 226.704ZM124.976 213.432C127.016 216.216 131.072 219.24 134.672 220.92C135.2 220.056 135.848 219.024 136.544 218.304C132.728 216.936 128.912 214.2 126.368 210.672H123.32C121.544 213.504 117.704 216.936 113.6 218.736C114.2 219.36 114.968 220.44 115.304 221.136C119.288 219.24 123.032 216.168 124.976 213.432ZM151.136 229.656V232.488H164.816V229.656H151.136ZM152.12 218.064V220.824H164.24V218.064H152.12ZM156.704 210.864V231.024H159.656V210.864H156.704ZM142.52 215.064V217.68H150.392V215.064H142.52ZM145.952 223.272V233.184H148.808V219.864L145.952 223.272ZM145.952 210.648V216.288H148.808V210.648H145.952ZM148.52 220.68L146.936 222.072C148.016 223.128 150.032 225.336 150.968 226.584L152.72 224.256C152.072 223.656 149.36 221.256 148.52 220.68ZM149.336 215.064V215.592C148.064 219.12 144.896 222.648 141.632 224.424C142.064 224.976 142.736 226.392 143 227.16C146.576 224.904 150.2 220.704 152.024 216.024L150.416 214.968L149.912 215.064H149.336ZM181.304 211.752L178.136 211.488C178.064 212.712 177.752 214.176 177.272 215.472C176.264 218.112 174.416 220.704 171.344 223.536L173.912 225.456C174.728 224.4 175.4 223.536 176.12 222.816C177.032 221.952 178.544 221.16 179.864 221.16C180.872 221.16 181.832 221.664 181.832 223.2C181.856 224.496 181.808 226.536 181.712 227.664H184.592C184.568 226.152 184.496 223.536 184.496 222.24C184.496 220.008 182.984 218.832 180.992 218.832C180.176 218.832 178.904 219 178.256 219.288C178.928 218.328 179.624 216.96 180.128 215.784C180.8 214.056 181.112 212.64 181.304 211.752ZM172.256 213.984V216.768C173.576 216.888 175.328 216.936 176.312 216.936C179.24 216.936 184.064 216.72 187.448 216.24L187.472 213.456C183.992 214.08 179.648 214.248 176.48 214.248C175.256 214.248 173.48 214.152 172.256 213.984ZM191.264 220.8L190.088 217.992C189.176 218.448 188.336 218.832 187.4 219.24C185.96 219.912 184.448 220.488 182.24 221.64C179.36 223.08 175.928 225.048 175.928 228.384C175.928 231.48 178.736 232.416 182.48 232.416C184.76 232.416 187.688 232.2 189.296 231.984L189.392 228.888C187.28 229.32 184.592 229.584 182.552 229.584C180.224 229.584 179.072 229.224 179.072 227.904C179.072 226.584 180.248 225.552 182.432 224.424C184.688 223.272 186.848 222.408 188.408 221.808C189.224 221.496 190.52 221.016 191.264 220.8ZM199.52 223.344V232.824H202.088V225.912H205.808V232.152H208.496V223.344H199.52ZM206.96 210.768C204.92 211.584 201.584 212.28 198.56 212.688C198.896 213.288 199.28 214.272 199.376 214.92C202.544 214.56 206.24 213.936 209 212.976L206.96 210.768ZM202.568 213.48V224.496H205.328V213.48H202.568ZM213.416 210.6V214.272H216.344V210.6H213.416ZM213.56 222V233.16H216.464V222H213.56ZM198.656 217.56V220.248H209.096V217.56H198.656ZM209.312 213.192V215.808H220.928V213.192H209.312ZM209.216 225.096V227.736H220.808V225.096H209.216ZM208.76 220.104V222.768H221.264V220.104H208.76ZM200.72 228.888V231.456H207.224V228.888H200.72ZM210.296 216.456C210.824 217.704 211.304 219.408 211.4 220.488L213.896 219.744C213.752 218.64 213.248 217.032 212.648 215.808L210.296 216.456ZM217.16 215.712C216.896 216.936 216.32 218.64 215.84 219.744L218.192 220.368C218.696 219.336 219.32 217.8 219.896 216.312L217.16 215.712ZM243.056 212.184L239.72 211.872C239.744 212.448 239.672 213.456 239.552 214.152C239.048 217.104 237.656 221.52 235.808 224.232C234.56 226.128 233.24 227.664 231.992 227.664C231.152 227.664 230.648 226.92 230.648 225.744C230.648 223.776 231.752 221.424 233.624 220.104C235.304 218.88 237.248 217.968 239.744 217.968C243.2 217.968 245.432 220.224 245.432 223.488C245.432 226.488 243.368 229.176 238.088 229.632L239.912 232.416C244.928 231.648 248.552 228.72 248.552 223.632C248.552 218.64 245 215.304 240.056 215.304C237.488 215.304 235.064 215.904 232.496 217.56C229.688 219.36 227.84 222.792 227.84 226.008C227.84 229.104 229.664 230.784 231.656 230.784C233.864 230.784 235.4 229.536 237.608 226.752C239.912 223.848 241.472 218.856 242.48 214.608C242.624 214.032 242.84 212.856 243.056 212.184ZM232.928 212.976L229.76 213.984C230.192 214.848 230.48 215.616 230.744 216.456C231.848 220.008 233.288 223.848 234.752 225.984C235.52 227.208 236.24 228.12 237.176 229.176L239.624 227.232C238.496 226.176 237.368 224.664 236.552 223.368C235.448 221.64 234.176 217.968 233.432 215.28C233.24 214.584 233.048 213.792 232.928 212.976ZM265.952 211.848L262.28 211.56C262.352 212.136 262.328 213.12 262.208 214.008C262.04 215.424 261.488 218.064 260.888 220.32C259.976 223.68 258.152 228.696 256.736 231.12L260.072 232.248C261.392 229.392 263 224.496 263.864 221.136C264.512 218.688 265.112 215.76 265.448 214.128C265.568 213.6 265.784 212.52 265.952 211.848ZM259.832 215.448C258.848 215.448 258.056 215.4 256.808 215.256L256.904 218.256C257.744 218.304 258.632 218.352 259.808 218.352C262.52 218.352 266.288 217.944 269.264 217.248V214.248C266.144 214.992 262.76 215.448 259.832 215.448ZM267.368 219.12V221.928C268.88 221.736 270.368 221.664 272.024 221.664C273.464 221.664 274.928 221.832 276.152 221.976L276.2 219.096C274.808 218.952 273.368 218.88 272 218.88C270.44 218.88 268.712 218.976 267.368 219.12ZM268.664 225.144L265.808 224.88C265.616 225.816 265.4 226.968 265.4 228.096C265.4 230.52 267.56 231.888 271.616 231.888C273.536 231.888 275.144 231.744 276.488 231.552L276.608 228.504C274.904 228.816 273.248 228.984 271.64 228.984C269.048 228.984 268.352 228.192 268.352 227.136C268.352 226.608 268.496 225.84 268.664 225.144ZM296.048 220.584C294.776 222.912 292.4 224.976 289.904 226.224C290.48 226.728 291.392 227.832 291.776 228.384C294.416 226.8 297.056 224.256 298.64 221.4L296.048 220.584ZM296.36 210.528C295.568 211.896 294.128 213.72 293 214.872L294.968 216C296.12 214.944 297.584 213.336 298.856 211.824L296.36 210.528ZM300.848 212.304C298.856 214.896 295.544 218.16 292.88 220.2L294.776 221.448C297.464 219.504 300.848 216.432 303.416 213.72L300.848 212.304ZM290.72 215.016C292.52 216.192 294.68 217.968 295.664 219.192L297.488 217.128C296.456 215.88 294.2 214.248 292.448 213.144L290.72 215.016ZM300.584 217.68C302 219.336 303.488 221.64 304.064 223.104L306.488 221.736C305.84 220.224 304.232 218.04 302.816 216.48L300.584 217.68ZM290.24 219.384L290.456 221.928C294.056 221.832 299.216 221.664 304.088 221.496L304.184 219.192C299.12 219.288 293.72 219.36 290.24 219.384ZM295.232 224.544L292.904 225.288C295.304 229.488 299.264 232.128 304.784 233.232C305.144 232.488 305.888 231.384 306.488 230.784C301.232 229.968 297.176 227.784 295.232 224.544ZM295.832 223.104L293.912 225.264H302.288V223.104H295.832ZM301.352 223.104V223.512C299.768 227.496 295.184 229.944 289.904 230.856C290.408 231.432 291.032 232.56 291.272 233.28C297.104 231.96 302.024 229.2 304.16 223.8L302.36 223.008L301.904 223.104H301.352ZM288.656 215.784C287.408 218.16 285.32 220.488 283.28 221.976C283.76 222.6 284.528 224.04 284.792 224.664C287.144 222.72 289.64 219.648 291.2 216.72L288.656 215.784ZM288.224 210.624C287.24 212.208 285.224 214.224 283.496 215.424C283.952 215.952 284.648 216.96 285.008 217.536C287.024 216.048 289.28 213.72 290.768 211.632L288.224 210.624ZM286.688 220.968V233.208H289.376V218.64L289.136 218.52L286.688 220.968ZM325.424 214.56L322.136 214.464C321.896 216.984 321.368 219.744 320.672 222C319.664 225.24 318.752 226.776 317.72 226.776C316.808 226.776 315.848 225.6 315.848 223.176C315.848 220.152 318.632 216 323.72 216C327.872 216 330.224 218.688 330.224 222.456C330.224 225.984 327.824 228.168 324.776 228.912C324.128 229.056 323.456 229.176 322.52 229.296L324.344 232.128C330.392 231.192 333.488 227.616 333.488 222.576C333.488 217.32 329.72 213.192 323.792 213.192C317.576 213.192 312.752 217.944 312.752 223.464C312.752 227.52 314.96 230.472 317.648 230.472C320.264 230.472 322.328 227.496 323.768 222.648C324.608 219.816 325.088 217.008 325.424 214.56ZM358.328 210.576C354.392 211.632 347.768 212.256 341.984 212.496C342.248 213.12 342.608 214.296 342.68 215.016C348.56 214.824 355.472 214.224 360.416 212.952L358.328 210.576ZM342.2 217.392V220.152H361.184V217.392H342.2ZM340.544 222.984V225.792H362.6V222.984H340.544ZM350.096 213.96V229.68C350.096 230.16 349.88 230.328 349.328 230.328C348.776 230.328 346.76 230.352 344.984 230.28C345.416 231.024 345.968 232.32 346.16 233.136C348.608 233.16 350.36 233.088 351.512 232.632C352.664 232.2 353.096 231.432 353.096 229.728V213.96H350.096ZM382.808 210.6V217.392H385.664V210.6H382.808ZM377.816 212.496V214.824H390.776V212.496H377.816ZM378.68 216.24V218.592H390.056V216.24H378.68ZM377.744 219.672V224.448H380.144V221.904H388.496V224.448H390.992V219.672H377.744ZM384.944 223.104V229.752C384.944 232.152 385.4 232.944 387.464 232.944C387.824 232.944 388.616 232.944 389 232.944C390.656 232.944 391.304 232.008 391.52 228.576C390.824 228.384 389.72 227.976 389.216 227.52C389.168 230.136 389.072 230.52 388.712 230.52C388.544 230.52 388.04 230.52 387.92 230.52C387.584 230.52 387.536 230.424 387.536 229.728V223.104H384.944ZM380.624 223.104V224.976C380.624 226.752 380.096 229.392 376.112 231.264C376.76 231.768 377.648 232.608 378.08 233.184C382.568 231 383.216 227.52 383.216 225.048V223.104H380.624ZM372.176 210.648C371.624 212.304 370.592 214.632 369.752 216.072L371.672 216.864C372.584 215.52 373.688 213.384 374.672 211.512L372.176 210.648ZM374.888 213.48C373.616 216.048 371.432 219.552 369.632 221.712L371.288 222.648C373.136 220.584 375.464 217.248 377.216 214.56L374.888 213.48ZM368.456 216.24C369.656 217.464 371.072 219.168 371.6 220.344L373.16 218.136C372.584 217.008 371.12 215.448 369.872 214.32L368.456 216.24ZM374.072 219.24C374.96 220.896 375.8 223.104 376.064 224.496L378.224 223.512C377.936 222.144 377.024 220.032 376.064 218.4L374.072 219.24ZM368.384 221.16L368.696 223.632C370.928 223.464 373.856 223.248 376.664 223.032L376.64 220.68C373.64 220.872 370.544 221.04 368.384 221.16ZM374.72 225.264C375.248 226.632 375.704 228.408 375.824 229.584L377.96 228.888C377.792 227.736 377.312 225.984 376.736 224.64L374.72 225.264ZM369.416 224.736C369.224 226.752 368.864 228.912 368.192 230.328C368.744 230.568 369.8 231.024 370.28 231.336C370.976 229.8 371.48 227.424 371.72 225.12L369.416 224.736ZM372.056 222.432V233.16H374.528V222.432H372.056ZM400.136 213.792L400.304 216.528C403.952 216.888 407.264 216.864 409.736 216.672C411.824 216.528 413.912 216.12 415.64 215.64L415.256 212.904C413.264 213.528 411.296 213.912 409.112 214.056C406.568 214.248 403.64 214.2 400.136 213.792ZM399.704 218.808L399.872 221.64C404.192 221.928 408.872 221.856 411.896 221.52C413.84 221.304 415.616 220.968 417.056 220.608L416.576 217.776C415.184 218.184 413.384 218.664 410.792 218.88C407.912 219.168 404.024 219.24 399.704 218.808ZM407.72 214.464C408.032 215.616 408.272 216.48 408.872 218.184C409.472 219.936 410.36 222.024 411.632 224.16C410.936 224.088 409.616 223.968 408.608 223.872L408.368 226.176C410.12 226.368 412.736 226.656 414.08 226.944L415.52 224.736C415.088 224.328 414.776 223.968 414.44 223.488C413.336 221.808 412.16 219.336 411.584 217.656C410.96 215.808 410.36 213.696 410.072 211.392L406.856 211.752C407.192 212.688 407.48 213.576 407.72 214.464ZM404.312 224.4L401.336 223.824C400.76 224.952 400.256 226.128 400.28 227.688C400.352 231.096 403.328 232.512 408.104 232.512C410.072 232.512 412.28 232.344 413.96 232.08L414.128 229.032C412.4 229.368 410.36 229.536 408.104 229.536C404.912 229.536 403.232 228.816 403.232 227.04C403.232 226.008 403.736 225.192 404.312 224.4ZM425.72 227.688H429.464V231H425.72V227.688ZM431.864 227.688H435.608V231H431.864V227.688ZM438.008 227.688H441.752V231H438.008V227.688ZM465.814 217.728L464.302 214.896C463.678 215.424 462.982 215.832 462.094 216.36C460.606 217.2 458.158 218.4 455.878 219.888C453.046 221.76 450.838 223.896 450.838 226.944C450.838 231.072 454.438 232.416 459.238 232.416C462.358 232.416 464.902 232.176 466.942 231.816L466.99 228.36C464.854 228.864 461.614 229.248 459.142 229.248C455.806 229.248 454.15 228.312 454.15 226.584C454.15 224.928 455.494 223.536 457.486 222.24C459.67 220.8 461.926 219.768 463.438 219C464.302 218.568 465.07 218.16 465.814 217.728ZM454.486 212.232L451.462 213.48C452.806 216.576 454.246 219.72 455.542 221.904L458.278 220.296C457.15 218.328 455.662 215.424 454.486 212.232ZM466.102 211.872L464.182 212.664C464.854 213.576 465.574 215.016 466.078 216L467.998 215.16C467.542 214.272 466.702 212.76 466.102 211.872ZM468.934 210.792L467.038 211.56C467.71 212.472 468.478 213.888 468.982 214.872L470.878 214.056C470.446 213.216 469.558 211.68 468.934 210.792ZM480.063 213.576V216.744C482.031 216.888 484.119 217.008 486.615 217.008C488.919 217.008 491.871 216.864 493.551 216.72V213.528C491.727 213.72 488.967 213.864 486.615 213.864C484.071 213.864 481.839 213.768 480.063 213.576ZM482.079 223.728L478.935 223.44C478.767 224.352 478.455 225.528 478.455 226.896C478.455 230.208 481.239 232.032 486.711 232.032C490.071 232.032 492.951 231.72 495.063 231.24L495.039 227.856C492.903 228.456 489.831 228.816 486.615 228.816C483.159 228.816 481.671 227.688 481.671 226.176C481.671 225.36 481.863 224.592 482.079 223.728ZM504.831 214.56L505.143 217.848C507.903 217.248 512.823 216.72 515.055 216.48C513.447 217.704 511.503 220.44 511.503 223.872C511.503 229.08 516.255 231.792 521.271 232.104L522.399 228.816C518.343 228.624 514.647 227.184 514.647 223.248C514.647 220.392 516.831 217.272 519.711 216.504C521.007 216.216 523.071 216.192 524.367 216.192L524.343 213.096C522.639 213.168 520.023 213.336 517.527 213.528C513.135 213.912 509.175 214.248 507.183 214.44C506.727 214.488 505.767 214.536 504.831 214.56ZM520.935 218.544L519.159 219.288C519.903 220.344 520.407 221.304 521.031 222.6L522.831 221.808C522.375 220.848 521.511 219.384 520.935 218.544ZM523.599 217.44L521.871 218.232C522.639 219.288 523.191 220.2 523.839 221.496L525.639 220.632C525.135 219.696 524.223 218.28 523.599 217.44ZM536.654 232.656L539.222 230.448C537.998 228.96 535.694 226.608 533.99 225.216L531.47 227.376C533.15 228.816 535.19 230.88 536.654 232.656ZM560.822 215.28L561.038 218.088C562.07 218.136 563.078 218.16 564.038 218.16C567.11 218.184 570.566 217.56 572.63 216.984L572.558 214.2C570.23 214.944 566.99 215.448 564.014 215.448C563.15 215.448 561.854 215.4 560.822 215.28ZM570.158 211.68L566.846 211.368C566.774 213.216 566.246 215.448 565.67 217.176C564.734 219.768 562.574 223.968 560.414 226.608L563.318 228.096C565.358 225.264 567.518 220.8 568.622 217.344C569.27 215.304 569.846 212.952 570.158 211.68ZM575.798 219.168H572.774C572.894 221.688 573.158 226.104 573.158 227.544C573.158 228.888 572.63 229.8 570.998 229.8C569.678 229.8 568.91 229.176 568.91 228.288C568.91 227.448 569.822 226.848 571.214 226.848C574.838 226.848 577.574 229.32 579.302 230.928L580.886 228.336C578.894 226.536 575.582 224.424 571.382 224.424C568.046 224.424 566.078 226.248 566.078 228.576C566.078 231.216 568.43 232.56 571.406 232.56C574.838 232.56 576.038 230.808 576.038 228.576C576.038 227.232 575.822 223.656 575.774 222.24C575.75 221.184 575.726 220.176 575.798 219.168ZM579.926 220.44L581.63 217.896C580.382 217.008 577.43 215.4 575.702 214.656L574.142 217.008C575.798 217.752 578.534 219.312 579.926 220.44ZM597.902 214.224L597.926 217.296C600.926 217.584 605.294 217.584 608.222 217.296V214.2C605.654 214.512 600.854 214.632 597.902 214.224ZM599.822 224.472L597.086 224.232C596.798 225.456 596.654 226.392 596.654 227.352C596.654 229.8 598.646 231.288 602.774 231.288C605.486 231.288 607.43 231.12 608.99 230.808L608.918 227.568C606.83 228.024 605.054 228.216 602.918 228.216C600.47 228.216 599.534 227.568 599.534 226.488C599.534 225.864 599.63 225.288 599.822 224.472ZM594.206 212.616L590.846 212.352C590.822 213.12 590.702 214.032 590.606 214.68C590.342 216.552 589.622 220.584 589.622 224.208C589.622 227.472 590.078 230.4 590.558 232.032L593.318 231.864C593.294 231.528 593.294 231.12 593.27 230.856C593.27 230.616 593.342 230.088 593.414 229.728C593.654 228.456 594.446 225.864 595.142 223.848L593.654 222.672C593.294 223.488 592.91 224.304 592.55 225.12C592.478 224.64 592.454 224.04 592.454 223.56C592.454 221.16 593.294 216.36 593.63 214.776C593.726 214.344 594.038 213.12 594.206 212.616ZM627.158 211.752L623.99 211.488C623.918 212.712 623.606 214.176 623.126 215.472C622.118 218.112 620.27 220.704 617.198 223.536L619.766 225.456C620.582 224.4 621.254 223.536 621.974 222.816C622.886 221.952 624.398 221.16 625.718 221.16C626.726 221.16 627.686 221.664 627.686 223.2C627.71 224.496 627.662 226.536 627.566 227.664H630.446C630.422 226.152 630.35 223.536 630.35 222.24C630.35 220.008 628.838 218.832 626.846 218.832C626.03 218.832 624.758 219 624.11 219.288C624.782 218.328 625.478 216.96 625.982 215.784C626.654 214.056 626.966 212.64 627.158 211.752ZM618.11 213.984V216.768C619.43 216.888 621.182 216.936 622.166 216.936C625.094 216.936 629.918 216.72 633.302 216.24L633.326 213.456C629.846 214.08 625.502 214.248 622.334 214.248C621.11 214.248 619.334 214.152 618.11 213.984ZM637.118 220.8L635.942 217.992C635.03 218.448 634.19 218.832 633.254 219.24C631.814 219.912 630.302 220.488 628.094 221.64C625.214 223.08 621.782 225.048 621.782 228.384C621.782 231.48 624.59 232.416 628.334 232.416C630.614 232.416 633.542 232.2 635.15 231.984L635.246 228.888C633.134 229.32 630.446 229.584 628.406 229.584C626.078 229.584 624.926 229.224 624.926 227.904C624.926 226.584 626.102 225.552 628.286 224.424C630.542 223.272 632.702 222.408 634.262 221.808C635.078 221.496 636.374 221.016 637.118 220.8ZM649.934 232.656L652.502 230.448C651.278 228.96 648.974 226.608 647.27 225.216L644.75 227.376C646.43 228.816 648.47 230.88 649.934 232.656ZM678.35 213.864L674.654 213.816C674.822 214.56 674.846 215.592 674.846 216.24C674.846 217.704 674.87 220.536 675.11 222.744C675.782 229.176 678.062 231.528 680.726 231.528C682.646 231.528 684.134 230.088 685.742 225.888L683.318 222.984C682.862 224.88 681.926 227.712 680.774 227.712C679.262 227.712 678.542 225.336 678.206 221.88C678.062 220.128 678.062 218.352 678.062 216.792C678.062 216.12 678.182 214.704 678.35 213.864ZM690.35 214.392L687.302 215.4C689.918 218.376 691.214 224.184 691.574 228.072L694.742 226.824C694.478 223.152 692.63 217.152 690.35 214.392ZM701.726 217.848L703.094 221.232C705.614 220.128 711.278 217.752 714.83 217.752C717.71 217.752 719.27 219.456 719.27 221.712C719.27 225.912 714.158 227.784 707.654 227.928L709.07 231.12C717.518 230.688 722.702 227.208 722.702 221.784C722.702 217.344 719.27 214.848 714.95 214.848C711.422 214.848 706.526 216.552 704.702 217.128C703.814 217.392 702.614 217.704 701.726 217.848ZM743.102 211.608H739.838C739.934 212.064 739.982 212.808 739.982 213.24C739.982 214.608 739.958 217.656 739.958 219.96C739.958 222.288 740.222 226.584 740.222 228.024C740.222 229.416 739.358 229.776 738.086 229.776C736.43 229.776 735.59 229.224 735.59 228.312C735.59 227.472 736.526 226.824 738.206 226.824C742.31 226.824 745.79 229.152 748.07 231.312L749.798 228.624C747.806 226.944 743.87 224.352 738.59 224.352C734.918 224.352 732.686 226.056 732.686 228.48C732.686 231.024 734.702 232.488 738.542 232.488C741.686 232.488 743.246 230.904 743.246 228.84C743.246 226.944 742.862 222.6 742.862 219.96C742.862 217.944 742.886 214.536 742.934 213.312C742.958 212.688 743.03 212.088 743.102 211.608ZM733.142 213.84L733.19 216.6C734.774 216.792 737.558 217.008 739.094 217.008C742.694 217.008 746.51 216.72 748.958 216.384L748.982 213.648C745.478 214.2 742.334 214.368 739.07 214.368C737.606 214.368 734.846 214.128 733.142 213.84ZM732.998 219.024L733.046 221.856C734.63 222.048 737.342 222.168 738.758 222.168C743.318 222.168 745.934 222.024 749.246 221.64L749.27 218.808C746.318 219.192 743.222 219.48 738.782 219.48C737.51 219.48 734.582 219.312 732.998 219.024ZM758.75 214.56L759.062 217.848C761.822 217.248 766.742 216.72 768.974 216.48C767.366 217.704 765.422 220.44 765.422 223.872C765.422 229.08 770.174 231.792 775.19 232.104L776.318 228.816C772.262 228.624 768.566 227.184 768.566 223.248C768.566 220.392 770.75 217.272 773.63 216.504C774.926 216.216 776.99 216.192 778.286 216.192L778.262 213.096C776.558 213.168 773.942 213.336 771.446 213.528C767.054 213.912 763.094 214.248 761.102 214.44C760.646 214.488 759.686 214.536 758.75 214.56ZM774.854 218.544L773.078 219.288C773.822 220.344 774.326 221.304 774.95 222.6L776.75 221.808C776.294 220.848 775.43 219.384 774.854 218.544ZM777.518 217.44L775.79 218.232C776.558 219.288 777.11 220.2 777.758 221.496L779.558 220.632C779.054 219.696 778.142 218.28 777.518 217.44ZM796.142 214.224L796.166 217.296C799.166 217.584 803.534 217.584 806.462 217.296V214.2C803.894 214.512 799.094 214.632 796.142 214.224ZM798.062 224.472L795.326 224.232C795.038 225.456 794.894 226.392 794.894 227.352C794.894 229.8 796.886 231.288 801.014 231.288C803.726 231.288 805.67 231.12 807.23 230.808L807.158 227.568C805.07 228.024 803.294 228.216 801.158 228.216C798.71 228.216 797.774 227.568 797.774 226.488C797.774 225.864 797.87 225.288 798.062 224.472ZM792.446 212.616L789.086 212.352C789.062 213.12 788.942 214.032 788.846 214.68C788.582 216.552 787.862 220.584 787.862 224.208C787.862 227.472 788.318 230.4 788.798 232.032L791.558 231.864C791.534 231.528 791.534 231.12 791.51 230.856C791.51 230.616 791.582 230.088 791.654 229.728C791.894 228.456 792.686 225.864 793.382 223.848L791.894 222.672C791.534 223.488 791.15 224.304 790.79 225.12C790.718 224.64 790.694 224.04 790.694 223.56C790.694 221.16 791.534 216.36 791.87 214.776C791.966 214.344 792.278 213.12 792.446 212.616ZM823.886 224.832H827.006C826.622 221.52 831.878 221.088 831.878 217.584C831.878 214.392 829.334 212.76 825.854 212.76C823.286 212.76 821.174 213.936 819.638 215.712L821.606 217.512C822.782 216.288 823.982 215.616 825.446 215.616C827.342 215.616 828.494 216.432 828.494 217.896C828.494 220.224 823.382 221.064 823.886 224.832ZM825.47 231.24C826.67 231.24 827.582 230.352 827.582 229.104C827.582 227.856 826.67 226.992 825.47 226.992C824.246 226.992 823.334 227.856 823.334 229.104C823.334 230.352 824.222 231.24 825.47 231.24Z" fill="white"/>
<path d="M32.8 230.2C29.4667 230.2 26.6667 229.533 24.4 228.2C22.1333 227 21 224 21 219.2C21 216.267 21.4667 213.733 22.4 211.6C23.4667 209.467 25.2 208.4 27.6 208.4C29.8667 208.4 32.4667 208 35.4 207.2C38.4667 206.4 41.5333 204.867 44.6 202.6C47.6667 200.467 50.2667 197.467 52.4 193.6C54.5333 189.867 55.8 185 56.2 179L21.8 105.4C21.2667 104.2 21 103.067 21 102C21 99.7333 21.9333 97.6667 23.8 95.8C25.8 93.9333 28.1333 92.4667 30.8 91.4C33.4667 90.2 35.9333 89.6 38.2 89.6C39.8 89.6 41.2667 89.9333 42.6 90.6C44.0667 91.2667 45.0667 92.4 45.6 94L69.6 153.8L88.8 94C89.4667 92.4 90.4667 91.2667 91.8 90.6C93.1333 89.9333 94.4667 89.6 95.8 89.6C97.8 89.6 100.2 90.2 103 91.4C105.8 92.4667 108.2 94 110.2 96C112.333 97.8667 113.4 100 113.4 102.4C113.4 103.6 113.2 104.6 112.8 105.4L83.6 180C81.2 186 78.8667 191.933 76.6 197.8C74.3333 203.8 71.4667 209.2 68 214C64.6667 218.933 60.2 222.867 54.6 225.8C49 228.733 41.7333 230.2 32.8 230.2ZM151.127 187.8C144.06 187.8 137.927 185.667 132.727 181.4C127.66 177 125.127 170.267 125.127 161.2C125.127 153.6 127.06 147.667 130.927 143.4C134.927 139.133 140.393 136.133 147.327 134.4C154.393 132.667 162.527 131.8 171.727 131.8H179.927V129.2C179.927 126.267 179.327 123.4 178.127 120.6C177.06 117.8 175.26 115.467 172.727 113.6C170.327 111.733 166.86 110.8 162.327 110.8C157.26 110.8 153.327 111.333 150.527 112.4C147.86 113.333 145.793 114.333 144.327 115.4C142.86 116.467 141.26 117 139.527 117C136.727 117 134.527 115.6 132.927 112.8C131.46 110 130.727 107.133 130.727 104.2C130.727 101.4 132.393 98.9333 135.727 96.8C139.193 94.5333 143.393 92.8 148.327 91.6C153.26 90.4 158.06 89.8 162.727 89.8C173.127 89.8 181.46 91.6667 187.727 95.4C193.993 99.1333 198.527 103.933 201.327 109.8C204.26 115.667 205.727 122 205.727 128.8V177.6C205.727 180 204.527 182 202.127 183.6C199.727 185.2 196.727 186 193.127 186C189.793 186 186.993 185.2 184.727 183.6C182.593 182 181.527 180 181.527 177.6V172C177.927 176.133 173.66 179.8 168.727 183C163.927 186.2 158.06 187.8 151.127 187.8ZM161.527 168.6C164.327 168.6 167.127 167.667 169.927 165.8C172.727 163.933 175.06 161.533 176.927 158.6C178.927 155.667 179.927 152.6 179.927 149.4V145.2H176.927C172.527 145.2 168.327 145.467 164.327 146C160.327 146.533 157.06 147.733 154.527 149.6C152.127 151.333 150.927 154.067 150.927 157.8C150.927 161.533 151.927 164.267 153.927 166C156.06 167.733 158.593 168.6 161.527 168.6ZM243.667 186C239.934 186 236.867 185.133 234.467 183.4C232.067 181.667 230.867 179.733 230.867 177.6V99C230.867 96.6 232.067 94.6667 234.467 93.2C236.867 91.7333 239.934 91 243.667 91C246.867 91 249.534 91.7333 251.667 93.2C253.934 94.6667 255.067 96.6 255.067 99V105C257.334 101.133 260.667 97.6667 265.067 94.6C269.467 91.4 275.001 89.8 281.667 89.8C287.401 89.8 292.467 91.6667 296.867 95.4C301.267 99.1333 304.534 103.933 306.667 109.8C310.134 103 314.534 98 319.867 94.8C325.334 91.4667 330.934 89.8 336.667 89.8C342.801 89.8 348.534 91.4 353.867 94.6C359.334 97.6667 363.734 102.267 367.067 108.4C370.534 114.4 372.267 121.733 372.267 130.4V177.6C372.267 179.733 371.001 181.667 368.467 183.4C365.934 185.133 362.867 186 359.267 186C355.801 186 352.801 185.133 350.267 183.4C347.734 181.667 346.467 179.733 346.467 177.6V130.4C346.467 126.4 345.667 123.067 344.067 120.4C342.601 117.733 340.601 115.733 338.067 114.4C335.534 112.933 332.934 112.2 330.267 112.2C327.734 112.2 325.267 112.933 322.867 114.4C320.467 115.733 318.467 117.733 316.867 120.4C315.267 123.067 314.467 126.333 314.467 130.2V177.8C314.467 180.733 313.067 182.867 310.267 184.2C307.601 185.4 304.667 186 301.467 186C298.534 186 295.667 185.4 292.867 184.2C290.067 182.867 288.667 180.733 288.667 177.8V130.4C288.667 126.667 287.867 123.467 286.267 120.8C284.801 118.133 282.801 116.067 280.267 114.6C277.867 113.133 275.267 112.4 272.467 112.4C269.801 112.4 267.267 113.067 264.867 114.4C262.467 115.733 260.467 117.733 258.867 120.4C257.401 123.067 256.667 126.4 256.667 130.4V177.6C256.667 179.733 255.401 181.667 252.867 183.4C250.334 185.133 247.267 186 243.667 186ZM442.214 187.8C432.747 187.8 424.347 186.133 417.014 182.8C409.814 179.333 404.147 174.533 400.014 168.4C395.881 162.133 393.814 154.933 393.814 146.8V129.8C393.814 122.6 395.747 116 399.614 110C403.614 103.867 408.881 99 415.414 95.4C422.081 91.6667 429.481 89.8 437.614 89.8C445.081 89.8 451.881 91.4 458.014 94.6C464.281 97.8 469.347 102.2 473.214 107.8C477.081 113.4 479.014 119.933 479.014 127.4C479.014 133.133 478.081 137.267 476.214 139.8C474.347 142.2 471.947 143.733 469.014 144.4C466.214 144.933 463.281 145.2 460.214 145.2H419.614V148.2C419.614 153.933 421.747 158.6 426.014 162.2C430.414 165.667 436.081 167.4 443.014 167.4C447.414 167.4 451.081 166.733 454.014 165.4C456.947 164.067 459.481 162.8 461.614 161.6C463.747 160.4 465.747 159.8 467.614 159.8C469.614 159.8 471.347 160.467 472.814 161.8C474.281 163.133 475.414 164.733 476.214 166.6C477.014 168.333 477.414 169.867 477.414 171.2C477.414 173.467 475.947 175.933 473.014 178.6C470.214 181.133 466.147 183.333 460.814 185.2C455.614 186.933 449.414 187.8 442.214 187.8ZM419.614 130H448.814C451.081 130 452.614 129.667 453.414 129C454.347 128.2 454.814 126.733 454.814 124.6C454.814 121.533 453.947 118.8 452.214 116.4C450.614 114 448.481 112.133 445.814 110.8C443.281 109.467 440.414 108.8 437.214 108.8C434.147 108.8 431.281 109.467 428.614 110.8C425.947 112 423.747 113.8 422.014 116.2C420.414 118.467 419.614 121.2 419.614 124.4V130ZM537.084 186C525.084 186 515.884 183.4 509.484 178.2C503.218 173 500.084 164.733 500.084 153.4V56.6C500.084 54.2 501.484 52.2667 504.284 50.8C507.084 49.3333 509.951 48.6 512.884 48.6C516.084 48.6 519.018 49.3333 521.684 50.8C524.484 52.2667 525.884 54.2 525.884 56.6V91H549.484C551.618 91 553.218 92 554.284 94C555.484 95.8667 556.084 98 556.084 100.4C556.084 102.8 555.484 105 554.284 107C553.218 108.867 551.618 109.8 549.484 109.8H525.884V153.4C525.884 157.4 526.684 160.2 528.284 161.8C530.018 163.4 532.951 164.2 537.084 164.2H544.884C548.618 164.2 551.351 165.333 553.084 167.6C554.951 169.867 555.884 172.333 555.884 175C555.884 177.8 554.951 180.333 553.084 182.6C551.351 184.867 548.618 186 544.884 186H537.084ZM595.634 187.8C588.568 187.8 582.434 185.667 577.234 181.4C572.168 177 569.634 170.267 569.634 161.2C569.634 153.6 571.568 147.667 575.434 143.4C579.434 139.133 584.901 136.133 591.834 134.4C598.901 132.667 607.034 131.8 616.234 131.8H624.434V129.2C624.434 126.267 623.834 123.4 622.634 120.6C621.568 117.8 619.768 115.467 617.234 113.6C614.834 111.733 611.368 110.8 606.834 110.8C601.768 110.8 597.834 111.333 595.034 112.4C592.368 113.333 590.301 114.333 588.834 115.4C587.368 116.467 585.768 117 584.034 117C581.234 117 579.034 115.6 577.434 112.8C575.968 110 575.234 107.133 575.234 104.2C575.234 101.4 576.901 98.9333 580.234 96.8C583.701 94.5333 587.901 92.8 592.834 91.6C597.768 90.4 602.568 89.8 607.234 89.8C617.634 89.8 625.968 91.6667 632.234 95.4C638.501 99.1333 643.034 103.933 645.834 109.8C648.768 115.667 650.234 122 650.234 128.8V177.6C650.234 180 649.034 182 646.634 183.6C644.234 185.2 641.234 186 637.634 186C634.301 186 631.501 185.2 629.234 183.6C627.101 182 626.034 180 626.034 177.6V172C622.434 176.133 618.168 179.8 613.234 183C608.434 186.2 602.568 187.8 595.634 187.8ZM606.034 168.6C608.834 168.6 611.634 167.667 614.434 165.8C617.234 163.933 619.568 161.533 621.434 158.6C623.434 155.667 624.434 152.6 624.434 149.4V145.2H621.434C617.034 145.2 612.834 145.467 608.834 146C604.834 146.533 601.568 147.733 599.034 149.6C596.634 151.333 595.434 154.067 595.434 157.8C595.434 161.533 596.434 164.267 598.434 166C600.568 167.733 603.101 168.6 606.034 168.6ZM687.975 186C684.375 186 681.375 185.133 678.975 183.4C676.575 181.667 675.375 179.733 675.375 177.6V99C675.375 96.6 676.575 94.6667 678.975 93.2C681.375 91.7333 684.375 91 687.975 91C691.308 91 694.042 91.7333 696.175 93.2C698.442 94.6667 699.575 96.6 699.575 99V107.2C701.042 104.267 702.975 101.533 705.375 99C707.908 96.3333 710.775 94.1333 713.975 92.4C717.175 90.6667 720.575 89.8 724.175 89.8H730.375C732.908 89.8 735.108 90.9333 736.975 93.2C738.842 95.3333 739.775 97.9333 739.775 101C739.775 104.2 738.842 106.933 736.975 109.2C735.108 111.333 732.908 112.4 730.375 112.4H724.175C720.442 112.4 716.775 113.667 713.175 116.2C709.708 118.6 706.842 122 704.575 126.4C702.308 130.667 701.175 135.867 701.175 142V177.6C701.175 179.733 699.908 181.667 697.375 183.4C694.842 185.133 691.708 186 687.975 186ZM775.408 187.8C768.341 187.8 762.208 185.667 757.008 181.4C751.941 177 749.408 170.267 749.408 161.2C749.408 153.6 751.341 147.667 755.208 143.4C759.208 139.133 764.674 136.133 771.608 134.4C778.674 132.667 786.808 131.8 796.008 131.8H804.208V129.2C804.208 126.267 803.608 123.4 802.408 120.6C801.341 117.8 799.541 115.467 797.008 113.6C794.608 111.733 791.141 110.8 786.608 110.8C781.541 110.8 777.608 111.333 774.808 112.4C772.141 113.333 770.074 114.333 768.608 115.4C767.141 116.467 765.541 117 763.808 117C761.008 117 758.808 115.6 757.208 112.8C755.741 110 755.008 107.133 755.008 104.2C755.008 101.4 756.674 98.9333 760.008 96.8C763.474 94.5333 767.674 92.8 772.608 91.6C777.541 90.4 782.341 89.8 787.008 89.8C797.408 89.8 805.741 91.6667 812.008 95.4C818.274 99.1333 822.808 103.933 825.608 109.8C828.541 115.667 830.008 122 830.008 128.8V177.6C830.008 180 828.808 182 826.408 183.6C824.008 185.2 821.008 186 817.408 186C814.074 186 811.274 185.2 809.008 183.6C806.874 182 805.808 180 805.808 177.6V172C802.208 176.133 797.941 179.8 793.008 183C788.208 186.2 782.341 187.8 775.408 187.8ZM785.808 168.6C788.608 168.6 791.408 167.667 794.208 165.8C797.008 163.933 799.341 161.533 801.208 158.6C803.208 155.667 804.208 152.6 804.208 149.4V145.2H801.208C796.808 145.2 792.608 145.467 788.608 146C784.608 146.533 781.341 147.733 778.808 149.6C776.408 151.333 775.208 154.067 775.208 157.8C775.208 161.533 776.208 164.267 778.208 166C780.341 167.733 782.874 168.6 785.808 168.6Z" fill="white"/>
<path d="M871.717 156.466C864.914 118.179 874.18 77.4831 954.256 80.1673C971.898 117.697 983.427 189.827 888.41 178.109L904.286 154.495M940.065 101.275L920.161 130.88M920.161 130.88L947.5 127M920.161 130.88L904.286 154.495M904.286 154.495L935.164 151.31" stroke="#00FF66" stroke-width="12" stroke-linecap="round" stroke-linejoin="round"/>
</svg>
