<?xml version="1.0" standalone="no"?>
<!DOCTYPE svg PUBLIC "-//W3C//DTD SVG 20010904//EN"
 "http://www.w3.org/TR/2001/REC-SVG-20010904/DTD/svg10.dtd">
<svg version="1.0" xmlns="http://www.w3.org/2000/svg"
 width="112.000000pt" height="112.000000pt" viewBox="0 0 112.000000 112.000000"
 preserveAspectRatio="xMidYMid meet">
<metadata>
Created by potrace 1.14, written by Peter Selinger 2001-2017
</metadata>
<g transform="translate(0.000000,112.000000) scale(0.100000,-0.100000)"
fill="#000000" stroke="none">
<path d="M687 1114 c-1 -1 -28 -5 -60 -8 -230 -27 -431 -136 -521 -284 -65
-107 -81 -177 -81 -347 1 -164 12 -221 48 -234 57 -21 90 21 78 98 -40 254 24
444 185 547 105 67 290 111 464 110 l85 -1 22 -57 c60 -150 89 -350 68 -473
-14 -82 -67 -180 -124 -228 -92 -77 -253 -116 -448 -108 l-33 1 42 63 c23 34
42 63 43 63 0 2 87 12 175 20 41 4 82 8 90 10 8 1 20 3 27 3 21 2 43 32 43 61
0 31 -36 62 -67 56 -10 -2 -53 -7 -97 -11 -86 -7 -84 -11 -35 60 l27 41 130
18 c72 11 135 22 141 25 19 12 29 55 18 79 -14 30 -43 36 -123 23 -38 -6 -69
-9 -70 -8 -2 1 26 45 61 97 35 52 64 105 65 117 0 21 -34 63 -51 63 -34 0 -81
-61 -319 -417 -270 -402 -281 -423 -246 -458 15 -15 118 -28 226 -28 356 1
573 140 635 409 33 140 13 347 -52 529 -43 121 -62 155 -91 166 -21 8 -246 11
-255 3z"/>
</g>
</svg>
